<?xml version="1.0" standalone="no"?>
<!DOCTYPE svg PUBLIC "-//W3C//DTD SVG 1.1//EN" "http://www.w3.org/Graphics/SVG/1.1/DTD/svg11.dtd" >
<svg xmlns="http://www.w3.org/2000/svg" xmlns:xlink="http://www.w3.org/1999/xlink" version="1.1">
<metadata></metadata>
<defs>
<font id="ruthless_wreckin_oneregular" horiz-adv-x="1705" >
<font-face units-per-em="2048" ascent="1536" descent="-512" />
<missing-glyph horiz-adv-x="1024" />
<glyph horiz-adv-x="0" />
<glyph unicode="&#xd;" horiz-adv-x="1024" />
<glyph unicode=" "  horiz-adv-x="1024" />
<glyph unicode="&#x09;" horiz-adv-x="1024" />
<glyph unicode="&#xa0;" horiz-adv-x="1024" />
<glyph unicode="!" horiz-adv-x="638" d="M39 1057q-6 94 0 178t33 147q8 23 32.5 49.5t54 51t58.5 46t47 38.5q25 20 55.5 45.5t65.5 36.5q6 4 8 2h2q5 -9 13 -29q-8 -27 -39 -59q-2 -4 -2 -13q-10 -72 -12.5 -140.5t5.5 -141.5q23 -170 59 -331t107 -319q-8 -25 -33.5 -52t-57.5 -55t-63.5 -51.5t-52.5 -39.5 q-4 -2 -19 -14.5t-32.5 -24.5t-33 -19.5t-21.5 -1.5q-27 57 -54.5 138.5t-52 173.5t-43 191.5t-24.5 193.5zM178 33q16 25 57 65.5t89.5 82.5t94.5 74t73 36q-8 -41 1 -74t27.5 -61.5t45 -55t52.5 -53.5q-10 -31 -48 -70.5t-86 -77.5t-96 -70t-79 -46l-53.5 53.5t-47 56 t-29.5 64.5t-1 76z" />
<glyph unicode="&#x22;" horiz-adv-x="684" d="M27 1298v2l2 3q16 25 56 63.5t86 78.5t90 71.5t73 39.5l6 7v-4q4 -8 4 -15q-2 -4 -3 -7t-3 -7v-57.5t2 -57.5q53 55 117.5 102.5t126.5 81.5q2 2 6 3q4 2 12 2q8 -10 10 -20.5t6 -20.5q-6 -18 -26 -43q2 -104 24.5 -206t51.5 -200q-8 -25 -34 -52.5t-57.5 -55t-63.5 -51 t-52 -40.5q-4 -2 -19.5 -14t-33 -24.5t-33 -19.5t-21.5 -1q-16 57 -31.5 116.5t-25.5 121.5q-35 -35 -76 -65t-65 -48q-4 -2 -19.5 -14.5t-33 -24.5t-33 -19.5t-21.5 -0.5q-8 94 -17 188t-5 188z" />
<glyph unicode="#" horiz-adv-x="1130" d="M-305 647q49 74 125 132.5t147 107.5q35 23 73 42t79 34q14 94 34.5 163.5t65.5 135.5q-20 -6 -8 7t45 38q20 23 43 45t51 47q41 35 85 70.5t93 58.5q4 0 6.5 1t6.5 1q16 -12 16 -39v-43q-8 -27 -34.5 -55.5t-59.5 -57.5q-14 -63 -25.5 -114.5t-21.5 -122.5 q-4 -20 -6 -39t-4 -37q41 4 79.5 7t77.5 7q6 35 14.5 69t18.5 62q10 31 58 87.5t107.5 110.5t115 92t81.5 30q-12 -35 -53 -76q-6 -23 -11 -43t-9 -47q-10 -63 -14.5 -125.5t-8.5 -128.5q0 -4 -1 -6t-1 -6q156 12 314 30q-10 -31 -48.5 -70.5t-86.5 -77.5t-96 -69.5 t-79 -46.5q-2 0 -4 -2v-24.5t2 -24.5q68 10 136.5 18.5t136.5 18.5q-8 -25 -35 -54.5t-61.5 -60t-74.5 -60.5t-75 -52q14 -59 37.5 -112.5t58.5 -100.5q16 -20 35.5 -38t36.5 -36q-10 -31 -48 -71t-86.5 -78t-96.5 -69.5t-78 -45.5q-29 29 -46.5 45t-31 32.5t-24.5 38 t-28 58.5q-25 59 -41 136t-26 165q-29 -4 -55.5 -8t-55.5 -11q16 -53 40 -106t57 -107q-8 -25 -34 -52t-57.5 -55t-63.5 -51.5t-52 -39.5q-4 -2 -19.5 -14.5t-33 -24.5t-33 -19.5t-21.5 -1.5q-53 94 -85 183.5t-46 181.5q-45 -16 -89 -27.5t-89 -5.5l-4 4q8 37 58 90.5 t112 104.5q0 100 12 211q-63 -6 -125 -19l-24 -6q-51 -43 -105.5 -79t-89.5 -52q-14 10 -31.5 19.5t-21.5 27.5zM393 784q0 -35 3 -68.5t7 -68.5q35 16 69 30.5t67 24.5v45.5t2 45.5q-37 -4 -74 -5.5t-74 -3.5z" />
<glyph unicode="$" d="M-6 811q2 57 31.5 126t80 140.5t116 143t138.5 133.5q-10 53 -9 103t14 91q6 20 39.5 54t75.5 69t83 64.5t60 44.5q14 10 33.5 24.5t35.5 20.5q23 10 13.5 -5.5t-31.5 -37.5q-6 -18 -6 -31q-2 -18 0 -37.5t4 -40.5q4 -33 9 -64.5t11 -64.5q84 23 152 6q72 -16 119 -56 t82.5 -88t68.5 -98.5t78 -88.5q-10 -31 -48 -71t-86 -78t-96.5 -69.5t-78.5 -46.5q-59 49 -99.5 117t-93.5 123q-35 -33 -73.5 -61.5t-63.5 -47.5q-4 -2 -19.5 -14t-33 -24.5t-32.5 -19.5t-22 -1q-16 51 -35.5 115.5t-35.5 134.5v-2q-16 -29 -33.5 -68t-28 -80t-10.5 -81.5 t19 -75.5q18 -33 42.5 -61.5t55.5 -47.5q47 -27 112.5 -36t139 -9t152.5 8t155 17.5t144.5 15.5t123.5 4q78 -4 143.5 -19.5t112.5 -51t70.5 -96t17.5 -152.5q-8 -111 -49 -209.5t-104.5 -184.5t-144.5 -158.5t-167 -133.5q41 -92 94.5 -178.5t110.5 -172.5 q-8 -25 -33.5 -52t-57.5 -55t-63.5 -51.5t-52.5 -39.5q-4 -2 -19 -14.5t-32.5 -24.5t-33 -19.5t-21.5 -1.5q-51 76 -114.5 180.5t-115.5 219.5q-39 -16 -78.5 -31.5t-80.5 -26.5q-49 -12 -122 -17t-143.5 8t-125 52t-66.5 115q-8 47 7.5 96t23.5 97q16 25 57 65.5t89 82.5 t94 74t73 36q-8 -47 -23.5 -95.5t-7.5 -97.5q6 -43 29 -73.5t54.5 -50t71.5 -30t81 -14.5q-10 47 -15.5 92t-0.5 86q4 31 33.5 67t67.5 69.5t78 62.5t62 45q12 8 25.5 20.5t28 19.5t29 8t26.5 -13q-4 -14 -14.5 -28.5t-24.5 -31.5q4 -29 7 -48t6 -37.5t8 -39t14 -51.5 q20 -70 49 -143q8 4 15 6t18 6q20 25 42.5 48.5t34.5 52.5q25 61 44.5 125.5t23.5 130.5q6 94 -21.5 154.5t-81 96t-126 50t-154.5 15.5t-170 -7t-170 -17.5t-153.5 -15.5t-122.5 -2q-61 6 -113.5 21.5t-91.5 46t-60.5 75.5t-19.5 111z" />
<glyph unicode="%" horiz-adv-x="1024" d="M-324 1260q2 23 31 61.5t72 85.5t95 95t100.5 91t87 75t55.5 44q14 10 31.5 24.5t37 25t39 15.5t37.5 -1q-8 -25 -37.5 -57.5t-68.5 -66.5t-82 -66t-78 -52q-4 -12 -4 -16q0 -12 -1 -24.5t3 -25.5q10 -23 44 -51t80 -58t100 -57.5t104 -48.5q-16 43 -40 85t-53.5 79 t-67.5 63.5t-83 37.5q-6 6 4 20t25.5 29.5t30 28t18.5 16.5q18 18 47.5 44.5t61.5 53.5t64.5 47.5t57.5 24.5q72 -16 116 -63.5t81 -110.5q51 -80 71.5 -154t8.5 -168q-2 -16 -17.5 -35.5t-34.5 -40.5q-18 -23 -38.5 -40t-43.5 -33q-43 -41 -89 -81t-96 -69t-107.5 -39 t-120.5 8q-29 8 -73 23.5t-93 37t-99.5 48.5t-90.5 57.5t-63.5 65.5t-21.5 72zM-14 -258q47 295 155.5 561t265 502.5t354 447.5t425.5 396q2 2 17.5 13t33.5 25.5t37.5 26.5t30 17.5t9.5 -2t-22 -33.5q-8 -10 -16.5 -18.5l-18.5 -18.5q-35 -35 -69.5 -70t-75.5 -65 q-57 -57 -113.5 -114.5t-109.5 -119.5q-238 -274 -385.5 -603t-204.5 -687q-8 -25 -33.5 -52.5t-57.5 -55t-63.5 -51t-52.5 -40.5q-4 -2 -19.5 -14t-32.5 -24.5t-32.5 -19.5t-21.5 -1zM166 1280q-6 -6 10 6q-8 -4 -10 -6zM406 211q2 23 30.5 61.5t71.5 86t95 95.5t100.5 91 t87 74.5t55.5 44.5q14 10 31.5 24t37 24.5t39 15.5t37.5 -1q-8 -25 -37.5 -57.5t-68.5 -66.5t-82 -65.5t-78 -52.5q-4 -12 -4 -16q0 -12 -1 -24.5t3 -24.5q10 -23 44 -51.5t80 -58t100 -57.5t104 -48q-16 43 -40 85t-53.5 79t-67.5 63.5t-83 36.5q-6 6 4 20.5t25.5 30 t30 27.5t18.5 16q18 18 48 45t61.5 53.5t64.5 47t57 24.5q72 -16 116 -63t81 -111q51 -80 71.5 -153.5t8.5 -167.5q-2 -16 -17.5 -36t-34.5 -40q-18 -23 -38.5 -40.5t-42.5 -33.5q-43 -41 -89.5 -81t-96.5 -68.5t-107.5 -39t-120.5 8.5q-29 8 -73 23.5t-93 37t-99.5 48 t-90 57t-63.5 65.5t-21 72zM1055 -39q-6 -6 10 6q-8 -4 -10 -6z" />
<glyph unicode="&#x26;" d="M-246 -310.5q4 7.5 8 11.5q121 131 255.5 225t281.5 189l209 135q20 23 39.5 43t42.5 43q-135 123 -252 260t-203 297q-25 43 -49.5 97t-39.5 111.5t-18 115t19 106.5q27 59 99.5 134t163.5 143.5t182.5 122t154.5 71.5q72 20 161 29.5t165 5.5q53 -2 112.5 -8t117 -21.5 t108.5 -42t92 -67.5q63 -61 70.5 -141.5t-16 -162t-66.5 -159.5t-82 -137q-86 -135 -190.5 -257t-215.5 -241q23 -20 46.5 -40t47.5 -40q160 68 323 124t325 116q20 4 8.5 -13.5t-34 -39t-45.5 -41.5l-22 -19q-47 -41 -96 -82t-108 -68q-55 -20 -111.5 -39.5t-112.5 -37.5 q12 -12 44 -42t65 -60.5t59.5 -56.5t30.5 -28q-10 -31 -48 -70.5t-86 -77.5t-96.5 -70t-78.5 -46q-4 2 -34 29.5t-64.5 61.5t-66.5 63.5t-40 36.5q-63 47 -119 94q-106 -45 -217 -105q-47 -45 -95 -87t-99 -83q-92 -76 -190.5 -137t-207.5 -115q-6 -4 -23.5 -13t-38 -17 t-39 -12.5t-26.5 1.5q-4 4 0 11.5zM-138 -239.5q-5 -4.5 1 -0.5q4 4 7 6.5t7 4.5q-10 -6 -15 -10.5zM343 1476.5q3 -26.5 7 -53.5q10 -70 38 -140.5t61 -129.5q78 -145 181 -272t224 -242q82 109 152 213q31 49 64.5 105.5t57 118t32.5 125t-5 122.5t-56 101t-99.5 70 t-125 43t-136 22.5t-131 5.5t-109.5 -6q-59 -6 -91 -12.5t-63 -16.5q-4 -27 -1 -53.5z" />
<glyph unicode="'" horiz-adv-x="393" d="M32.5 1002.5q-4.5 150.5 24.5 308.5q16 25 57.5 65.5t89.5 82.5t94 74t73 36q-29 -158 -25 -307.5t37 -307.5q-8 -25 -33.5 -52.5t-57.5 -55t-63.5 -51t-52.5 -39.5q-4 -2 -19.5 -14.5t-33 -24.5t-32.5 -19.5t-21 -1.5q-33 156 -37.5 306.5z" />
<glyph unicode="(" horiz-adv-x="784" d="M2 78q-2 76 8 175t28.5 210.5t46.5 227.5t62.5 222.5t75.5 196.5t88 152q57 74 136 138t157 113q18 12 40 22.5t42.5 13.5t35.5 -7t19 -41q-8 -25 -33.5 -52.5t-57.5 -55t-63.5 -51t-51.5 -39.5l-17 -13q-31 -72 -57.5 -143.5t-48.5 -155.5q-41 -160 -71 -323.5 t-26 -329.5q2 -104 20.5 -177t56.5 -120t101.5 -68.5t157.5 -21.5q-10 -31 -48 -71t-86 -78t-96 -69.5t-79 -45.5q-96 0 -159.5 22.5t-102.5 69.5t-57.5 121.5t-20.5 177.5z" />
<glyph unicode=")" horiz-adv-x="1089" d="M35 1272q-4 10 4 24q2 9 6 15q35 51 85 93t97 81q2 0 24.5 18.5t47.5 37t43 26.5t12 -11q-12 -18 0.5 -38.5t35 -39t46 -35t33.5 -28.5q162 -190 281 -414q45 -88 89 -182t75.5 -192.5t50 -200.5t14.5 -203q-10 -221 -116.5 -374.5t-282.5 -272.5q-2 0 -22.5 -15.5 t-47.5 -34t-53.5 -34.5t-40.5 -18q-68 -10 -98.5 -13.5t-55 0.5t-57.5 15.5t-107 34.5q-6 6 4.5 20t25.5 29.5t29.5 28t18.5 16.5q18 18 48 44.5t61.5 53.5t64.5 47.5t58 24.5q45 -12 88 -28.5t88 -22.5q10 -2 19 -2.5t20 -0.5q35 96 41 202t-7 202q-12 106 -47 217 t-83 218.5t-105 208.5t-115 187q-47 72 -96 133.5t-115 114.5q-16 12 -34.5 29.5t-26.5 38.5z" />
<glyph unicode="*" horiz-adv-x="800" d="M-158 1178q16 25 57.5 65.5t89.5 82.5t94 74t73 36q8 -14 14 -30.5t16 -29.5q0 -4 4 -4q8 23 19 39q14 25 56 66t90 83t94.5 73.5t72.5 35.5q10 0 11.5 -4t3.5 -14q-14 -37 -50 -70q-29 -117 -6 -274q72 78 146.5 135t146.5 63q-12 -35 -58 -81t-102 -89 q-23 -31 -44 -62.5t-44 -62.5q66 -20 132.5 -37.5t130 -32t119 -24.5t96.5 -16q-10 -31 -48 -71t-86.5 -78t-96.5 -69.5t-79 -45.5q-18 2 -36.5 4t-36.5 6q10 -20 19 -39t19 -35q-8 -25 -33.5 -52.5t-57 -55t-63.5 -51t-52 -40.5q-4 -2 -19.5 -14t-33 -24.5t-33 -19.5 t-21.5 -1q-39 66 -77 161t-66 206q-63 -53 -118.5 -89t-90.5 -40q-23 -4 -46.5 -4t-47.5 -3q-6 6 4 20.5t25.5 30t29.5 28t18 16.5q27 23 69 63.5t87 69.5q-70 29 -133 62.5t-123 76.5q-14 12 -19 30.5t-16 35.5z" />
<glyph unicode="+" horiz-adv-x="774" d="M-25 500q2 10 2 30q12 18 40 48t63 62t72.5 62.5t70.5 53.5q2 106 31 221q16 25 57 65.5t89.5 82.5t94.5 74t72 36q-29 -117 -29.5 -228.5t17.5 -222.5q57 16 112.5 33t106.5 27q20 4 9 -13.5t-33.5 -39t-45.5 -41.5l-22 -19q-25 -23 -48.5 -43t-49.5 -41q23 -88 51 -170 q-8 -25 -34 -52.5t-57.5 -55t-63 -51t-52.5 -39.5q-4 -2 -19.5 -14.5t-33 -25t-32.5 -19.5t-21 -1q-53 154 -80 299q-70 -18 -136.5 -28.5t-125.5 4.5q0 2 -5 6z" />
<glyph unicode="," horiz-adv-x="512" d="M4 -455q0 106 4 190.5t25.5 156t66.5 137t127 135.5q12 10 39 34.5t57.5 47t60.5 38t48 9.5q-6 -20 -24.5 -43t-45.5 -49q-29 -98 -37 -196.5t-8 -201.5q-8 -25 -33.5 -52t-57 -55t-63.5 -51.5t-52 -39.5q-4 -2 -19.5 -14.5t-33 -24.5t-33 -19.5t-21.5 -1.5z" />
<glyph unicode="-" horiz-adv-x="1013" d="M-8 643q53 78 137 144.5t164 113.5l2 2t4 3t4 3v-2q57 29 141 38t173.5 7t174.5 -11t146 -17q-10 -31 -48 -71t-86 -78t-96.5 -69.5t-78.5 -46.5q-45 6 -105.5 12.5t-128 11.5t-136.5 5t-128 -8q-4 -4 -8 -7t-8 -7q-4 -2 -19.5 -14.5t-33 -25t-33 -19.5t-21.5 -1 q-4 10 -8 18.5t-8 18.5z" />
<glyph unicode="." horiz-adv-x="462" d="M-15.5 161q-7.5 50 1.5 87q14 23 54 63.5t87 80.5t92 73t74 39q2 2 4 3t4 3q0 -2 -2 -4q13 -2 23 -10q-4 -16 -27 -45q2 -39 12 -82t23.5 -86t30 -82t28.5 -70q-8 -25 -33.5 -52.5t-57.5 -55t-63.5 -51t-52.5 -40.5q-4 -2 -19.5 -14t-32.5 -24.5t-32.5 -19.5t-21.5 -1 q-16 35 -34.5 84t-34 101.5t-23 102.5z" />
<glyph unicode="/" horiz-adv-x="878" d="M-135 -367q47 295 155.5 561.5t265 503t354.5 447.5t425 395q2 2 17.5 13.5t34 25.5t38 26.5t29.5 17.5t9 -2t-22 -34q-8 -10 -16 -18.5t-18 -18.5q-35 -35 -70 -69.5t-76 -65.5q-57 -57 -113.5 -114.5t-109.5 -118.5q-238 -274 -385 -603t-205 -688q-8 -25 -33.5 -52 t-57.5 -55t-63.5 -51.5t-52.5 -39.5q-4 -2 -19 -14.5t-32.5 -24.5t-33 -19.5t-21.5 -1.5z" />
<glyph unicode="0" horiz-adv-x="1085" d="M-44 319.5q1 55.5 3 83.5q27 252 110 428.5t218 311.5q4 6 9 11t9 11q-4 10 -7 20.5t-7 20.5q-33 86 -47.5 130t-2 75t52.5 62.5t118 93.5q27 23 59.5 52.5t67.5 29.5l4 4v-4q20 0 37 -15q-4 -16 -27 -45q10 -41 30.5 -93t41.5 -101q23 12 45 25.5t47 27.5q16 2 12 -8 t-18.5 -25.5t-34 -34t-33.5 -30.5q16 -39 29.5 -68t17.5 -37q66 -166 129.5 -335t149.5 -324q16 -29 39.5 -58.5t45 -59.5t38 -61.5t20.5 -66.5q2 -27 -25.5 -65.5t-65.5 -76.5t-78 -71t-58 -49q-25 -18 -67 -53t-95 -75t-112.5 -80t-117 -71.5t-108.5 -50t-86 -12.5 q-43 8 -87 19.5t-87 21.5t-72.5 53t-49 103.5t-30 130t-14.5 135t-3 121zM269 477.5q5 -96.5 26.5 -184.5t61.5 -159t101.5 -107.5t144.5 -30.5t192 72q8 23 -8.5 58.5t-42 73.5t-52 72.5t-37.5 53.5q-41 76 -77.5 166.5t-67.5 164.5q-39 92 -77 185.5t-75 187.5 q-35 -90 -55 -186t-31 -182q-8 -88 -3 -184.5z" />
<glyph unicode="1" horiz-adv-x="925" d="M8 958q-4 6 9.5 23.5t38 42.5t58 53.5t70.5 57.5q23 31 50.5 67.5t44.5 67.5q6 47 14 59q16 25 57 67t89 83t94 73.5t73 36.5q12 -6 4 -25.5t-18 -35.5q-4 -29 -7 -66t-5 -71.5t-3.5 -64.5t-3.5 -44q-27 -293 -13.5 -576.5t63.5 -574.5q98 55 174 90q74 35 147.5 56.5 t151.5 37.5q20 4 9 -13t-33.5 -38.5t-45.5 -41.5l-22 -19q-47 -41 -96.5 -82t-108.5 -68q-231 -47 -430 -164q-8 -6 -16.5 -11t-16.5 -9q-6 -4 -12.5 -8t-14.5 -8q-27 -29 -62.5 -60t-72.5 -58.5t-71.5 -49t-57.5 -31.5q-10 0 -16 -2q-2 2 -2 3t-2 3q39 59 111.5 128 t164.5 136q-45 276 -55 548.5t14 553.5q2 10 2 28.5t2 43.5q-53 -47 -114.5 -89t-96.5 -59h-22.5t-22.5 10z" />
<glyph unicode="2" d="M-346 -501q4 7 8 12q70 86 151 148t173 110q55 45 116 73q31 14 0 -20q66 29 134.5 51.5t136.5 44.5q20 10 35.5 20.5t25.5 16.5q145 94 269 180t216.5 191.5t149.5 243t74 333.5q4 57 5 128t-8.5 142.5t-31 138t-61 116t-99 74t-143.5 14.5q-80 -10 -164 -48t-154 -77 q-96 -53 -183 -115t-175 -125q25 -10 47.5 -23.5t44.5 -23.5q66 -33 126.5 -61.5t114.5 -61.5t103 -76t92 -104q-8 -25 -33.5 -52.5t-57 -55t-63.5 -51.5t-52 -40q-4 -2 -19.5 -14.5t-33 -24.5t-33 -19t-21.5 -1q-43 59 -91 101t-102.5 75t-114 60.5t-124.5 60.5 q-37 18 -75 38.5t-79 28.5q-6 6 4.5 20.5t25.5 30t29.5 27.5t18.5 16q47 43 98.5 84t106.5 76q2 2 20.5 13.5t39 23.5t38 22.5t19.5 10.5q53 33 105 72.5t104 76.5q57 41 147 106.5t192.5 128t211 110t206 55.5t175 -37t118.5 -166q33 -96 40 -206.5t-1 -209.5 q-16 -195 -95 -361.5t-199 -311t-268.5 -269.5t-301.5 -231q66 20 130 37.5t132 27.5q121 20 238.5 31.5t240.5 -4.5q131 -16 238.5 -65.5t218.5 -114.5q-10 -31 -48 -71t-86 -78t-96.5 -69.5t-78.5 -46.5q-174 102 -323.5 146.5t-297 45.5t-303.5 -35t-340 -93 q-31 -10 -60.5 -17.5t-60.5 -17.5q-51 -31 -102 -59.5t-96 -49t-81 -31.5t-57 -7l-4 4q0 4 -1 5t1 5q-25 -16 -46 -28.5t-38 -20.5q-4 2 -9 2t-9 4t0 11z" />
<glyph unicode="3" d="M-281 51.5q9 59.5 13 116.5q2 16 16 27.5t25 21.5q55 57 109.5 112.5t107.5 110.5q45 41 92 87t100 81q10 29 37 52.5t45 39.5q59 53 110.5 91t104.5 67q4 4 8.5 7t8.5 7q0 -4 -2 -6q47 23 97 41.5t116 36.5q10 4 19 5t19 5q102 51 197.5 113.5t187.5 128.5 q35 23 86.5 59.5t90.5 65.5q25 23 53.5 49.5t38.5 54.5q-37 12 -81 12.5t-89 -7t-89 -17.5t-81 -18q-123 -23 -243 -57.5t-243 -61.5q-23 -31 -60.5 -66.5t-80.5 -68.5t-84 -59.5t-67 -39.5q-16 10 -65.5 43t-104 71t-98.5 73t-48 49q53 78 137 144.5t164 111.5q12 6 35 4 t47.5 -8t46 -13.5t31.5 -9.5q57 -8 113.5 -8t111.5 4q90 8 178.5 26.5t176.5 41t175 46t175 40.5q39 8 85 19.5t94 18.5t93 7t84 -14q-12 -39 -54 -90.5t-94.5 -103.5t-105.5 -97t-84 -72q-82 -68 -190.5 -153t-231.5 -173q98 14 196.5 11.5t184.5 -34.5t152.5 -98.5 t99.5 -177.5q14 -47 18.5 -86t2.5 -75.5t-9.5 -75.5t-13.5 -88q-12 -100 -53 -187.5t-99.5 -163t-131 -140t-150.5 -117.5q-72 -49 -141.5 -98.5t-141.5 -96.5q-2 -2 -23.5 -16.5t-31.5 -16.5q-84 -12 -165 -30.5t-165 -14.5q-94 4 -209.5 35t-225 87t-196 137t-122.5 184 q-18 55 -9 114.5zM22.5 290q4.5 -61 29 -115t63.5 -102t84 -87q57 -49 128.5 -90t149.5 -71t158 -47.5t156 -19.5q78 -4 155.5 12.5t155.5 30.5q18 4 24 17q41 74 79 147.5t65 151.5q18 51 23 110.5t-2 117.5t-26.5 113.5t-50.5 100.5q-66 92 -154.5 135t-190 52.5t-207 -7 t-201.5 -43.5q-119 -57 -225 -86q-8 -8 -16.5 -16t-16.5 -19q-18 -20 -42 -37.5t-45.5 -37t-40 -40t-30.5 -46.5q-27 -63 -22.5 -124zM1249 1266q2 2 8 6q-2 -2 -3 -2t-3 -2q-4 -4 -2 -2z" />
<glyph unicode="4" horiz-adv-x="1228" d="M-106 303q-4 18 11 70.5t36.5 109t41 104.5t23.5 60q27 72 57.5 164t66.5 186.5t76 182.5t87 151q41 43 83 82t87 74q2 0 24.5 18.5t47 37t43 26.5t12.5 -10q-45 -59 -75 -136t-58 -149q-63 -158 -118.5 -313.5t-111.5 -315.5q2 8 4 15.5t0 3.5q-4 -20 -16 -50t-8 -53 q61 2 105 8t83 13.5t78 14.5t92 15q0 82 3 182.5t13.5 204t28 200.5t45.5 171q10 27 42 58.5t70 62.5t76 58.5t60 43.5q14 10 30.5 22.5t33.5 20.5q2 0 4 2q6 2 6 0q2 2 8 2q4 -12 6 -25.5t6 -27.5q-12 -35 -61 -82q-6 -35 -12 -72.5t-11 -72.5q-18 -129 -27 -254t-7 -256 q0 -55 2 -109.5t6 -107.5h53.5t52.5 2q74 0 147.5 6t147.5 6h12q25 18 48.5 30.5t44.5 16.5q6 0 20 2t28.5 2t28 -2t17.5 -10q6 -8 -2 -20.5t-20.5 -25.5t-23.5 -23.5t-14 -12.5q-31 -29 -63.5 -61.5t-69.5 -62t-76.5 -54.5t-80.5 -35q-43 -10 -88 -8t-91 -2q-12 -2 -24 -2 t-25 -2q29 -270 73 -535.5t83 -535.5q-8 -25 -33.5 -52.5t-57.5 -55t-63.5 -51.5l-52.5 -40q-4 -2 -19.5 -14.5t-33 -24.5t-32.5 -19t-21 -1q-25 166 -51.5 330.5t-51 329.5t-45 331t-31.5 332q-41 -2 -81.5 -3t-81.5 -3q-66 -2 -129.5 -11.5t-127 -20.5t-127 -21.5 t-128.5 -14.5q0 2 -4 6zM223 635q0 2 4 10q-2 -6 -4 -10z" />
<glyph unicode="5" horiz-adv-x="1736" d="M-20 645q18 31 53 79t73.5 104.5t77.5 118t69 119.5t43 107.5t1 83.5q-2 0 -2 3v4q14 23 53 63.5t86 80.5t93 72.5t75 41.5l4 4v-2h2q123 -49 247 -86t247 -86q-10 -31 -48 -71t-86 -78t-96.5 -69.5t-78.5 -46.5q-74 29 -149 53.5t-150 49.5q-51 -80 -103.5 -153.5 t-85.5 -121.5q25 14 52.5 28.5t31.5 17.5q72 33 152 45t153 16q80 4 191.5 0t232.5 -22.5t242 -53.5t221 -89t167 -133t81 -183q12 -88 -14.5 -174t-79 -165t-124 -150.5t-150.5 -133t-157.5 -113t-144.5 -88.5q-68 -39 -142.5 -62.5t-150.5 -41.5q-141 -33 -286 -37 q-72 -2 -164 9.5t-177 43t-150.5 90t-82.5 152.5q-10 59 6.5 120.5t22.5 123.5q16 25 57 65.5t89 82.5t94.5 74t72.5 36q-6 -59 -22.5 -121t-6.5 -123q10 -55 42 -98t75 -76t92.5 -54.5t98.5 -33.5q106 -29 207.5 -30t198.5 15.5t193.5 47t196.5 65.5q16 27 38 50.5t30 52.5 q37 125 18.5 222t-77 168.5t-150.5 123t-201 88.5q-166 57 -344 77.5t-352 10.5q-59 -4 -114.5 -11.5t-110.5 -23.5q-23 -6 -45.5 -15.5t-44.5 -19.5q-8 -4 -9 -4q-2 -2 -4 -2q0 -2 -2 -2q-27 -16 -51 -31q-4 -2 -12 -5t-12 1zM41 672l2 2z" />
<glyph unicode="6" d="M-42 175q1 89 17.5 174t32.5 134q33 100 79 185.5t101.5 162t121 148.5t139.5 143q59 57 123.5 111.5t136.5 95.5q47 27 91 52.5t91 48.5q33 18 84 27t99 3t84 -30.5t40 -75.5q-8 -25 -33.5 -52.5t-57.5 -55t-63.5 -51.5l-52.5 -40q-4 -2 -19.5 -14.5t-32.5 -24.5 t-32.5 -19t-21.5 -1q-4 49 -37 70.5t-78 25.5t-92 -4t-80 -19q-29 -10 -57 -30q-2 0 -2 -2q-66 -80 -123 -183q-43 -78 -79 -166t-54 -182q16 16 32.5 30.5t20.5 18.5q53 47 106.5 90t112.5 78q111 23 215 31t215 -4q147 -14 297 -52t283 -102q14 -6 36.5 -17t43 -26.5 t36 -33t17.5 -37.5q4 -33 3 -66t-1 -65q0 -31 -38 -79t-89 -98.5t-101.5 -93.5t-76.5 -61q-59 -47 -120 -95.5t-128 -82.5q-104 -49 -218 -96.5t-234 -75t-239.5 -28.5t-236.5 42q-45 18 -83 48t-79 56q-57 39 -78.5 119t-20.5 169zM266 437.5q2 -62.5 19 -122.5 q27 -100 84 -162.5t136 -96t171 -42t186 1t183.5 31t160.5 47.5q43 16 83 36t81 40q37 63 29 111.5t-43 83t-87.5 60.5t-101.5 42q-223 78 -441 107.5t-452 -11.5q-10 -63 -8 -125.5z" />
<glyph unicode="7" horiz-adv-x="1441" d="M-160 1255q2 4 2 5.5t2 5.5l2 2v2q16 25 57.5 65.5t89.5 82.5t94 74t73 36q131 -12 256 -27.5t256 -5.5q117 8 234.5 27.5t236.5 39t236.5 32t234.5 10.5q-4 -25 -29.5 -54.5t-60.5 -59.5t-70 -56.5t-55 -42.5q-29 -23 -64 -45q-4 -6 -10 -12.5t-12 -14.5 q-20 -23 -36.5 -47.5t-33.5 -52.5q-25 -41 -47 -81t-45 -81q102 16 203.5 27.5t201.5 25.5q-10 -31 -48 -71t-86 -77.5t-96 -69.5t-79 -46q-55 -8 -110.5 -14.5t-110.5 -14.5q-129 -248 -257 -494.5t-263 -490.5q-43 -53 -95.5 -99t-107.5 -87q-4 -2 -19.5 -14.5t-33 -25 t-32.5 -19.5t-21 -1q92 164 179 327t173 329q70 135 137.5 273t140.5 273q-123 -23 -245 -49q-68 -16 -136 -37q-16 -6 -41.5 -20t-48.5 -25q-18 -14 -36.5 -25t-29.5 -16.5t-13.5 -3.5t10.5 19q29 31 59.5 58.5t59.5 53.5q53 45 109 96.5t122 80.5q78 35 162 60.5t170 43.5 q2 4 3 5t3 5q55 86 129 162t153 143q-102 0 -203.5 -11t-202.5 -27.5t-202.5 -33t-204.5 -28.5q0 -2 2 -4q-8 -25 -33.5 -52.5t-57 -55t-63.5 -51t-52 -40.5q-4 -2 -19.5 -14t-33 -24.5t-33 -19.5t-21.5 -1q-18 49 -52 85t-74 66.5t-83 59.5t-80 63q0 4 -4 4zM1372 1382 q2 0 6 4q2 2 0 1t-6 -5z" />
<glyph unicode="8" d="M-54 55q7 43 25.5 84t42 80t41.5 72q59 98 140 188t172 168q-14 -4 -27.5 -7t-28.5 -5q-98 -16 -136 15.5t-40 88t21.5 123t48.5 119.5q37 76 86 140.5t108 121.5q-53 -29 -101 -57.5t-87 -50.5q-16 -8 -22.5 -7.5t10.5 21.5q55 66 123.5 120t136.5 101q41 25 95 58.5 t115.5 65.5t127 58.5t129 40t123 8t108.5 -35.5q27 -16 52.5 -34t37.5 -46q20 -39 13 -81t-28.5 -82t-52 -76t-55.5 -60q-57 -59 -120.5 -120.5t-135.5 -123.5q98 51 204 92t212.5 62.5t208.5 18.5t195 -40q18 -6 28 -21.5t18.5 -32.5t15.5 -36.5t17 -36.5q-2 -4 -2 -6 t-2 -6q-25 -47 -47 -95t-49 -96q-20 -39 -77.5 -97t-133.5 -125.5t-164 -137.5t-170 -131t-150.5 -107.5t-105.5 -64.5q-72 -37 -147.5 -77t-156.5 -74.5t-164 -59.5t-167 -29q-55 -4 -109 15.5t-110 31.5q-23 6 -36 33t-23 49q-14 41 -7 84zM258 231.5q8 -53.5 64 -77.5 q51 -23 106 -36.5t111 -11.5q53 2 126.5 20.5t154.5 48.5t165 70t159 85t133 93t91 95q27 41 45.5 85t40.5 87q-18 31 -37.5 61.5t-38.5 61.5q-76 6 -150.5 15.5t-152.5 11.5q-86 2 -177 -20.5t-179 -61.5t-171 -87t-157 -96q-31 -43 -66.5 -104t-55 -123.5t-11.5 -116z M448.5 1012q-2.5 -39 10.5 -72q6 -12 18 -21.5t23 -19.5q86 0 145.5 13.5t122.5 41.5q33 29 67.5 54.5t69.5 42.5q27 39 29 75.5t0 96.5q-23 20 -41 41.5t-45 35.5q-47 29 -99.5 35t-107.5 -4q-41 -29 -88 -51q-4 -2 -6 -2t-6 -2q-8 -12 -14.5 -24.5t-12.5 -24.5 q-12 -29 -27.5 -65t-25.5 -73.5t-12.5 -76.5z" />
<glyph unicode="9" horiz-adv-x="1175" d="M-184 732q-2 34 8 74t37 103q49 111 130 209.5t178 183t204.5 157.5t208.5 132q39 25 89 41.5t103 20.5t105.5 -5.5t93.5 -35.5q43 -29 70.5 -71t60.5 -81q-10 -31 -48 -70.5t-86 -77.5t-96.5 -70t-78.5 -46q-41 47 -67 84t-54.5 61.5t-68.5 37t-107 12.5 q-135 0 -206 -58.5t-120 -175.5q-37 -86 -44 -169t40 -171q35 -61 91 -75.5t116 -4.5q29 4 67.5 20.5t82.5 40t90.5 54.5t89.5 66q47 106 112.5 201t161.5 173q41 35 91 79t106 48q6 -20 -11.5 -57t-43 -76t-50 -69.5t-33.5 -38.5q-8 -10 -15 -17.5t-15 -17.5 q-31 -76 -55.5 -153t-47.5 -156q-41 -156 -77.5 -311.5t-59.5 -312.5t-25 -314.5t27 -319.5q-8 -25 -33.5 -52.5t-57.5 -55t-63.5 -51t-52.5 -40.5q-4 -2 -19.5 -14t-32.5 -24.5t-32.5 -19.5t-21.5 -1q-23 129 -30 251t5 251q10 96 27.5 189t40.5 186q6 25 15 65.5 t20.5 85.5t20.5 84t13 57q23 88 46.5 173t54.5 169q-104 -84 -212 -157.5t-225 -139.5q-18 -10 -50.5 -23t-71.5 -23.5t-80 -14.5t-77 2t-62.5 26.5t-36.5 59.5q-16 61 -26.5 100t-12.5 73z" />
<glyph unicode=":" horiz-adv-x="468" d="M-53 178q2 8 19.5 26.5t17.5 20.5q4 4 33.5 30t69.5 60.5t83 70.5t72.5 56.5t38 20.5t-20.5 -35q-18 -18 3.5 -57t56 -81t72.5 -76t52 -44q-10 -31 -48 -71t-86 -77.5t-96 -69.5t-79 -46q-27 18 -63.5 49t-67.5 67.5t-49 76.5t-8 79zM-37 1077q14 23 53 64t86.5 81 t93.5 72.5t74 38.5l6 6q0 -2 -2 -4h2h13.5t13.5 -2q-4 -10 -11 -22.5t-18 -26.5q6 -59 41 -122.5t60 -110.5q-8 -25 -34 -52.5t-57.5 -55.5t-63.5 -51.5t-52 -39.5q-4 -2 -19.5 -14.5t-33 -24.5t-32.5 -19.5t-22 -0.5q-14 29 -34.5 64.5t-37 73.5t-25.5 75.5t-1 70.5z" />
<glyph unicode=";" horiz-adv-x="475" d="M-297 -547q45 68 83 139.5t76 142t80 139.5t95 130q4 4 33.5 30.5t69.5 60.5t83 70t73 56.5t38 20.5t-21 -35q-47 -55 -85 -118.5t-72.5 -129t-68.5 -132.5t-75 -128q-43 -53 -95 -99t-107 -87q-4 -2 -19.5 -14.5t-33 -25t-33 -19.5t-21.5 -1zM-88 1087q16 25 57 66 t89 83t94.5 73.5t72.5 36.5q8 -47 18.5 -89.5t26 -80t40 -72.5t63.5 -66q-10 -31 -48 -70.5t-86.5 -77.5t-96.5 -70t-79 -46q-78 61 -105.5 139t-45.5 174z" />
<glyph unicode="&#x3c;" horiz-adv-x="710" d="M-160 440q4 20 30 50t57.5 57.5t62 52.5t47.5 37q35 29 74 57.5t79 44.5q39 59 77 114t83 108q4 4 34 30.5t70 60t83 69.5t72.5 56.5t37.5 20.5t-20 -35q-47 -57 -87 -119.5t-87 -121.5q-51 -68 -111.5 -127.5t-126.5 -114.5l-37 -31q14 -12 30.5 -23.5t31.5 -21.5 q98 -66 188 -139.5t178 -151.5q-10 -31 -48 -70.5t-86 -77.5t-96 -70t-79 -46q-88 78 -178 151.5t-189 139.5q-8 6 -24.5 16.5t-31.5 23.5t-26.5 28.5t-7.5 31.5z" />
<glyph unicode="=" horiz-adv-x="1009" d="M-35 762q2 2 4 3t4 3q-4 8 7.5 22.5t25.5 29t27.5 25.5t17.5 13q53 47 106.5 91t112.5 79q16 4 30 9.5t28 9.5q16 4 12 -6.5t-16 -26.5q39 -6 84 -3t73 5q117 4 232.5 10t232.5 14q-10 -31 -48 -70.5t-86 -77.5t-96 -69.5t-79 -46.5q-117 -8 -232.5 -14t-232.5 -10 q-16 0 -43 -3.5t-55.5 -3.5t-55 4.5t-43.5 14.5q-4 0 -5 -1t-5 -1zM53 344q4 10 9.5 19.5t9.5 19.5q-12 -8 -2 2l12 12q25 37 55.5 66t67.5 61q72 61 129 96t109.5 49.5t102.5 12.5t108.5 -14.5t129 -31t162.5 -34.5q-10 -31 -48 -70.5t-86 -77.5t-96 -70t-79 -46 q-104 20 -209.5 47t-216.5 31h-33l-18 -13q-4 -2 -19.5 -14t-33 -24.5t-33 -19.5t-21.5 -1z" />
<glyph unicode="&#x3e;" horiz-adv-x="827" d="M-25 920q16 25 57.5 65.5t89.5 82.5t94 74t73 36q10 -6 17.5 -15.5t15.5 -19.5q0 -2 -1.5 -2t-1.5 -2q20 -18 41 -37t37 -35q49 -51 97.5 -102.5t93.5 -106.5q10 -12 30.5 -35.5t40 -52.5t33 -55.5t8.5 -44.5q-6 -31 -53 -76t-107.5 -89t-120 -79t-91.5 -47 q-16 -4 -25 -8q-35 -37 -75 -70t-81 -63q-4 -2 -19 -14.5t-32.5 -25t-33 -19.5t-21.5 -1q16 45 49 89t76 86t90 80t94 69q-16 25 -34.5 49t-34.5 43q-45 55 -94.5 106.5t-98.5 102.5q-27 29 -59.5 56.5t-53.5 60.5z" />
<glyph unicode="?" horiz-adv-x="1214" d="M-96 941q-2 26 2 44q18 55 44.5 97t60.5 78t72 69t81 69q98 86 188 126t183.5 51.5t197 1t230.5 -26.5q20 -2 74.5 -5t112.5 -11.5t106.5 -23.5t54.5 -40q14 -49 -7.5 -106.5t-59.5 -113.5t-82 -105.5t-75 -83.5q-39 -45 -81.5 -89.5t-85.5 -88.5t-83 -90t-73 -97 q29 20 45 31q10 6 22.5 17t18.5 1q6 -2 -4 -12q-43 -66 -113.5 -119t-134.5 -100q-2 0 -2 -1t-2 -1l-6 -6q-10 -6 -27.5 -21.5t-37 -29t-39 -23.5t-33.5 -8q-4 4 -5 4q10 31 30 59.5t42.5 54t47 50t44.5 47.5q76 82 152 162.5t141 168.5q20 25 41 53.5t36 58.5t21.5 61.5 t-4.5 66.5q-6 23 -54 37t-106.5 21.5t-111.5 11.5t-72 6q-31 4 -60.5 8t-60.5 8q-78 10 -157.5 14.5t-157.5 -6.5q0 -31 16.5 -44t40 -19t48 -10t43.5 -17q18 -12 31.5 -29.5t28.5 -33t31.5 -25.5t41.5 -6q-10 -31 -48 -71t-86.5 -77.5t-96.5 -69.5t-79 -46q-25 -4 -41 6 t-31.5 25.5t-28.5 33t-32 29.5q-14 10 -31.5 14t-35 7.5t-34.5 8.5t-32 15q-16 14 -18 40zM420 59q2 2 2 4.5t2 4.5q14 25 56 65.5t90 82.5t94.5 74t72.5 36q12 -10 15.5 -43t11.5 -50q14 -29 31.5 -55t40.5 -51q-10 -31 -48 -71t-86.5 -77.5t-96.5 -69.5t-79 -46 q-35 41 -65.5 90t-32.5 102q-4 0 -8 4z" />
<glyph unicode="@" d="M-200.5 293q-16.5 139 1.5 278q18 141 72.5 277.5t146.5 247.5q59 72 152.5 162t200 170.5t218 137t208.5 60.5q156 6 291 -14.5t274 -89.5q27 -12 93.5 -49t136 -86.5t124 -104.5t58.5 -104q4 -39 3 -65t-7.5 -49.5t-17.5 -48t-30 -59.5q-18 -37 -61 -84t-98.5 -99 t-120 -103.5t-127 -93t-118.5 -72.5t-95 -41q-70 -18 -127 -30.5t-129 5.5q-51 14 -88 39t-74 58q-8 6 -14 12t-13 12q-39 -29 -71.5 -51.5t-55.5 -34.5q-18 -10 -54 -19.5t-69.5 -7t-59 17.5t-25.5 54q0 25 26.5 62.5t69.5 78.5t94 84t101.5 80t91.5 66t61 41 q2 2 32.5 17.5t67.5 30.5t69 22t36 -5q-12 -35 -62 -82q20 8 52 5q4 -16 -1.5 -35t-15.5 -39q20 -25 50 -48.5t60.5 -43t57.5 -32.5t43 -18q68 -16 139.5 -4.5t130.5 39.5q14 33 23.5 50.5t12.5 34t3 37t-4 61.5q-2 31 -28.5 66.5t-66.5 70.5t-87 67.5t-92 59t-81 46 t-52 27.5q-45 23 -93.5 41.5t-97.5 32.5q-96 29 -190 35q-92 8 -179 -3t-173 -50q-4 -2 -9.5 -4t-11.5 -6q-55 -80 -102 -175q-35 -70 -57.5 -149.5t-33 -162.5t-7.5 -167t20 -160q16 -82 49 -153q51 -106 120.5 -164.5t151.5 -81t172.5 -16.5t181.5 29.5t179 57.5t168 66 q20 4 9 -13t-33.5 -38.5t-44.5 -41.5l-23 -19q-47 -41 -96.5 -82t-108.5 -68q-125 -53 -255 -102t-269 -56q-166 -6 -275.5 60.5t-170 176.5t-77 249zM653 737q4 -4 7.5 -5t7.5 -5l8 8q-14 -4 -17 2h-6z" />
<glyph unicode="A" horiz-adv-x="1452" d="M-416 1087q0 10 18.5 31t42 42.5t45 40t27.5 24.5q55 47 94 74.5t78 43.5l11 11q2 0 2 -4q39 16 86 23t118 16q117 14 231 21t230 20q35 4 67 9t66 9q104 20 205 46t197 75q88 67 134 97q37 24 55 24q5 0 9 -2q18 -8 15.5 -55.5t-6.5 -137.5q-2 -39 -4 -77t-5 -75 q66 16 130.5 29.5t130.5 28.5q20 4 9 -13.5t-34 -39t-46 -40.5l-22 -20q-41 -35 -81.5 -69.5t-88.5 -63.5v-29.5t2 -29.5q16 -350 69.5 -693.5t113.5 -691.5q-8 -25 -34 -52.5t-57.5 -55t-63.5 -51t-52 -39.5q-4 -2 -19.5 -14.5t-33 -25t-32.5 -19.5t-22 -1 q-59 344 -112 689t-70 696q-3 47 -3 95v25q1 60 3 119q-164 -39 -325.5 -84t-321.5 -102q33 -106 56.5 -214t45.5 -212q6 -29 17.5 -70t20.5 -84q8 -43 14 -83q3 -19 3 -36q0 -18 -3 -32v-2q0 -2 2 -4l-7 -7q-12 -25 -38.5 -51t-57.5 -52t-60.5 -48.5t-47.5 -36.5 q-4 -2 -18.5 -14.5t-32 -24.5t-33 -19t-21.5 -1q-4 10 -8 21l-8 22q4 4 7 10t9 12q-6 59 -23.5 126t-27.5 114q-29 133 -59.5 271t-81.5 269q-16 -8 -33 -15t-33 -15t-22 -7t10 21q14 16 27.5 30.5t29.5 31.5q-35 86 -92 167q-29 41 -85 72t-105 33q-20 2 -42 -2t-42 4 q-12 6 -17 22zM-403.5 1093q-2.5 -1 0.5 -1q2 0 3 1t3 1q-4 0 -6.5 -1zM223 1161q4 -8 8 -12q18 -33 34 -66.5t32 -68.5q170 78 345 139t355 113q2 10 1 17t1 17q0 6 2.5 20.5t4.5 33t2 35t-4 26.5t-23 2q-86 -61 -177 -105t-186.5 -74t-194.5 -47t-200 -30zM993 1427h2h-2z M995 1427l2 3z" />
<glyph unicode="B" d="M-139 874q-6 6 4 20.5t25.5 30t29.5 28t19 16.5q16 14 41.5 37.5t53 48t57.5 45t54 30.5q35 49 78 91.5t82 89.5q70 82 156 153.5t172 130.5q20 14 43.5 30.5t47.5 27t48 10t47 -20.5q-10 -31 -48 -70.5t-86 -77.5t-96 -69.5t-79 -46.5l-9 13.5t-14 7.5 q-59 -70 -109 -164t-85 -205q113 -82 246 -122t274 -50q53 -4 103 -5h21q40 0 81 3q25 4 48.5 5t45.5 5h6q2 0 4 2q10 6 20.5 11.5t20.5 7.5q-23 -76 -88 -136.5t-125 -109.5q-10 -8 -17 -14t-15 -15q102 10 200 13q59 2 140 7q45 3 91 3q36 0 73 -2q83 -4 159 -22.5 t125 -59.5q12 -10 13 -28.5t-3 -40t-10 -41t-10 -31.5q-20 -68 -41 -116t-46.5 -90t-62.5 -81t-90 -86q-94 -82 -165.5 -133t-145.5 -84t-160 -52.5t-207 -37.5q-90 -12 -165.5 -27.5t-145.5 -18.5h-21q-60 0 -120 14q-70 17 -152 69q-121 76 -181.5 199.5t-76.5 263.5 q-7 65 -7 131q-1 76 9 153q18 143 55 260q-61 45 -112 100zM221 647q-1 -25 -1 -49q0 -101 20 -195q76 66 134 101t132 53q27 10 53.5 16.5t54.5 12.5q-100 0 -199.5 14t-193.5 47zM268 307q31 -86 83 -156.5t132 -119.5q88 -55 174 -69q58 -10 116 -10l56 2 q86 7 174.5 27.5t180.5 32.5q41 6 81 11.5t81 15.5q12 33 25 72t22.5 74.5t10.5 63.5t-9 38q-16 12 -31.5 24.5t-34.5 18.5q-74 25 -168 33q-75 6 -154 6h-39q-100 -2 -196 -9.5t-172 -13.5q-29 -2 -67.5 -6t-81.5 -8t-86 -10.5t-78 -12.5q-4 -2 -9.5 -2t-9.5 -2zM1485 104 l2 2z" />
<glyph unicode="C" horiz-adv-x="1288" d="M14 305q-7 69 -7 137q0 189 55 367q75 242 264 424q31 29 69.5 66.5t81.5 73.5t87 64.5t85 41.5q6 2 29.5 7t46.5 7q6 4 12 5t11 3q0 -2 -1.5 -4t-1.5 -4q16 -2 22.5 -10.5t-7.5 -28.5q-6 -8 -11.5 -14t-11.5 -15q-2 -10 -2 -17v-17q2 -92 35 -191.5t90.5 -187.5 t133 -159t163.5 -103q27 -10 54.5 -13.5t56.5 -9.5q-10 -31 -48 -71t-86.5 -77.5t-96.5 -69.5t-79 -46q-29 6 -56.5 9t-53.5 13q-90 33 -167 105t-133 162t-90 189t-36 189q0 18 2 37t4 37q-4 -10 -9 -20t-9 -21q-59 -139 -79 -293q-11 -84 -11 -167q0 -70 8 -140 q8 -82 34.5 -172t75.5 -163.5t124 -117.5q61 -36 140 -36q18 0 37 2q59 6 105.5 23.5t86.5 44t79 57t84 65.5q14 10 33.5 24.5t35.5 20.5q14 6 15.5 2t-8 -15t-23.5 -27.5t-31 -30.5q-35 -33 -71.5 -64t-75.5 -61q-68 -49 -149 -115t-171 -116t-185 -70q-32 -7 -64 -7 q-64 0 -128 27q-80 35 -133 112t-82 154q-33 98 -43 205zM670 1352l6 6z" />
<glyph unicode="D" horiz-adv-x="1357" d="M-94 1526q-6 6 4 20.5t25.5 29.5t30 27.5t18.5 16.5q18 18 47.5 45t61.5 53.5t64.5 47t57.5 24.5q8 -8 13 -31.5t7.5 -52.5t3.5 -55.5t5 -40.5q2 -6 3 -13.5t3 -13.5q2 2 8 2q10 -20 10 -55q45 -113 127 -213q68 -84 160 -162t192.5 -155.5t200 -157.5t183 -168 t144 -185.5t81.5 -209.5q7 -35 7 -68q1 -42 -11 -82q-20 -70 -63.5 -129t-101 -111.5t-112.5 -99.5q-141 -117 -287 -185q-146 -69 -292 -78q-21 -1 -41 -1q-125 0 -249 46q-144 54 -286 181q-6 6 4 20.5t25.5 30t30 27.5t18.5 16q18 18 48 45t61.5 53.5t64.5 47t57 24.5 q68 -59 138.5 -106t147.5 -77t161 -40q35 -4 71 -4q51 0 105 8q43 6 89 17.5t91 27.5q8 20 12 47q6 31 6 61q0 24 -4 48q-8 54 -27.5 107t-48 101t-59.5 91q-63 84 -138 156.5t-155.5 139t-164.5 131t-164 132.5q14 -76 32.5 -152.5t42 -145.5t54.5 -127t67 -99 q16 -18 40 -29.5t46 -28.5q-10 -31 -48 -70.5t-86 -77.5t-96 -69.5t-79 -46.5q-23 16 -43 29.5t-43 28.5q-23 14 -44 55t-40.5 88t-34 89t-20.5 60q-61 204 -94 424q-28 186 -28 367q0 33 1 66q2 55 25 98q-4 10 -5.5 18t-5.5 19q-4 12 -5 38.5t-3 54.5t-6 51.5t-10 29.5z " />
<glyph unicode="E" horiz-adv-x="1490" d="M-594 -369q-4 8 8.5 24.5t29.5 35t34.5 35t21.5 20.5q51 47 100.5 88t101.5 72t110.5 50t128.5 26q16 2 33.5 2h33.5q147 57 289.5 125.5t282.5 134.5q102 47 206.5 93t208.5 95q-55 -6 -106 -13t-70 -9q-86 -8 -180 -16.5t-188.5 -8.5t-186.5 12.5t-176 46.5 q-80 33 -122 88.5t-55 125.5q-7 38 -7 77q0 33 5 68q11 76 38 147q41 109 106.5 200t146.5 170t172 146.5t181 130.5q2 2 11 9.5t20.5 14.5t22.5 13t16 8q23 8 45 18.5t45.5 18t46 11.5t45.5 0q45 -8 89 -11.5t85 -23.5q45 -23 93 -61t89 -86t71 -102.5t40 -107.5 q-8 -25 -34 -52t-57.5 -55t-63.5 -51.5t-52 -39.5q-4 -2 -19.5 -14.5t-33 -24.5t-32.5 -19.5t-22 -1.5q-14 72 -61 142.5t-111.5 126t-141.5 88.5q-67 29 -129 29q-9 0 -19 -1q-35 -2 -67 -14t-67 -22q-39 -47 -70.5 -108.5t-51.5 -127.5q-21 -67 -25 -133q-1 -13 -1 -25 q0 -52 14 -100q16 -59 57 -108.5t112 -77.5q84 -35 176.5 -47.5t186.5 -12.5t188 8.5t180 16.5q18 2 68.5 9t105 14.5t102.5 10.5q16 1 28 1q25 0 36 -4q-10 -29 -41.5 -63t-69.5 -65.5t-78 -59.5t-65 -46q-104 -74 -215.5 -138.5t-227.5 -122.5t-233.5 -111.5 t-234.5 -108.5q-16 -8 -34.5 -15.5t-35.5 -15.5q92 -18 186.5 -47t187.5 -59.5t183.5 -58t176.5 -44.5q159 -33 321 -40q81 -4 161.5 -4t161.5 4q161 7 322.5 25.5t321.5 37.5q-10 -31 -48 -71t-86 -78t-96.5 -69.5t-78.5 -46.5q-125 -14 -251 -29.5t-252 -25.5t-253 -13 q-29 -1 -59 -1l-195 8q-166 12 -324.5 49t-318.5 84q-139 43 -278.5 88t-286.5 51q-4 0 -9.5 1t-9.5 1q-74 -29 -148.5 -53t-150.5 -43q0 2 -4 6z" />
<glyph unicode="F" horiz-adv-x="1583" d="M-420 2298q4 20 27.5 38.5t36.5 33.5q23 20 57.5 54t72.5 66.5t74.5 58t67.5 29.5q16 -4 33.5 -6t30.5 -12q37 -29 70.5 -83t65 -121.5t59.5 -142.5t50 -147q4 -4 5 -6t6 -6q86 -104 173 -206.5t186 -189.5t214 -149.5t256 -87.5q83 -12 145 -15q31 -2 61.5 -2t60.5 2 q60 3 124 10t148 16q-10 -31 -48 -71t-86.5 -78t-96.5 -69.5t-79 -46.5q-84 -8 -147.5 -15t-123.5 -10q-30 -2 -60.5 -2t-62.5 2q-62 3 -144 15q-86 14 -162 44t-143 71q23 -94 46 -188.5t46 -188.5q25 16 49 25.5t53 11.5q-2 -6 -5 -12.5t-7 -12.5q45 -27 113 -29h16 q61 0 130 10q79 11 163 32.5t161.5 45t142 45t107.5 33.5q20 4 9 -13t-33.5 -38.5t-45.5 -40.5l-22 -20q-47 -41 -96 -82t-109 -68q-139 -39 -278 -87t-285 -70q4 -20 9.5 -39t9.5 -39q14 -59 30.5 -116.5t34.5 -115.5q16 -43 38 -85t32 -89q-8 -25 -34 -52.5t-57.5 -55 t-63.5 -51t-52 -39.5q-4 -2 -19.5 -14.5t-33 -25t-32.5 -19.5t-22 -1q-10 45 -31.5 87t-37.5 85q-39 117 -66 234q-78 326 -154.5 647t-174.5 641q-10 37 -29 98.5t-41 132.5q-18 20 -51 58.5t-71 84.5t-78 97t-70 98t-48 87q-14 33 -15 55q0 5 1 10z" />
<glyph unicode="G" d="M-257 108q1 109 13 201q47 356 215 644t453 499q78 57 146.5 89t137.5 37q14 1 29 1q55 0 112 -15q73 -18 163 -61q23 -10 46.5 -20.5t43.5 -26.5q25 -18 48.5 -50t53.5 -46q41 27 70 33q12 -8 8 -21.5t-16.5 -28t-25.5 -26.5t-19 -17q-29 -27 -62 -59.5t-69.5 -62 t-75.5 -53t-78 -33.5q-23 -6 -42.5 5t-36.5 28.5t-33.5 36t-30.5 30.5q-59 45 -144.5 78t-161.5 43q-37 6 -70.5 6t-70.5 -10q-49 -72 -92 -158t-72 -158q-23 -59 -47 -139t-43.5 -171t-29.5 -185q-8 -65 -8 -126q0 -29 2 -58q5 -89 27.5 -166.5t72.5 -133.5q57 -63 120 -86 q55 -21 113 -21h15q67 3 133.5 28.5t132.5 60.5q66 37 128 83t120.5 96t115 102.5t111.5 101.5q63 55 124.5 109.5t127.5 107.5q-129 6 -232.5 15.5t-204.5 10.5h-12q-95 0 -194 -14q-105 -14 -236 -57q-6 6 4 20.5t25.5 29.5t30 27.5t18.5 16.5q53 47 106.5 90t112.5 78 q133 43 239.5 57.5t207 14.5t207 -9.5t239.5 -15.5h24q70 0 142 10q43 5 84 5q40 0 78 -5q-10 -31 -46 -68.5t-80 -72.5t-89 -64.5t-74 -48.5q-4 -2 -7 -4t-7 -4q-2 0 -4 -2h-5q-43 -18 -95 -29.5t-104 -21.5t-96.5 -21.5t-70.5 -27.5q-88 -59 -174 -141t-164 -152 q-139 -123 -293 -247t-317 -216q-51 -29 -131 -61.5t-163 -44.5q-31 -5 -60 -5q-51 0 -98 13q-75 22 -116 104q-18 37 -38.5 73t-32.5 77q-28 89 -28 194v8z" />
<glyph unicode="H" horiz-adv-x="1050" d="M-498 1364q16 25 57.5 65.5t89.5 82.5t94 74t73 36l18 -8q19 -8 41.5 -18.5t44 -19.5t27.5 -11q16 -6 35.5 -8.5t35.5 -2.5h9q51 0 99 22q54 24 99 54q23 23 46.5 41.5t45.5 38.5q23 23 50.5 48.5t40.5 35.5q37 35 75.5 63.5t79.5 55.5q10 6 20.5 11t20.5 7q4 0 4 -4 q-12 -53 -36.5 -103t-49.5 -100q-14 -29 -20 -40t-19 -37q-2 -6 -7 -20.5t-3 -6.5v4q-41 -119 -84 -256t-78 -283q20 -1 41 -1q80 0 168 18q2 16 4 34.5t6 37.5q16 117 43 199.5t80 154.5q-18 -10 -14 -6t14 8v-2l2 2h-2q25 31 54.5 61.5t68.5 63.5q12 12 47 44t73 58.5 t71 34.5t41 -27q-10 -31 -45 -65.5t-76 -67.5q-6 -18 -12.5 -36.5t-10.5 -41.5q-18 -92 -30.5 -187t-22.5 -187q57 18 110.5 37.5t104.5 37.5q20 4 9 -13t-33.5 -38.5t-45.5 -41.5l-22 -19q-33 -29 -65.5 -57.5t-69.5 -53.5q-6 -102 -6 -200q0 -60 2 -116q6 -152 34.5 -297 t82 -288t139.5 -293q-8 -25 -34 -52.5t-57.5 -55t-63.5 -51t-52 -39.5q-4 -2 -19.5 -14.5t-33 -25t-33 -19.5t-21.5 -1q-23 41 -47 81t-47 83q-66 135 -102.5 279.5t-50.5 292.5q-10 115 -10 231q0 35 1 69q4 150 19 299q-59 -18 -116.5 -33.5t-117.5 -29.5 q-24 -151 -24 -295q0 -9 1 -17q2 -152 48 -282q16 -41 37.5 -77t42.5 -75q-8 -25 -34 -52t-57.5 -55t-63.5 -51.5t-52 -39.5q-4 -2 -19.5 -14.5t-33 -24.5t-33 -19.5t-21.5 -1.5q-20 39 -41.5 75t-38.5 77q-31 86 -40 184q-6 65 -6 132q-1 34 1 69q4 104 21.5 212t42.5 216 q-23 4 -44.5 17.5t-37.5 43.5q16 23 53 61t80 77q29 100 58.5 192t58.5 172q23 66 59.5 125.5t59.5 124.5q-55 -49 -125 -107.5t-145.5 -109.5t-152.5 -85t-151 -34q-2 0 -32.5 8.5t-68.5 19.5t-71 23.5t-35 22.5z" />
<glyph unicode="I" horiz-adv-x="964" d="M-170 1327q53 78 137 144.5t164 113.5q45 17 94 19q9 0 18 1q41 1 81 -5q50 -6 98.5 -16.5t93.5 -16.5q2 0 3 -1t5 -1q10 8 23.5 15t25.5 15q16 4 21 4q4 2 12 3q0 -12 -1 -24.5t-3 -23.5q112 -14 224 -19q62 -3 125 -3q50 0 100 2q-10 -31 -48 -71t-86.5 -77.5 t-96.5 -69.5t-79 -46q-61 -2 -122.5 -2t-122.5 4q-12 -29 -19 -64q-29 -118 -44 -234q-14 -108 -15 -214q0 -6 1 -14q1 -112 22.5 -224t70.5 -221q123 41 246 65.5t254 28.5q-10 -31 -48 -70.5t-86.5 -77.5t-96.5 -70t-79 -46q-55 -2 -108 -7t-107 -15q-35 -31 -72.5 -58.5 t-60.5 -46.5q-4 -2 -19.5 -14.5t-32.5 -24.5t-32.5 -19t-21.5 -1q-14 23 -25.5 45t-21.5 45q-27 -10 -53.5 -19.5t-53.5 -19.5q-4 -2 -33.5 -14.5t-64.5 -23.5t-66 -18t-39 -1q-6 6 4.5 20t26 29.5t29.5 28t18 16.5q14 12 35 31.5t45.5 41t49 41t48.5 33.5q-44 154 -44 312 q1 34 3 69q12 193 58 393q10 43 28.5 84l37 82t36 84t23.5 86q-23 4 -42.5 6t-39.5 7q-59 10 -129 24t-137 14q-20 -14 -37 -23t-31 -15q-23 8 -27 8t-12 10h-2h2q-2 2 -2 3t-2 3z" />
<glyph unicode="J" horiz-adv-x="1341" d="M-385 1219q8 4 14 10t13 12q6 10 18 21.5t23.5 22.5t20.5 19.5t11 10.5q18 16 47 42.5t60 52.5t62.5 46.5t56.5 26.5l4 4q2 -2 4 -2q106 14 211 16h46q81 0 162 -5q103 -7 206.5 -20.5t211.5 -25.5q78 -10 154 -16q43 -4 87 -4q33 0 67 2q20 2 37.5 3t35.5 5 q41 37 83 66.5t77 35.5q-14 -57 -42 -96t-62 -88q-68 -98 -99 -202q-18 -62 -18 -131q0 -45 8 -93q20 -121 70.5 -236.5t110 -229.5t119 -226.5t99.5 -229.5q25 -68 44.5 -145.5t25.5 -157.5q2 -25 2 -50q0 -54 -9 -107q-13 -76 -56 -144q-39 -59 -122 -145t-182.5 -166 t-200 -138.5t-173.5 -64.5q-59 -4 -116 -10q-25 -3 -50 -3q-34 0 -68 5q-117 18 -219 78.5t-178 148.5t-120 198.5t-44 227.5q2 92 17.5 153.5t43 114t66.5 106.5t88 130q35 51 85 93t97 81q2 0 25 18.5t47.5 37t43 26.5t11.5 -10q-47 -74 -84.5 -126t-65.5 -103.5 t-43.5 -113t-17.5 -149.5q0 -106 36 -204.5t98.5 -180.5t145.5 -143.5t179 -92.5q90 -30 186 -30h13q102 2 203 49q12 37 27.5 73t19.5 75q4 42 4 82q0 80 -16 155q-23 115 -69 224.5t-104.5 216t-115 214t-102.5 216t-64 223.5q-9 49 -9 97q0 76 23 145q37 114 111 214 q23 33 41 56.5t30 50.5q-43 -27 -89 -45.5t-95 -22.5q-50 -4 -99 -4q-66 0 -132 7q-113 14 -230 30q-27 -31 -62.5 -61.5t-74.5 -58t-74 -50t-57 -33.5q-47 39 -104.5 66t-116 50.5t-116.5 47t-109 60.5q-6 0 -11.5 -1t-11.5 -1z" />
<glyph unicode="K" d="M-71 1246v16q-1 50 5 96q6 53 27 76q4 4 28.5 25.5t59.5 51t74 62.5t70.5 57.5t51 35.5t13.5 -1l-4 -8t-2 -8q-4 -23 -4 -43.5v-42.5v-116.5t4 -117.5q4 -141 19.5 -280.5t39.5 -276.5q16 4 32.5 7t33.5 7q25 29 64.5 67t82.5 73t82 60.5t62 29.5q8 -29 13 -57.5 t15 -57.5q16 -45 37 -84q14 2 28.5 3t33.5 5q53 6 108 13.5t111 15.5q-78 59 -149.5 130t-135.5 155q-35 45 -75 94t-72 103q-34 53 -50 111q-9 31 -8 64q0 28 6 56q4 20 32 50t67 61.5t85 63.5t89 58q10 10 20.5 18.5t20.5 18.5q0 -8 -2 -12q20 12 36.5 21t28.5 16 q16 2 11 -8.5t-19 -27t-33.5 -33.5t-34.5 -30q0 -12 3 -16q6 -47 28.5 -94t53 -92t64.5 -86t62 -76q80 -98 158 -173t162 -134.5t178 -107.5t207 -95v-2h8q-6 -6 -14 -10q-16 -31 -53 -69t-82 -74t-90.5 -65.5t-73.5 -43.5h-4q-101 11 -201 11q-43 0 -87 -2 q-144 -7 -290 -24q72 -104 157 -210.5t174 -205t177 -185.5t162 -152q-10 -31 -48 -71t-86 -78t-96.5 -69.5t-78.5 -46.5q-92 82 -204 197t-222.5 244t-209 264t-161.5 256q-16 -4 -32.5 -5t-33.5 -3q59 -233 148 -459q-8 -25 -34 -52.5t-57.5 -55t-63.5 -51t-52 -40.5 q-4 -2 -19.5 -14t-33 -24.5t-32.5 -19.5t-21 -1q-61 156 -107.5 314.5t-79.5 320.5q-8 -4 -15 -5t-11 3l-13 24l13 19q4 4 8 10t8 10q-23 135 -37 270.5t-20 274.5q0 18 -4.5 68.5t-5.5 108.5z" />
<glyph unicode="L" horiz-adv-x="1482" d="M-116.5 -206q-0.5 16 1.5 32q4 35 13 61q-2 23 -2 43.5v44.5q2 88 9 175.5t17 173.5q29 211 73 413.5t83 409.5q4 20 11 50t15.5 61.5t15.5 62.5t11 55q-8 0 -10 4q4 6 6 13.5t6 13.5v2l2 2q16 25 57 66t89.5 81.5t93.5 71.5t71 35q1 -8 1 -16q0 -33 -14 -65 q-17 -40 -25 -81q-23 -123 -46.5 -243.5t-50.5 -243.5q-29 -141 -53.5 -283.5t-36.5 -288.5l-8 -102t-6 -104q12 10 23.5 17t23.5 17q119 88 233.5 126t225 38t221 -33.5t219.5 -86t219.5 -119t222.5 -134.5q-10 -31 -48 -70.5t-86 -77.5t-96 -69.5t-79 -46.5 q-113 68 -244 149t-270 140q-138 59 -282 83q-50 8 -100 8q-92 0 -181 -29v-5q4 -23 11 -44t7 -46q0 -8 -1 -14t-3 -14q18 2 9 -11.5t-37 -35.5q-29 -35 -69 -63t-63 -48q-37 -31 -77.5 -62.5t-87.5 -48.5q0 2 -4 6q-10 14 -10.5 30z" />
<glyph unicode="M" d="M-272 1260q16 23 56 63.5t87 81.5t93 72.5t73 38.5l4 4v-2q18 -2 48 -29t61.5 -66t65.5 -85t61.5 -87t46 -70.5t24.5 -37.5q53 -78 107.5 -160t114 -161t125 -150.5t141.5 -128.5q29 -20 58.5 -34.5t57.5 -31.5q29 92 44.5 200.5t19.5 225.5q-47 209 -75 418t-40 418v2 l2 2q12 18 38 45t56.5 56.5t65.5 58t67 51.5q20 18 40 37.5t42 38.5q0 -20 2 -31q10 -76 33 -148.5t39 -148.5q43 -207 43 -420q0 -42 -2 -84q35 -156 75 -308.5t89 -301.5q18 -55 41.5 -122t51.5 -134.5t58.5 -132t63.5 -115.5q25 -35 56.5 -64.5t60.5 -64.5 q-10 -31 -48 -71t-86.5 -77.5t-96.5 -69.5t-79 -46q-29 35 -63.5 64.5t-56.5 70.5q-82 158 -147.5 321.5t-119.5 335.5q-47 -51 -99 -95t-112 -87l-19 -15q-19 -16 -44 -33t-49.5 -32.5t-36.5 -15.5q-43 -2 -71.5 -2t-53.5 7t-50.5 23.5t-64.5 45.5l-55 43q10 -37 16.5 -74 t8.5 -74q-10 -31 -48 -71t-86.5 -78.5t-96.5 -70.5t-79 -44l-12 -6q-4 6 6 24q-8 109 -43 210.5t-59 205.5q-37 162 -66.5 324.5t-91.5 316.5q-23 59 -48.5 108.5t-66.5 96.5q-6 6 -18 14t-24.5 17.5t-22.5 19.5t-12 19z" />
<glyph unicode="N" horiz-adv-x="1267" d="M-307 1370q16 23 56 64t87 81.5t93 72.5t73 38l4 4q0 -4 2 -4q37 -35 68 -74q4 2 6 2t6 2l2 3v-3q2 0 3 1.5t3 1.5q18 -33 29 -72q57 -90 99 -189.5t89 -191.5q57 -115 120 -225.5t134 -216.5q117 -172 250 -322q-29 123 -43 251t-14 259q0 63 2 104t8 76t17.5 73 t29.5 93q8 23 59.5 75t116 107.5t125 102.5t88.5 59q23 11 49 11q13 0 27 -3q41 -8 78 -10q-10 -27 -42 -62.5t-74 -70.5t-87 -66.5t-80 -50.5q-10 -63 -10 -128q0 -38 3 -74q9 -104 17 -187q31 -317 137.5 -599t319.5 -519q2 0 6 -4q-2 0 -2 -1t-2 -1q-10 -25 -37.5 -55.5 t-64.5 -63.5t-77 -62.5t-75 -50.5q-10 -10 -21 -20t-22 -21q-4 4 -5 6.5t-5 4.5q-76 53 -155.5 95t-155.5 95q-174 123 -320.5 270.5t-273.5 317.5l16 -88t24.5 -111.5t32 -101.5t37.5 -58q-10 -31 -48 -70.5t-86 -77.5t-96 -69.5t-79 -46.5q-25 14 -44 66.5t-33.5 114 t-24.5 119t-17 81.5q-43 211 -89 420t-87 420q-14 84 -36.5 188.5t-26.5 198.5q-10 16 -22.5 29.5t-24.5 27.5q-10 -4 -15 2q-4 8 -11 15.5t-11 17.5z" />
<glyph unicode="O" horiz-adv-x="1275" d="M-26 134q6 81 14 147q10 86 23.5 193.5t36 217t58 208.5t93.5 169q31 37 67.5 69.5t71.5 63.5q25 23 49.5 44.5t50.5 41.5q-8 23 -6 48.5t-2 52.5q16 25 57 65.5t89.5 82.5t94.5 73.5t72 36.5q4 -27 3 -54.5t10 -54.5q12 -31 38.5 -67.5t57.5 -72.5t60.5 -68t50.5 -54 q51 -55 105 -114.5t102.5 -123t86 -133t56.5 -147.5q16 -63 17 -126q0 -40 -8 -80q-18 -102 -68 -198t-123.5 -183t-160.5 -160.5t-180.5 -132t-179.5 -99.5q-51 -25 -110.5 -42.5t-121.5 -25.5q-38 -5 -75 -5q-23 0 -46 2q-60 5 -116 28q-78 31 -113.5 95.5t-47.5 142.5 q-8 53 -7 108q-1 26 1 52zM286 346q-1 -14 0 -27q0 -86 27 -165q33 -94 106 -135.5t160 -46.5q16 -1 32 -1q72 1 145 19q90 22 162 57q20 29 34.5 50.5t25.5 47t19.5 59.5t16.5 87q7 42 7 82q-1 66 -19 127q-30 98 -85 188t-126.5 170t-137.5 154q-31 35 -85 92t-93 113 q-10 -8 -20.5 -16.5t-20.5 -16.5q-10 -23 -17 -46.5t-16 -45.5q-41 -133 -62.5 -273.5t-37.5 -279.5q-10 -93 -15 -193z" />
<glyph unicode="P" horiz-adv-x="1073" d="M-37 180q0 8 1 14.5t1 12.5q12 16 37 44t55 56q-13 118 -13 236q0 87 7 175q17 206 64 406q16 59 42.5 113.5t49.5 114.5v15q0 41 9 67q11 32 34.5 59t58.5 52.5t82 62.5q14 12 39 34.5t50.5 38t47 13.5t27.5 -39q-8 -27 -37 -58q2 -6 2 -13t2 -13q8 -76 25.5 -149.5 t40.5 -147.5q51 -152 127 -280t196 -232q43 -37 87 -71t83 -73h4q-4 -4 -6 -4q-12 -29 -48 -67.5t-81 -75.5t-92 -67.5t-78 -45.5l-6 -6q-2 0 -2 2q-16 0 -31.5 5.5t-30 13.5t-28.5 15t-31 11q-19 4 -38 4q-27 0 -55 -8q-48 -14 -91 -35q-14 -10 -53 -30q20 -78 46.5 -153 t61.5 -146q-8 -25 -33.5 -52.5t-57.5 -55t-63.5 -51.5l-52.5 -40q-4 -2 -19 -14.5t-32.5 -24.5t-33 -19t-21.5 -1q-47 98 -79 200.5t-52 208.5q-35 -10 -63.5 -12t-47.5 6zM358 795q0 -176 31 -349q41 12 88 33t94 45q-12 10 -24 21.5t-25 23.5q-49 47 -90 103.5t-74 122.5z " />
<glyph unicode="Q" horiz-adv-x="1298" d="M-31 242q4 166 45 323.5t112 304t167 278.5t211 247q59 53 123.5 113.5t136.5 93.5q14 6 15 1.5t-7 -14.5t-23.5 -26.5t-31.5 -32.5q-4 -4 -12.5 -13.5t-17.5 -19.5t-18.5 -19.5l-15.5 -15.5q-4 -8 -9 -14t-9 -10l-4 -4q4 4 7 6t7 6q78 72 162 133t182 100q20 4 9 -13 t-33.5 -38.5t-44.5 -41.5l-23 -19q-14 -12 -27.5 -23.5t-27.5 -23.5q2 -8 5 -14.5t7 -14.5q12 -25 40 -67t57.5 -84t52 -74.5t24.5 -34.5q37 -53 73 -108.5t65.5 -115t51 -121t27.5 -126.5q4 -42 4 -83q0 -107 -31 -204q-42 -133 -124 -250q43 -45 70.5 -75.5t29.5 -30.5 q100 -96 187 -167t179.5 -120t200 -77.5t246.5 -41.5q-10 -31 -48 -70.5t-86 -77.5t-96 -70t-79 -46q-139 12 -247 41t-200 78t-179 119.5t-187 167.5q-2 2 -22.5 25.5t-55.5 58.5l-49 -37q-49 -35 -98.5 -69t-103.5 -58.5t-112 -35.5q-34 -6 -70 -6q-25 0 -52 3 q-106 14 -175 59t-109 112.5t-56 153.5q-13 76 -13 161v22zM283 502v-16q0 -106 25 -202q28 -102 85.5 -172.5t144.5 -102.5q47 -17 103 -17q47 0 100 12q-63 63 -129.5 122.5t-111.5 78.5q-23 -14 -29 -4q6 8 8 16q16 25 57.5 66t89.5 83t94 73.5t73 35.5q23 -4 59.5 -30.5 t79.5 -65.5q1 17 1 34q0 103 -32 205q-37 117 -113 242q-27 43 -68.5 97.5t-82.5 111.5t-73 112.5t-38 102.5q-16 -25 -32.5 -50.5t-28.5 -53.5q-78 -160 -128 -329t-54 -349z" />
<glyph unicode="R" horiz-adv-x="1310" d="M-256 147q-6 6 4 20.5t25.5 30t30 28t18.5 16.5q29 25 72 65.5t88 69.5q0 35 1 68.5t3 64.5q12 215 58 408.5t155 359.5q-4 12 -6.5 23.5t-4.5 21.5q-4 23 5.5 41.5t13.5 38.5q16 25 57 65.5t89 82.5t94.5 74t72.5 36q-4 -16 -12 -34.5t-8 -37.5q39 29 78 41q4 0 6 1t6 1 q4 -14 8 -35q-8 -23 -27.5 -46t-46.5 -48q25 -55 68 -119.5t97 -131t113.5 -132t118 -124t108.5 -107.5t87 -80q16 -16 60.5 -44t91.5 -57.5t85 -56t42 -41.5q2 -10 -5.5 -24.5t-19.5 -27.5t-23.5 -23.5t-17.5 -16.5q-43 -41 -93 -86t-103 -80q-18 -16 -33 -24.5t-19 -3.5 q-14 -8 -27.5 -13.5t-27.5 -9.5q-59 -20 -128 -22.5t-134 -12.5q20 -23 40.5 -43t39.5 -39q86 -90 155.5 -155.5t142 -114.5t157.5 -84t202 -63q-10 -31 -48 -71t-86 -78t-96 -69.5t-79 -46.5q-117 29 -202 64t-157.5 84t-142 114.5t-155.5 155.5q-16 18 -36 36.5t-38 39.5 q-27 -29 -64 -60.5t-74.5 -60.5t-73.5 -51.5t-59 -32.5q-43 49 -74.5 90t-55 85t-39 95.5t-25.5 120.5q-63 -8 -126 -17zM296 757q-5 -60 -5 -118q0 -99 14 -195q78 10 152.5 18.5t152.5 16.5q8 4 14.5 6t12.5 4v-6q53 6 106.5 11.5t106.5 11.5q-147 117 -276 257t-240 290 q-25 -135 -38 -296z" />
<glyph unicode="S" d="M-381 176q-2 10 -2 21q1 30 13 64q16 46 45.5 92t70.5 90t85 81t85 65.5t74 43.5q61 27 122.5 53.5t125.5 52.5q-72 29 -137.5 59.5t-110.5 63.5q-27 20 -53.5 46t-45 55.5t-26.5 62.5q-4 15 -4 30q0 19 6 40q8 27 36.5 62.5t68.5 75.5t86 79t91.5 72.5t84 58t63.5 35.5 q53 23 111.5 40t117.5 21q51 3 99 3q25 0 49 -1q72 -2 139 -39q23 -10 49.5 -46t54 -72.5t54 -63.5t49.5 -23q20 4 9 -13t-33.5 -38.5t-45.5 -40.5l-22 -20q-47 -41 -96.5 -82t-108.5 -68q-23 -4 -42 7.5t-36.5 30t-32 39t-26.5 36.5l-22.5 31.5t-30 35t-42 32t-61.5 22.5 q-55 13 -115 13h-9q-64 -1 -128 -13l2 -2q31 -57 68 -95t81 -66t95 -50.5t111 -46.5q74 -31 149.5 -55.5t151.5 -51.5q72 -25 189.5 -60.5t243.5 -84.5t243.5 -112.5t192.5 -146.5t89 -185q2 -15 2 -31q0 -90 -70 -197q-16 -23 -46.5 -55.5t-69.5 -68.5t-80 -70.5t-75 -63.5 t-57.5 -47.5t-27.5 -22.5q-43 -37 -88 -73.5t-96 -65.5q-118 -68 -270 -77q-37 -2 -76 -2q-114 0 -232 20q-156 28 -303 80.5t-258 111.5q-47 25 -115.5 69t-134 100t-116 122t-62.5 133zM-68 434q35 -53 64 -111.5t76 -105.5q98 -96 223 -172t263 -128t282.5 -79.5 t279.5 -27.5q78 0 153 20t150 35q18 72 35 120q18 51 18 94q0 40 -20 80q-22 42 -84 101q-47 49 -106.5 83t-118.5 65q-63 33 -143 64.5t-163 61t-165 56t-150 49.5q-45 16 -105.5 35.5t-125.5 44.5q-10 -10 -21.5 -19.5t-19.5 -17.5q-10 -8 -18 -16q-47 -41 -96.5 -82 t-108.5 -68l-40 -16t-42 -19q-4 -12 -8 -23.5t-9 -23.5z" />
<glyph unicode="T" horiz-adv-x="1335" d="M-444 1317q-6 6 4 20.5t25.5 29.5t29.5 27.5t18 16.5q18 16 47 43t62 53.5t64.5 47t56.5 24.5q0 2 1 2t1 2q2 -2 4 -2q29 -2 60.5 -22.5t54.5 -30.5q76 -30 158 -54q76 -22 152 -22h13q111 4 220.5 22.5t220.5 45.5q4 4 9 7t9 7q8 6 22.5 17.5t30 20.5t30.5 12t23 -11 q-4 -12 -12 -25q92 23 184.5 46.5t186.5 41.5q37 6 78 12q31 5 62 6q9 0 19 -1q40 -2 76.5 -14.5t63.5 -41.5q0 -4 -4 -12q-33 -61 -95.5 -127.5t-115.5 -138.5q-53 -71 -75 -147q-7 -24 -8 -48q0 -53 34 -108q23 -35 57.5 -63.5t65.5 -59.5q-10 -31 -48 -71t-86.5 -77.5 t-96.5 -69.5t-79 -46q-16 16 -35.5 30.5t-38 28.5t-33 30.5t-20.5 39.5q-8 31 -19 60.5t-11 62.5q2 72 36.5 131t81.5 112.5t96.5 105.5t80.5 107q-33 35 -87 45q-37 6 -78 6q-18 0 -38 -2q-62 -4 -122.5 -17t-103.5 -21q-4 -47 -5 -92.5t-5 -90.5q-5 -101 -5 -201 q-1 -137 9 -272q16 -233 66 -469q-8 -25 -34 -52.5t-57.5 -55t-63 -51t-52.5 -39.5q-4 -2 -19.5 -14.5t-33 -25t-32.5 -19.5t-21 -1q-53 247 -67 491q-7 120 -6 242q0 127 7 256q2 37 5 81t9 88t13.5 85t17.5 72q-86 -23 -169 -42t-169 -32q6 -35 13.5 -72.5t13.5 -70.5 t13 -55.5t15 -28.5h5q20 4 8.5 -13.5t-34 -39t-44.5 -40.5l-23 -20q-47 -41 -96 -82t-108 -67q-6 0 -15 -4q-16 14 -23 33.5t-10.5 41t-4.5 43t-3 39.5q-10 98 -49 185q-23 47 -53.5 83t-67.5 65.5t-78 56t-79 57.5z" />
<glyph unicode="U" horiz-adv-x="1320" d="M-399 -346q8 50 25.5 115t41 134.5t46 130t40 105.5t23.5 60q47 135 89 271t56 278q8 72 8 140v26q-2 80 -6 165q-4 74 -11 156q-2 27 -2 54q0 53 9 102q-10 -2 2 22q2 0 2 2q2 0 2 4q16 25 57.5 66t89.5 83t94 73.5t73 35.5q-12 -37 -16 -80q-2 -27 -2 -55q0 -16 1 -32 q2 -44 7.5 -88t7.5 -83q4 -85 6 -165q0 -13 1 -27q0 -67 -9 -139q-16 -147 -58.5 -285.5t-91.5 -278.5q-12 -35 -24.5 -67.5t-24.5 -67.5q-10 -35 -22.5 -69.5t-24.5 -69.5q-4 -14 -20.5 -61.5t-32 -100.5t-24.5 -101q-4 -21 -4 -35q0 -20 7 -30q8 -12 26.5 -12t39 6 t38 14.5t27.5 12.5q53 23 108.5 39t110.5 32q45 12 89 22.5t89 20.5q110 25 216 31q40 2 80 2q66 0 132 -6q-180 274 -294.5 571t-133.5 633q16 25 57.5 66t89.5 83t94 73.5t73 35.5q10 -186 52 -361t109.5 -340t156.5 -321.5t198 -308.5q59 -84 130 -172t157 -158 q39 -16 74.5 -35.5t60.5 -52.5q2 0 2 -1t2 -1q-2 0 -4 -2q-10 -31 -49 -69.5t-86.5 -77.5t-95.5 -70t-76 -45q-37 18 -71 41t-67 49q-16 6 -30.5 12.5t-28.5 10.5q-131 57 -257 98q-126 42 -253 62q-121 20 -247 19h-12q-132 -1 -276 -28q-90 -18 -178 -43 q-55 -16 -110.5 -32.5t-108.5 -38.5q-10 -4 -31.5 -13.5t-44 -15.5t-43 -5t-28.5 17q-6 11 -6 32q0 16 4 38z" />
<glyph unicode="V" horiz-adv-x="1114" d="M-137 1305q-6 6 4 20t25.5 29.5t30 28t18.5 16.5q53 47 106 90t113 78q6 4 12 5t10 3q4 0 6 1t7 1q37 -45 61.5 -106.5t41.5 -128t29.5 -134t26.5 -125.5q31 -123 63 -246.5t66 -246.5q16 -55 34 -112.5t36 -112.5q8 41 17.5 81.5t21.5 81.5q129 426 393 727t664 488 q20 4 9 -13.5t-33.5 -39t-45.5 -40.5l-23 -20q-43 -37 -88 -72.5t-96 -66.5q-35 -16 -72.5 -31.5t-72.5 -38.5q-66 -80 -120 -165t-97 -181q-33 -72 -57.5 -142.5t-47.5 -146.5q-16 -53 -26.5 -107t-20.5 -108q-8 -49 -17.5 -114.5t-21.5 -133t-30.5 -132t-45.5 -109.5 q-12 -23 -61 -71t-106.5 -97t-110.5 -84q-43 -28 -68 -28q-6 0 -10 1q-16 6 -33.5 34t-33 60.5t-25.5 60.5t-12 32q-16 41 -29.5 78.5t-28.5 78.5q-27 84 -55.5 184.5t-50.5 184.5q-8 35 -22.5 99.5t-33 144.5t-40 167t-44 163.5t-47 136t-47.5 86.5q-4 -2 -10 -3t-12 -5z " />
<glyph unicode="W" d="M-162.5 -138.5q0.5 19.5 12 38t29 36l33.5 33.5q0 4 1 7.5t1 7.5q18 82 30.5 162.5t22.5 162.5q23 166 36 333t30 333q8 82 21.5 165t19.5 165q-14 -6 -12.5 0t10.5 20l4 4v2l2 2q8 8 10 15q20 23 60 60.5t84 76.5t86 68.5t71 33.5q-4 -86 -18.5 -176t-24.5 -178 q-14 -139 -25.5 -277.5t-27.5 -277.5q-4 -41 -8 -95.5t-11.5 -114.5t-18.5 -122.5t-26 -118.5q35 18 73 31.5t77 17.5q69 8 138 9q49 0 97 -5q116 -10 234 -32q-31 178 -49 362q-8 74 -8 174.5t-4.5 203t-17.5 195.5t-48 152q-8 -2 -16.5 -3t-18.5 -3q-6 6 4 20.5t25.5 30 t30 27.5t18.5 16q53 47 106.5 90t112.5 78l37 6q4 2 12 2q35 -61 49.5 -154t18.5 -195.5t4 -204t8 -177.5q18 -186 49 -364t78 -359q98 -29 193.5 -55.5t193.5 -46.5q-29 94 -65.5 185t-76.5 181.5t-79 181.5t-72 183q-47 137 -70.5 280.5t-45.5 286.5q16 25 57 66t89 83 t94 73.5t73 35.5q23 -141 46 -285.5t71 -281.5q47 -135 107.5 -263t111.5 -261q20 -55 46.5 -116.5t45.5 -125.5q18 -62 24 -126q1 -14 1 -29q0 -49 -15 -97q-10 -31 -48 -70.5t-86 -77.5t-96 -70t-79 -46q-42 -7 -93 -7q-21 0 -43 1q-77 4 -163 20q2 -12 8 -22 q-8 -25 -33.5 -52.5t-57.5 -55t-63.5 -51t-52.5 -40.5q-4 -2 -19.5 -14t-32.5 -24.5t-32.5 -19.5t-21.5 -1q-37 98 -68 193.5t-57 193.5q-102 31 -193.5 58.5t-163.5 43.5q-94 23 -191 37q-79 11 -160 11q-18 0 -36 -1h-36.5t-34.5 -2q-25 -23 -50.5 -44t-50.5 -44 q-37 -29 -75.5 -59.5t-85.5 -48.5q-16 20 -15.5 39.5z" />
<glyph unicode="X" d="M33 1264q16 25 57 65.5t89 82.5t94 74t73 36q104 -143 190.5 -307t178.5 -330q12 16 23.5 33.5t23.5 33.5q25 33 68.5 83t85.5 105.5t73 111.5q29 52 29 95v5q16 25 57 65.5t89 82.5t94.5 74t72.5 36v-6q-1 -44 -27 -96q-28 -56 -68 -109t-83 -102.5t-70 -84.5 q-35 -43 -68.5 -98t-60.5 -96q-43 -68 -81.5 -136.5t-75.5 -140.5q96 -162 208.5 -303t266.5 -241q51 -35 88 -54.5t71.5 -32t74.5 -22.5t100 -29q-10 -31 -48 -70.5t-86.5 -77.5t-96.5 -69.5t-79 -46.5q-59 18 -99 28.5t-75 23t-71.5 32t-87.5 53.5q-113 74 -203 170.5 t-168 208.5q-53 -125 -101.5 -248.5t-95.5 -252.5q-43 -53 -95 -99.5t-107 -87.5q-4 -2 -19.5 -14t-33 -24.5t-33 -19.5t-21.5 -1q86 238 182.5 468t212.5 453q-57 98 -111.5 198.5t-107.5 201t-109.5 196t-119.5 183.5z" />
<glyph unicode="Y" horiz-adv-x="1337" d="M-154 759q21 83 66 173q43 86 80 155.5t79 131t94 117t126 114.5q31 27 64.5 52.5t70.5 41.5q23 4 6.5 -18.5t-45.5 -46.5q-4 -6 -6 -10.5t-4 -8.5q-14 -25 -27.5 -50.5t-30.5 -53.5q-27 -47 -59.5 -100.5t-60 -109.5t-43.5 -116q-12 -40 -12 -79q0 -19 3 -38 q10 -84 83 -130t170 -65q76 -14 155 -14q24 0 47 2q105 5 180 23q-20 72 -37.5 141.5t-33.5 141.5q-6 27 -9.5 46t-1.5 35.5t12.5 33t30.5 36.5q35 35 70 66t72 59q29 23 57.5 45.5t61.5 36.5q16 8 30.5 -2t26.5 -27.5t21.5 -36t13.5 -28.5q18 -35 34.5 -74t25.5 -79 q7 -30 7 -61q0 -10 -1 -20q-3 -41 -23 -79q-6 -10 -12.5 -20.5t-12.5 -20.5q20 -68 42 -136.5t44 -134.5q45 -133 96.5 -262t116.5 -252q39 -72 77 -135t63.5 -127.5t36.5 -135.5q6 -33 6 -70q0 -41 -7 -87q-8 -55 -38.5 -106t-72.5 -96.5t-89.5 -86.5t-88.5 -73 q-135 -115 -292.5 -202t-341.5 -103q-23 -2 -46 -2q-62 0 -130 15q-93 21 -182 65t-168 108.5t-134 143.5t-78 169q-11 46 -11 93q0 46 11 94q14 55 45 105t74 97q57 72 132 128.5t159 95.5q14 6 14 0q45 25 87 46t77 38q20 4 9 -13.5t-33.5 -39t-45.5 -40.5l-22 -20 q-43 -35 -87 -71t-95 -66v-6q-8 -35 -8 -70q0 -11 1 -21q3 -47 13 -92q23 -82 68.5 -155.5t108 -134t136.5 -104.5t154 -69q86 -25 149 -31q23 -2 46 -2q38 0 73 6q57 9 117.5 28.5t144.5 44.5q37 89 37 169q0 12 -1 25q-7 90 -43 175t-88 169t-97 176q-78 158 -135.5 325 t-106.5 337q-131 -90 -277 -143q-140 -52 -265 -52h-9q-35 0 -95.5 8.5t-122.5 25.5t-114.5 44t-66.5 66q-23 61 -23 116q0 32 8 63z" />
<glyph unicode="Z" d="M-660 -347.5q-2 13.5 9.5 33t34 45t51.5 54.5q-4 12 -2 22q8 39 31.5 71t56.5 56.5t72.5 44t80.5 37.5q29 23 55.5 40.5t43.5 21.5q70 16 137 36q56 16 113 16q12 0 24 -1q16 -2 31.5 -3t30.5 -1q43 45 82.5 91t78.5 89q111 123 219.5 245t225.5 238q129 127 273.5 240 t301.5 205q-39 -10 -77.5 -22.5t-73.5 -16.5q-76 -8 -135.5 -13t-137.5 -7q-43 -1 -85 -1q-75 0 -147 4q-114 7 -231 19q-27 -29 -62.5 -59.5t-72.5 -58t-71.5 -49t-57.5 -32.5q-33 14 -61.5 37t-56 45.5t-57.5 44t-62 35.5q-57 25 -119 33t-117 39q-2 2 -2 3t-2 3q2 2 2 6 v2q6 20 22.5 40t36 37t39 32.5t33.5 27.5q39 33 81 69t89 56q43 17 107 23q34 3 71 3q34 0 70 -2q76 -5 157 -16.5t155.5 -22.5t138 -22.5t106.5 -15.5q102 -10 202 -15q56 -3 113 -3q45 0 91 2q72 2 130 6t128 12q41 6 85 19.5t89 24.5q45 12 89 16q11 1 22 1q32 0 63 -10 q0 -20 -21.5 -46.5t-50.5 -54.5t-57.5 -50.5t-42.5 -34.5q-76 -61 -158 -109.5t-167 -91.5t-171 -87t-166 -97q-8 -4 -15 -10t-18 -13q-23 -23 -46 -47t-46 -49q-31 -31 -66.5 -71.5t-72.5 -82.5t-73 -83t-64 -72q-92 -102 -186.5 -198.5t-194.5 -188.5q98 -6 163.5 -10.5 t130 -13.5t143.5 -24.5t206 -41.5q10 -2 69.5 -16.5t149.5 -36t201.5 -47t224.5 -50.5q-29 59 -54.5 124t-53.5 138q-14 39 -32 99.5t-39.5 125t-46.5 123t-54 95.5q-6 6 4 20.5t25.5 29.5t29.5 27.5t18 16.5q18 18 48 45t62 53.5t64.5 47t57.5 24.5q29 -35 55.5 -94.5 t48 -126t40 -129t32.5 -99.5q31 -80 66.5 -164.5t80.5 -163.5t102.5 -148.5t131.5 -121.5q14 -10 28 -16q25 0 49.5 1t49.5 1q-4 -14 -23 -39q4 -4 8.5 -5t8.5 -5q-10 -31 -48 -71t-86.5 -77.5t-96.5 -69.5t-79 -46q-23 12 -42 23.5t-40 23.5q-35 -2 -67 -3h-12q-26 0 -54 3 q-197 20 -388 62t-383.5 90.5t-384 94.5t-388.5 70q-59 8 -118.5 14.5t-118.5 10.5q-45 -33 -89.5 -63.5t-91.5 -59.5q-29 -18 -66.5 -39.5t-78.5 -39t-83 -27.5q-26 -6 -50 -5q-15 0 -29 2q-25 6 -27 19.5z" />
<glyph unicode="[" horiz-adv-x="722" d="M-119 -225q4 78 6 125q10 215 35 425t39 423q4 70 4 138t-6 138q-2 35 -13.5 68.5t-4.5 68.5q4 31 35.5 57.5t50.5 45.5q25 23 53.5 50t59 53t63.5 46.5t67 28.5q31 8 58.5 5t55.5 -7t57.5 -5t66.5 11q35 14 71.5 31.5t75.5 21.5q23 4 41.5 -2t40.5 -12h8 q23 16 40.5 23.5t11.5 -11.5q-18 -29 -59.5 -72t-91.5 -86t-99 -77.5t-82 -42.5q-25 -6 -49.5 5t-48.5 13q-23 2 -45.5 -7t-45.5 -20q4 -121 -4 -239.5t-22 -239.5q-18 -190 -36.5 -378.5t-14.5 -381.5q0 -37 1 -86t8 -98t25.5 -93t55.5 -69q20 -14 57 -13t81 10t91 24.5 t89 32t77 31t53 20.5q20 4 9 -13.5t-33.5 -39t-44.5 -41.5l-23 -19q-47 -41 -96 -82t-109 -67q-29 -10 -92 -37t-134 -49.5t-136.5 -33t-97.5 12.5q-49 33 -71 103.5t-27 151.5t-1 159z" />
<glyph unicode="\" horiz-adv-x="960" d="M-115 1192q14 23 54.5 63.5t88.5 81.5t93 74t74 39l4 4v-2q12 -4 24.5 -27.5t16.5 -29.5q-4 -6 -7.5 -13.5t-7.5 -13.5q18 -37 43 -75t49.5 -73.5t47 -65.5t36.5 -50q82 -115 164 -227.5t161 -227t154.5 -231.5t145.5 -240q-8 -25 -33.5 -52.5t-57.5 -55t-63.5 -51 t-52.5 -39.5q-4 -2 -19.5 -14.5t-32.5 -25t-32.5 -19.5t-21.5 -1q-139 246 -300 470t-325 454q-18 27 -51 70.5t-65.5 93t-58.5 98.5t-28 86z" />
<glyph unicode="]" horiz-adv-x="759" d="M-154 -365q-6 6 4.5 20.5t25.5 30t29.5 28t18.5 16.5q18 18 48 44.5t62 53.5t64.5 47.5t57.5 24.5h43.5h66.5t79 1t85 1q-14 47 -29.5 94t-25.5 94q-23 98 -33 193.5t-16.5 190.5t-10.5 190.5t-10 193.5q0 10 -4 31.5t-5 48.5t1 51.5t12 40.5q-29 -6 -58.5 -18.5 t-60.5 -22.5q-37 -12 -75.5 -11t-77.5 1q-29 0 -56.5 -1t-56.5 -7q-4 -2 -7 -2t-7 -2q-10 -6 -19.5 -10.5t-15.5 -5.5t-5 3t11 19q55 66 124 120t136 101q37 25 74 34t75 11t78 1t81 3q51 4 96 26.5t94 26.5q0 -4 -4 -12q-6 -16 -19 -31q-2 -4 -6 -13t-4 -13q0 -10 1 -22.5 t1 -22.5q6 -37 9.5 -66t5.5 -67q6 -119 4 -240t18 -240q10 -55 20.5 -110.5t22.5 -110.5q23 -92 52.5 -180t25.5 -184q0 -10 -13.5 -27.5t-30.5 -36t-34.5 -35t-25.5 -24.5q-37 -37 -77 -72t-83 -64.5t-91.5 -51t-103.5 -27.5q-43 -4 -106.5 -6t-131 -3.5t-128 -1.5h-95.5z M449 -274l4 4z" />
<glyph unicode="^" horiz-adv-x="1005" d="M-53 741q27 53 60.5 102.5t67.5 98.5t65.5 99.5t58.5 103.5q6 10 13 29.5l14 39t12.5 36t7.5 20.5q12 35 29.5 63.5t39.5 55.5l13 12q25 29 53.5 53.5t58.5 50.5q8 8 37 33t60.5 48.5t62.5 38.5t45 7q18 -10 33.5 -30.5t28 -45t22.5 -49t21 -43.5q55 -109 113.5 -207 t137.5 -190q-10 -31 -48 -71t-86 -77.5t-96 -69.5t-79 -46q-68 78 -121 158.5t-100 173.5q-14 27 -26.5 53t-26.5 55q-41 -59 -81 -117.5t-75 -124.5q12 0 -1 -17t-34.5 -38.5t-42.5 -39.5l-20 -17q-47 -41 -96.5 -82t-108.5 -68q-2 0 -3 -1t-5 -1q0 4 -4 4z" />
<glyph unicode="_" d="M-29 -242q23 41 61.5 75t73.5 63q47 41 79 65.5t59 38.5q39 29 39 16q25 8 50 7.5t58 -4t77 -6.5t110 -3q94 4 187 7t185 -1q231 -10 458.5 -36.5t457.5 -55.5q-10 -31 -48 -70.5t-86.5 -77.5t-96.5 -70t-79 -46q-131 16 -264 34.5t-266 33t-266 21.5t-266 5 q-94 -2 -187.5 -6t-187.5 0q-25 2 -36 2h-18.5t-14.5 1t-19 5q-16 6 -31 6q-10 -4 -17.5 -6t-11.5 2z" />
<glyph unicode="`" horiz-adv-x="1028" d="M143 1300q2 2 3 2.5t4 2.5v2q14 23 54 62.5t86 79.5t91 72.5t74 41.5q4 4 8 6q0 -4 2 -4h30.5t30.5 -2q-4 -16 -26 -45q39 -35 104.5 -76t135 -78t131 -67.5t94.5 -45.5q-10 -31 -48 -70.5t-86.5 -77.5t-96.5 -70t-79 -46q-25 12 -68.5 32.5t-96 47.5t-107.5 57.5 t-103.5 61.5t-83 60.5t-44.5 53.5h-9z" />
<glyph unicode="a" horiz-adv-x="1359" d="M-270 999h2q-2 8 8 22.5t24.5 29t27.5 25.5t18 16q18 16 43.5 39.5t54.5 48t59.5 45t55.5 30.5q2 4 4 5.5t6 5.5q4 -4 8 -4q109 -37 206 -69t195 -55q98 -24 202 -36q69 -8 146 -8q38 0 78 2q25 2 53.5 4t57.5 6q35 45 86 85t117 87q18 14 38.5 28.5t43.5 18.5 q-10 -35 -22.5 -63.5t-29.5 -55.5q-4 -16 -4 -24q-7 -45 -7 -91q0 -23 2 -45q5 -68 16 -137q12 -104 41.5 -200.5t58.5 -196.5q4 -12 12 -32.5t14.5 -42t7.5 -42t-7 -35.5q-29 -43 -71 -77.5t-81 -69.5q-33 -27 -66.5 -53.5t-72.5 -44.5q-4 -4 -9.5 -5t-11.5 -6 q-20 14 -32.5 43t-26.5 48q-31 39 -68 79q-6 -6 -21.5 -18t-31.5 -22.5t-30.5 -16.5t-18.5 0v29q-2 4 -10 8q-23 -2 -43.5 -12.5t-39 -23.5t-37 -26.5t-38.5 -23.5q-47 -25 -109 -54q-60 -28 -124 -44q-54 -14 -106 -14h-18q-60 3 -110 42q0 2 -4 6q12 72 60 122t100 98 q49 45 115.5 102t141 109.5t155.5 90.5t161 46q-4 35 -6 70.5t-2 70.5q-1 17 -1 33q0 40 7 76q-23 -14 -42 -24.5t-42 -16.5q-88 -29 -179 -40.5t-183 -11.5q-16 -23 -41 -46t-52.5 -44.5t-53 -41t-42.5 -31.5q-4 -2 -18.5 -13.5t-31.5 -24t-33.5 -20.5t-22.5 -4v2 q-16 25 -25.5 53.5t-28.5 53.5q-25 37 -66.5 74.5t-90.5 74.5t-104.5 72t-108.5 63v2h-2zM479 362q33 -27 71 -36q27 -6 56 -6h22q40 4 82 16t81 29q-35 18 -72 30.5t-78 16.5h-17q-73 0 -143 -31q0 -13 -2 -19z" />
<glyph unicode="b" horiz-adv-x="1169" d="M-63 342q2 8 15 24.5t32 32.5q-8 72 -8 135q0 19 1 37q3 78 18 151t43 146.5t66 159.5q41 86 81 163t89 142v4l2 -2q55 76 127 137.5t172 110.5q4 2 13 2q-4 -16 -5 -32.5t-5 -32.5q-10 -29 -40 -61t-65 -60q-2 -2 -2 -4q-41 -84 -78 -169t-71 -173q-35 -91 -38 -197v-34 q0 -89 13 -181q53 16 105.5 31.5t103.5 40.5q10 18 19.5 34.5t15.5 34.5v2l2 2q18 25 59 66t88 82t92 71.5t72 34.5q61 -131 132 -249.5t155 -237.5q12 -16 32.5 -42t41 -55.5t35 -57t12.5 -48.5h4q-4 -4 -6 -4q-12 -31 -50.5 -70.5t-86.5 -77.5t-95 -69t-76 -43 q-31 14 -60.5 32.5t-60.5 35.5q-97 52 -203 86q-82 26 -166 26q-25 0 -50 -2h-9q18 -39 43 -76.5t35 -74.5q-6 -23 -24.5 -40.5t-34.5 -33.5l-6 -6q-57 -51 -117.5 -104.5t-132.5 -86.5q-20 12 -43 41q-16 -12 -30.5 -22.5t-24.5 -20.5q-4 -2 -19.5 -14t-33 -24.5t-33 -19.5 t-21.5 -1q-15 39 -21 71q-2 12 -2 26q0 22 7 48q10 31 29.5 66t48.5 71q-14 33 -21.5 55.5t-9.5 24.5q-24 53 -42 97q-15 35 -14 78q0 12 1 24zM322 510q10 -35 19 -68.5t19 -64.5q84 61 140 86q41 18 86 36.5t92 26.5q-27 43 -52.5 87t-47.5 92q-33 -27 -65.5 -52.5 t-63.5 -50.5q-29 -25 -61 -49.5t-66 -42.5z" />
<glyph unicode="c" horiz-adv-x="872" d="M12 414q-2 37 0 63.5t7.5 51t13.5 50t20 60.5q18 49 81 117.5t142.5 133t159.5 118t133 71.5q41 16 85 21.5t85 15.5q43 31 72 37l4 4q0 -2 -2 -2h2q0 -10 -6 -22q-13 -57 -13 -112q0 -18 1 -37q6 -73 25.5 -144.5t45 -143t45.5 -145.5q-8 -25 -33.5 -52.5t-57 -55 t-63.5 -51t-52 -40.5q-4 -2 -18.5 -13t-32 -23.5t-34 -20.5t-22.5 -4q-2 4 -3 10t-3 10q-3 5 -19 13q-6 6 9 26q-20 66 -44 131.5t-40.5 131t-19.5 133.5v18q0 58 16 117q-25 -14 -45.5 -21.5t-36.5 -11.5q-18 -4 -37 -6t-35 -6q-12 -41 -15 -84q-2 -26 -2 -49q0 -16 1 -31 q6 -92 37.5 -186.5t89 -159t136.5 -80.5q16 -3 33 -4q66 0 144 51q10 6 22.5 17.5t18.5 0.5q6 -2 -4 -12q-43 -66 -114 -119t-134 -100q-47 -31 -103.5 -67t-115.5 -40h-12q-70 0 -126 42q-60 46 -99.5 115t-62 146.5t-24.5 137.5z" />
<glyph unicode="d" horiz-adv-x="1013" d="M-41 414v15q-1 73 17 139q20 74 42 147q10 29 17.5 58.5t19.5 55.5q16 37 52 75t78 74t86 65.5t77 50.5q10 6 20.5 11t20.5 7q16 -31 20.5 -65.5t20.5 -69.5q16 -33 36.5 -61.5t43.5 -55.5q-16 90 -24 179q-6 61 -6 123q0 29 1 59q1 16 1 34q0 19 -1 37v12q0 30 8 54 q6 20 42 56t82 74t90.5 69.5t62.5 44.5q8 4 15 8t18 8l4 4v-4l4 2q2 0 6 -4q-4 -10 -6 -17.5t-6 -15.5q-4 -67 -6 -135q-1 -22 0 -45q0 -45 2 -90q8 -131 36.5 -259t68.5 -254t88 -249t95 -244q-10 -27 -40.5 -61.5t-71.5 -69.5t-85 -65.5t-79 -51.5q-8 -6 -15.5 -13 t-15.5 -13l-6 12q-29 29 -55.5 59.5t-54.5 59.5q-68 -59 -135.5 -101.5t-127.5 -48.5q-19 -2 -38 -2q-61 0 -121 24q-78 32 -139.5 89t-100.5 133t-41 156zM336 465q29 -41 68.5 -74t84.5 -55q-37 33 -75.5 64.5t-77.5 64.5zM537 111l8 8z" />
<glyph unicode="e" horiz-adv-x="917" d="M-35 297q-4 4 4 17.5t25 29.5q-2 58 -2 114t2 112q4 112 8 227q2 55 2 110q0 41 -1 82q-1 17 -1 34q0 79 12 157q14 23 54.5 63.5t88.5 81.5t93 73t74 38l4 4v-2q6 0 8 -2q4 -12 -1 -29.5t3 -30.5q33 -49 77 -94t91 -86t96 -81t94 -77q25 -18 50.5 -41.5t54 -43 t59.5 -33.5q24 -10 49 -10q7 0 15 1q-10 -31 -46 -68.5t-80 -72.5t-89 -65.5t-74 -49.5q-10 -4 -20.5 -10t-20.5 -12q-2 -2 -4 -2q-8 -4 -21 -13q-2 0 -4 -2h-2q-2 -2 -4 -3t-4 -3q-31 -18 -61.5 -37.5t-63.5 -37.5q-25 -16 -54.5 -34t-62.5 -38q4 -35 9.5 -69t13.5 -66 q8 -35 20.5 -69t31 -59.5t46 -43t68.5 -19.5q23 -4 48 4.5t48 18.5q20 18 46 41.5t50.5 46t44 40t29.5 27.5q37 33 74 64t76 59q8 6 24 16.5t29.5 17.5t21.5 8t2 -7q-4 -8 -20 -24q-8 -10 -16.5 -18.5l-18.5 -18.5q-37 -33 -91 -87.5t-119.5 -116t-137.5 -121.5t-144 -109 q-70 -50 -136 -80q-58 -26 -106 -25h-13q-59 4 -95.5 40t-55.5 86t-27.5 105.5t-12.5 100.5l-6 98zM302 712v-42q0 -42 1 -84q12 6 24.5 11t24.5 11q18 4 8 -14q23 12 45.5 24.5t45.5 24.5q16 8 30.5 15.5t30.5 17.5q-35 20 -65.5 48t-59.5 50q-20 16 -39.5 32.5t-42.5 33.5 q-2 -66 -3 -128zM563 616q2 0 3 1t3 1l-4 -2h-2z" />
<glyph unicode="f" horiz-adv-x="784" d="M-168 1825q16 25 57 65.5t89.5 82.5t94.5 74t72 36q18 -16 20.5 -35.5t12.5 -42.5q16 -29 30.5 -57.5t31.5 -57.5q47 -88 96 -178t103.5 -178t116.5 -170t136 -152q25 -23 55.5 -48t65.5 -44.5t73 -29.5q24 -7 49 -7q14 0 28 2q35 8 64.5 32t59.5 40q20 4 9 -13.5 t-33.5 -39t-44.5 -40.5l-23 -20q-43 -37 -88 -72.5t-96 -66.5q-33 -18 -64.5 -37.5t-66.5 -38.5q-4 -2 -9 -5t-12 -3q-35 4 -70.5 7t-68.5 18q-4 0 -4 2q2 -6 2 -12.5t2 -12.5q67 -14 133 -14q39 0 78 5q105 13 207 48q20 4 9 -13.5t-33.5 -39t-45.5 -40.5l-22 -19 q-47 -41 -96.5 -82t-108.5 -68q-16 -4 -29.5 -9t-27.5 -9q16 -61 36.5 -122t49.5 -118q10 -20 26.5 -50t36.5 -52q4 -8 19 -15q16 10 26 12.5t6 -12.5q-16 -35 -46.5 -61.5t-59.5 -52.5q-10 -8 -31.5 -28t-48.5 -41.5t-54 -42t-52 -32.5q-20 -18 -25 -10h-12 q-23 4 -45.5 32.5t-41 64.5t-30.5 70t-19 46q-37 94 -63.5 192.5t-48.5 198.5q-16 4 -29.5 8t-27.5 9q-12 6 -38 16t-52.5 24.5t-47 32t-22.5 35.5q16 25 59 69t94 87q-10 41 -19 78.5t-20 76.5q-18 68 -37.5 135.5t-41.5 133.5q0 4 -9.5 30.5t-19.5 57t-19.5 57.5t-11.5 31 q-14 39 -39.5 88t-49 100t-38.5 102q-9 32 -9 61q0 17 3 32z" />
<glyph unicode="g" horiz-adv-x="1038" d="M-1452 -1358q10 63 56 131t114 133.5t147.5 126t159.5 113.5t153.5 95t125.5 71q20 4 9 -13.5t-33.5 -39t-45.5 -41.5l-22 -19q-43 -37 -88.5 -72.5t-96.5 -66.5q-33 -16 -64.5 -35.5t-66.5 -38.5q-10 -23 -20.5 -43t-14.5 -45q-3 -20 -3 -40q0 -34 8 -65 q14 -50 40.5 -95.5t63.5 -85t74 -72.5q72 -63 151.5 -116.5t159.5 -102.5q131 -80 258 -129.5t257 -71.5q101 -18 207 -18q30 0 61 2q138 6 294 36q213 45 414 120t399 161q66 29 124 53.5t120 46.5q4 16 6 29.5t0 28.5q-8 66 -32.5 129t-53.5 125q-57 133 -127 261 t-143.5 253t-147 249.5t-141.5 251.5q-16 29 -33.5 64t-36.5 74q-96 -78 -193.5 -132.5t-197.5 -63.5q-16 -1 -33 -1q-84 0 -172 38q-106 46 -219 167q-72 78 -88 170q-7 39 -7 79q0 53 12 106q22 93 71 180t108 157q35 41 73 79t79 75q8 10 17.5 20t5.5 4q-4 -4 -5.5 -6 t-3.5 -6l2 2q6 8 17.5 23.5t22 31t19.5 26.5t11 13q57 63 133 130t154 102q14 6 31.5 2t35 -13.5t31.5 -18.5t21 -15q61 -41 125.5 -91.5t134.5 -89.5q4 8 6 10.5t0 -3.5v-7q60 34 123 34q18 0 36 -3q-4 -16 -26 -45q14 4 8 -12q-4 -6 -6 -11.5t-6 -11.5h6q-4 -4 -12 -8v-2 q-35 -43 -78 -86t-90 -80v-8q6 -86 46 -193.5t87 -210.5q35 27 65.5 45.5t51.5 22.5q-10 -35 -33 -67.5t-53 -63.5q20 -41 38.5 -79t34.5 -66q68 -129 141.5 -254t147.5 -250t143.5 -252t126.5 -260q20 -45 43 -99.5t35 -113.5q9 -43 9 -86q0 -15 -1 -29q-4 -57 -36 -108 q-41 -66 -110 -120.5t-128 -101.5q-12 -10 -24.5 -18t-26.5 -16q-8 -16 -15.5 -22.5t-9.5 3.5v2q-119 -74 -249 -122t-261 -103q-172 -74 -347 -139.5t-354 -109.5t-363 -60q-74 -7 -148 -7q-113 0 -228 15q-92 12 -199.5 56t-212 104.5t-199.5 128t-163 129.5 q-37 33 -74.5 73.5t-65.5 87.5t-42 99q-8 30 -8 61q0 22 4 45zM-1083 -991q8 6 14 10q-4 -2 -7 -4t-7 -6zM181 512v-6q0 -69 24 -135q20 -59 73.5 -116.5t121 -104t139.5 -75t131 -30.5q18 0 37.5 2t40.5 6q-47 102 -87 210t-49 198q-1 10 -1 21q0 42 13 83q17 51 27 103 q2 4 3 10t5 10q-41 23 -78.5 51.5t-75.5 58t-76 56.5t-81 45q-49 -51 -86 -114.5t-58.5 -132t-22.5 -140.5z" />
<glyph unicode="h" horiz-adv-x="1095" d="M35 496q-6 6 4 20t24 29q8 115 25 229q20 141 39.5 248.5t56.5 198t100.5 171.5t172.5 167q18 16 41.5 35.5t49 37t52 29.5t53.5 12q-14 -41 -54 -74.5t-77 -62.5q-4 -10 -8 -18.5t-8 -18.5q-23 -55 -36 -114.5t-28 -118.5q-27 -125 -42 -249t-25 -251q92 20 182 45 t176 61q20 31 54 65t87 79q12 10 43 36.5t67 53.5t71 43t57 8q6 -29 -18.5 -52.5t-40.5 -41.5q-12 -14 -24.5 -26.5l-24.5 -24.5q0 -23 2 -45.5t6 -44.5q16 -98 36.5 -189.5t24.5 -189.5q2 -44 2 -86q1 -145 -21 -259q-28 -148 -98.5 -263t-184.5 -208.5t-275 -185.5 q-16 -8 -22.5 -7t9.5 22q41 49 90.5 94t102.5 84q47 92 64.5 195.5t21.5 203.5q2 39 2 77q0 164 -35 318q-17 78 -27 132q-9 46 -8 84v14q-152 -100 -327 -168v-29q1 -35 -3 -95q-2 -26 -2 -53q0 -35 2 -69q4 -62 18.5 -115t49.5 -71l25 6q20 4 9 -13.5t-33.5 -39 t-44.5 -41.5l-23 -19q-47 -41 -96.5 -82t-108.5 -67q-8 -2 -16.5 -6.5t-18.5 -4.5q-23 2 -36 29t-21.5 68t-12.5 89t-4 93t1 81t1 52q0 29 1 59.5t3 59.5q0 18 1 36.5t3 37.5h-26z" />
<glyph unicode="i" horiz-adv-x="626" d="M-166 1456q4 2 8 6q18 27 59.5 68t88.5 81t92 70.5t70 34.5q10 -10 21.5 -17.5t21.5 -17.5q-8 -23 -25 -43q43 -86 110.5 -163.5t153.5 -114.5q23 -10 44.5 -13.5t43.5 -9.5q-8 -25 -35.5 -56.5t-64.5 -63t-79 -62.5t-77 -53q8 -16 15 -25q23 -20 55 -29q34 -10 68 -13 q26 -2 51 -2h17q34 1 63 1q23 0 41 -2t40 -8q23 16 45.5 28.5t43.5 16.5q-10 -29 -43 -70t-77 -85t-92.5 -82.5t-84.5 -61.5q29 -88 56.5 -178t61 -172t76.5 -151.5t98 -118.5q18 -16 42 -20.5t46 -14.5l68 43q10 6 22.5 17t18.5 1q6 -2 -4 -12q-43 -66 -113.5 -119 t-134.5 -100q-4 -4 -28.5 -19.5t-52 -34t-51.5 -32t-26 -13.5q-59 14 -100 49t-71.5 81.5t-54 98.5t-46.5 103q-35 80 -62.5 162l-55 164t-59.5 161.5t-73 155.5q-18 23 -31 51q12 16 38 44t57.5 58t67.5 60.5t69 52.5q-90 31 -150.5 88.5t-119.5 139.5q-8 10 -20.5 27.5 t-23 37t-15.5 39t1 35.5q-2 0 -4 2z" />
<glyph unicode="j" horiz-adv-x="968" d="M-410 -938q16 86 68.5 169t125.5 160t159 148.5t172 134t162.5 114.5t132.5 93q14 10 33.5 24.5t35.5 20.5q14 6 15.5 2t-8 -15t-23.5 -27.5t-31 -30.5q-35 -33 -71.5 -64t-75.5 -61q-66 -47 -135.5 -90t-122.5 -103q-92 -98 -116 -190q-12 -45 -12 -87q0 -45 13 -86 q25 -81 89.5 -152t148 -127t177 -97t179.5 -66t183 -41t197 -22q59 -4 119 -4q39 0 79 2q98 4 186 22q37 8 78 32t81.5 51.5t80.5 53t73 35.5l4 2q31 27 35 23q45 27 91 49.5t93 44.5q10 26 10 50.5t-10 49.5q-20 48 -53 86q-35 43 -93 91.5t-125 97.5t-136.5 96t-128.5 88 q-166 119 -320.5 261.5t-288 306t-238 345t-167.5 377.5q-6 -4 -13 -9t-16 -11q-23 -20 -46 -38.5t-46 -39.5q-29 -23 -47 -38t-49 -36q-47 -35 -52 -26.5t33 49.5q4 4 7.5 8t7.5 8q41 39 86 82t94 78l4 4q20 16 41 34.5t43 35.5q29 29 64.5 60.5t70.5 59t67 47t52 23.5l4 4 v-2q51 -168 133 -325.5t186.5 -303t226.5 -276.5t255 -244q59 -49 108.5 -88t108.5 -82q63 -43 141 -92t154 -103t139.5 -116.5t97.5 -134.5q17 -34 17 -70q0 -40 -21 -81q-39 -80 -113.5 -157t-164.5 -141.5t-158 -105.5q2 -31 -18.5 -54.5t-55 -44t-78.5 -39t-87 -36.5 q-51 -39 -102.5 -70t-107 -55.5t-117 -43t-134.5 -32.5q-96 -18 -193 -22q-49 -2 -98 -2t-98 2q-98 4 -193.5 20t-191.5 43q-86 25 -169 57.5t-159 79.5q-63 41 -113.5 95.5t-105.5 105.5q-47 45 -60 118q-6 36 -6 72q0 34 6 66zM82 1454q14 25 56 67t90 83t94.5 73.5 t72.5 36.5q9 -2 13 -16q-4 -8 -7.5 -15.5t-9.5 -15.5q2 -43 22.5 -87t50.5 -84t64.5 -71.5t65.5 -48.5q-10 -31 -48 -70.5t-86 -77.5t-96.5 -70t-78.5 -46q-37 18 -77 58t-72 88.5t-48 100.5q-10 32 -10 61q0 17 4 34zM92 745q-4 -4 4 3.5t19 15.5h-4zM174 774q4 4 6 5t4 3 l21.5 21.5t21.5 25.5q-4 -4 -8 -4q-20 -23 -30.5 -35t-14.5 -16zM352 956l6 7q0 -1 -6 -7zM358 963q2 0 2 2q0 -2 -2 -2z" />
<glyph unicode="k" horiz-adv-x="1026" d="M47 57q12 84 27 166q8 53 16 99.5t16.5 90.5t17.5 90t21 99q10 53 29 152.5t43.5 207t57 206t73.5 147.5q39 47 85 86t93 76q10 8 40 32.5t66 49t68.5 41t47.5 10.5q-2 -4 -2.5 -6t-2.5 -7q-2 -2 -6 -10q-31 -41 -67.5 -74.5t-75.5 -64.5v-4q-23 -61 -36 -129t-30 -133 q-31 -141 -60.5 -281.5t-55.5 -282.5q29 29 65.5 60t71.5 53q-17 41 -21 84q-2 18 -1 35q0 23 3 43q16 25 57.5 65.5t89.5 82.5t94 74t73 36q-3 -18 -3 -39q0 -26 5 -58q8 -54 32 -100q25 -46 65 -74q30 -21 67 -21q13 0 28 3q23 4 4.5 -19.5t-51.5 -53t-63.5 -56 t-32.5 -28.5q-39 -33 -70.5 -57.5t-62.5 -47.5q39 -47 75.5 -99t72.5 -102.5t68 -96.5t60 -83q-10 -31 -48 -70.5t-86 -77.5t-96 -70t-79 -46q-37 45 -79 106.5t-87 126t-92 126t-94 108.5q-13 -68 -19 -136q-2 -19 -2 -38q0 -49 13 -98q-8 -25 -34 -52.5t-57.5 -55.5 t-63.5 -51.5t-52 -39.5q-4 -2 -19.5 -14.5t-33 -24.5t-33 -19.5t-21.5 -1.5q-13 51 -13 103q0 31 5 63zM959 796.5q-3 -1.5 6.5 5.5t24 19.5t21.5 18.5t1 2t-39 -29l16 8q-27 -23 -30 -24.5z" />
<glyph unicode="l" horiz-adv-x="425" d="M-258 -117q45 80 95 159t96.5 159t85 162.5t63.5 173.5q29 102 44 210.5t30.5 217t39 214t72.5 201.5q35 51 85 93.5t98 80.5q2 0 24.5 18.5t47 37t43 27t12.5 -10.5q-37 -74 -58.5 -173t-40 -211t-37 -227.5t-47.5 -219.5q-25 -88 -61.5 -169t-80.5 -159t-92 -153.5 t-93 -153.5q45 30 95 54q37 18 75 17q14 0 28 -2q53 -6 89 -41.5t61.5 -82t47 -97.5t44.5 -88q-8 -25 -33.5 -52.5t-57.5 -55t-63.5 -51t-52.5 -40.5q-4 -2 -19.5 -14t-33 -24.5t-32.5 -19.5t-21 -1q-18 31 -35 71t-35.5 81t-43 74.5t-58.5 52.5q-39 23 -64 25q-5 0 -11 1 q-22 0 -54 -8q-10 -2 -21.5 -7t-22.5 -11q-2 0 -5 -2t-7 -5q10 6 15.5 10.5t11.5 8.5q-29 -18 -66 -44t-53 -32q-2 2 -2 3t-2 3zM-164 -68l2 2z" />
<glyph unicode="m" d="M-209 410q-4 6 1 14t12.5 17.5t15.5 15.5t8 8q55 55 114.5 104t123.5 95l8 8q41 49 84 103t59 118v8l16 12q23 29 63 68t83 75t83 62.5t64 30.5l4 4q0 -2 -2 -2h2q0 -119 25 -232.5t49 -232.5q0 -8 4 -20q25 59 52.5 116.5t56.5 114.5v25q14 10 28.5 21t30.5 22 q29 31 65 62.5t71.5 59t66.5 47t51 23.5q4 -137 18.5 -271t41.5 -268q16 29 30.5 56.5t30.5 56.5q39 68 88 117q-23 -6 -38 -10t-15 -2t20.5 14t69.5 37l61 55l111 92q92 72 136 90q19 8 34 9q20 1 30 -13q20 -24 24.5 -81.5t19.5 -137.5q8 -41 17 -90t19.5 -100.5 t20.5 -100.5t20 -90q53 -231 121 -454.5t181 -434.5q-8 -25 -34 -52.5t-57.5 -55t-63.5 -51t-52 -39.5q-4 -2 -19.5 -14.5t-33 -24.5t-33 -19.5t-21.5 -1.5q-88 164 -146.5 334t-105.5 350q-37 145 -67.5 292t-59.5 294q-6 31 -10 62.5t-10 64.5q-16 -37 -28.5 -74 t-22.5 -75q-17 -61 -17 -128v-7q0 -62 8 -126q8 -66 21.5 -132t26.5 -128q4 -23 11 -50t12 -57t4 -57.5t-13 -50.5q-57 -72 -138 -142.5t-167 -109.5q-14 8 -36 48t-42.5 84.5t-36.5 81t-18 40.5q-84 193 -131 402q-4 -74 -4.5 -147.5t-2.5 -145.5q0 -4 2 -6q-2 -2 -3 -2 t-3 -2q-10 -25 -35.5 -51.5t-56.5 -53t-60.5 -49t-49.5 -37.5q-6 -4 -34 -25.5t-50 -31.5q-6 -4 -11.5 -10.5t-11.5 -10.5v19q-61 170 -102 343t-78 349q-16 82 -35 159.5t-29 155.5q-61 -59 -123.5 -111t-119.5 -93q-41 -35 -84 -69t-95 -56q-2 0 -14 -4z" />
<glyph unicode="n" horiz-adv-x="1134" d="M-213 467q6 23 32.5 51.5t58.5 57t63.5 53t48.5 39.5q8 8 13 15t9 15q0 25 2 49.5t9 49.5v2l2 2q16 25 56 64.5t86 79.5t90 71t73 39l6 6q0 -2 -2 -4h2q12 -25 8 -50.5t-18 -54.5q2 -78 16 -155.5t18 -153.5q2 -29 2 -54.5t3 -53.5q78 78 162.5 149.5t170.5 134.5 q-25 -4 -13.5 11.5t46.5 39.5q33 39 77 72t77 59q29 23 59.5 48.5t65.5 35.5q4 2 12 2q4 -18 -3 -36.5t-20 -34.5q0 -4 -1 -10.5t-1 -14.5q-3 -31 -3 -63q0 -16 1 -31q2 -47 6 -94q6 -66 15.5 -137.5t28 -142t48 -135t74.5 -118.5q90 -102 193.5 -169.5t215.5 -107.5 t231.5 -58.5t243.5 -21.5q46 -1 93 -1q78 0 157 3q126 5 251 11q-10 -31 -48 -70.5t-86 -77.5t-96.5 -70t-78.5 -46q-154 -8 -321 -14q-48 -2 -95 -2q-119 0 -237 11q-165 15 -319.5 63.5t-283.5 152.5q-84 70 -140 154t-90 178t-50.5 196.5t-22.5 206.5q-2 35 -3 73v15 q0 30 3 60q-35 -27 -66.5 -52.5t-54.5 -52.5q-39 -43 -72.5 -95t-56.5 -110q-24 -58 -34 -118q-5 -31 -6 -61q0 -29 5 -58q6 -41 16.5 -79t12.5 -81q-8 -25 -33.5 -52.5t-58.5 -55t-64.5 -51t-52.5 -40.5q-4 -2 -17.5 -13t-29.5 -23.5t-32.5 -20.5t-22.5 -4q-2 0 -2 -2v4 q-33 63 -45.5 139t-16.5 154q-3 62 -3 124v30.5v30.5q0 60 -3 116q-4 55 -13 113.5t-16 117.5q-27 -25 -57.5 -49t-60 -44.5t-57 -37t-46.5 -24.5q-2 2 -6 2q0 4 -4 4z" />
<glyph unicode="o" horiz-adv-x="901" d="M4 139q2 45 6 80q6 53 22.5 136t39 168t51 160t61.5 114q6 8 12.5 15t12.5 13q-6 10 -13.5 21.5t-13.5 21.5q16 25 57.5 66t89.5 83t94 73.5t73 35.5q92 -141 179 -282.5t167 -288.5q6 -12 24.5 -41t37 -62.5t32.5 -65.5t14 -50h2l-2 -2q0 -8 -2 -10q-59 -72 -139 -142.5 t-166 -109.5q-41 12 -67 18q-6 1 -13 1q-24 0 -59 -17q-6 -4 -13.5 -7.5t-13.5 -7.5q-4 -4 -8 -6q-8 -4 -10 -6t-4 -2l-2 -2q-10 -6 -18.5 -12t-18.5 -11q-31 -18 -69 -40.5t-78 -41t-82 -25.5q-15 -3 -31 -3q-26 0 -50 8q-43 14 -65.5 50t-30.5 81q-6 36 -6 72v18zM318 348 q4 -60 26.5 -104.5t71.5 -61.5q26 -9 51 -9q15 -1 30 3q40 8 81 29q-55 104 -112.5 203.5t-119.5 199.5q-14 -64 -24 -132q-6 -46 -6 -88q1 -21 2 -40z" />
<glyph unicode="p" horiz-adv-x="1112" d="M-30 118q24 183 71 355v2q0 2 4 14l2 3q8 29 15.5 50t13.5 40.5t13 40t17 49.5q12 33 31 63.5t23 65.5h-4q-6 6 4 20.5t25.5 29.5t29.5 27.5t18 16.5q18 18 48 45t62 53.5t64.5 47t57.5 24.5h8q-4 -41 -23.5 -76t-33.5 -71q-16 -47 -27.5 -82t-28.5 -84q-2 -2 -2 -7 q0 1 4 3q20 2 5 -21q18 -8 40.5 -6t45 10t46 20.5t44.5 26.5q6 23 12 45.5t18 42.5v2h2q2 4 9 11q53 66 122.5 125t141.5 100q10 6 20.5 11t20.5 7q51 -66 95 -171t68 -222q22 -112 22 -218v-9q-1 -111 -36 -185q-23 -45 -68.5 -86t-84.5 -75q-29 -25 -63 -55.5t-70.5 -58.5 t-75.5 -49.5t-78 -27.5q-76 -12 -150 -12q-80 0 -157 14q18 -96 52 -188t76 -181.5t87 -177.5t88 -176q29 -61 44 -94t25.5 -60.5t22.5 -62.5t35 -98q-8 -25 -33.5 -52.5t-57.5 -55t-63.5 -51t-52.5 -40.5q-4 -2 -19.5 -14t-33 -24.5t-32.5 -19.5t-21 -1q-23 63 -35.5 98 t-22.5 62.5t-25.5 60.5t-43.5 94q-45 92 -93.5 185.5t-91.5 188.5t-76.5 192.5t-48.5 201.5q-13 92 -13 185q0 89 12 179zM272 254q27 20 51.5 33.5t45.5 17.5q92 -43 193 -69q89 -24 179 -24q13 0 27 1v25q0 55 -10 124.5t-28.5 143.5t-45.5 146.5t-57 131.5 q-76 -61 -154 -119.5t-162 -109.5q-16 -74 -25.5 -148.5t-13.5 -152.5z" />
<glyph unicode="q" horiz-adv-x="901" d="M-103 166v17q0 47 5 91q14 111 53 212.5t90 197.5q12 20 27.5 37.5t29 35t24.5 36t13 41.5q-4 6 0 14v2l2 2q16 25 57.5 65.5t89.5 81.5t93 73t72 36v-12q2 -12 14 -22.5t26.5 -20t30 -17.5t25.5 -16q33 -29 69.5 -65.5t77.5 -65.5q51 53 111.5 97t116.5 83 q18 14 38.5 28.5t43.5 18.5q-12 -37 -41 -69.5t-64 -63.5q-10 -23 -18.5 -47.5t-16.5 -48.5q-31 -106 -49 -218t-29 -223q-7 -98 -7 -197q0 -62 3 -123q7 -161 26 -321.5t45 -320.5t48 -318q-8 -25 -33.5 -52t-57.5 -55t-63.5 -51.5t-52.5 -39.5q-4 -2 -19 -14.5 t-32.5 -24.5t-33 -19.5t-21.5 -1.5q-35 254 -75 510t-44 512q-51 -37 -110.5 -69.5t-118.5 -46.5q-34 -9 -66 -9q-26 0 -51 5q-57 12 -105 63q-41 47 -66.5 86t-41.5 98q-14 53 -15 109zM212 528q-5 -39 -5 -76q0 -69 18 -135q23 -80 75 -146t136 -89q8 -2 16.5 -4t18.5 -2 q2 86 10 170t25 170q12 61 25.5 122.5t33.5 120.5q-55 -41 -112 -65q-53 16 -101.5 59t-89.5 82q-35 -98 -50 -207z" />
<glyph unicode="r" horiz-adv-x="946" d="M-147 653q41 59 100 112.5t123 96.5q6 8 13 15.5t17 17.5q57 57 120 108.5t128 94.5q10 6 20.5 11t20.5 7q8 -23 6 -57.5t-7 -73.5t-11 -75t-6 -62q10 6 17 12t16 10q51 66 99 134.5t97 136.5q20 23 59.5 60.5t83.5 76.5t87 68.5t71 33.5q4 0 4 -4q-17 -68 -31 -138 q-11 -54 -11 -109q0 -15 1 -31q2 -31 10.5 -82t28 -99.5t51.5 -80.5q26 -26 65 -26q7 0 15 1q-10 -31 -48 -71t-86 -77.5t-96 -69.5t-79 -46q-8 -1 -15 -1q-39 0 -67 28q-33 32 -53.5 81.5t-28.5 101.5t-10 83q-2 18 -2 34t2 31q-41 -49 -86 -94t-92 -86q6 -104 22.5 -205.5 t38.5 -202.5q2 -10 8.5 -40.5t15.5 -67.5t21.5 -71t26.5 -52q27 12 20 -6q-2 -2 -2 -3t-2 -3h2q-2 0 -2 -2q-4 -8 -4 -11q-59 -72 -139 -142.5t-166 -108.5q-18 6 -34.5 40.5t-28 76.5t-19.5 81t-10 51q-29 131 -47 263q-17 120 -17 240v26q0 41 9.5 96t13.5 104 q-55 -47 -113.5 -89t-113.5 -56l-4 4q0 4 -2 6z" />
<glyph unicode="s" horiz-adv-x="1196" d="M-24 793q8 53 35.5 95t70.5 80t100 83q56 45 114 84q52 35 117 35q8 0 17 -1q49 -4 88 -27.5t73 -58t62.5 -73.5t57.5 -72q16 -20 39.5 -45t52.5 -35q35 29 71.5 53.5t77.5 34.5q20 4 9 -13.5t-33.5 -39t-45.5 -40.5l-22 -19q-39 -35 -79 -69t-87 -63q-39 -35 -87 -70.5 t-91 -41.5h-8q57 -20 133 -22q54 -2 110 -2h45h22q67 0 131 -5q75 -6 133 -33q56 -28 88 -88q26 -50 27 -133q0 -16 -1 -33q-4 -41 -13 -82.5t-32 -76.5q-27 -41 -52.5 -82t-58.5 -76q-43 -47 -111.5 -110.5t-148.5 -119t-162 -93.5q-77 -36 -142 -35h-7q-96 4 -190.5 57 t-160.5 135q-68 81 -92 181q-9 36 -8 72q0 63 27 124q31 45 73 82t85 72q-39 12 -69 32.5t-50 55.5q-39 68 -64.5 123t-39.5 131q-7 46 -7 83q0 25 3 46zM330 305v-10q0 -55 22 -109q24 -58 62.5 -108.5t88.5 -93.5t103 -74q39 -23 83 -31t89 -14q16 -2 33.5 4t34.5 10 q10 35 22.5 67.5t14.5 67.5q1 19 1 36q0 64 -18 108q-22 56 -63 86t-97 42q-54 13 -118 16q-38 2 -78 2q-26 0 -52 -1q-22 -1 -44 -1q-43 0 -84 3zM371 705q18 -27 39.5 -50.5t50.5 -40.5q-23 16 -45 40t-45 51z" />
<glyph unicode="t" horiz-adv-x="937" d="M-717 -625q29 55 84 99.5t103 83.5q29 23 60.5 49t66.5 47q80 84 156.5 170t150.5 176q106 129 172.5 251t109.5 257q-47 -5 -92 -5q-53 0 -102 7q-6 6 4 20.5t25.5 29.5t30 27.5t18.5 16.5q14 12 34.5 31.5t45 41t49 41t49.5 34.5q8 43 15 89t16 93q6 37 13 79t12 85 t6 85v9q0 37 -7 72q-16 -10 -27.5 -14.5t-7.5 5.5q2 6 8.5 13.5t13.5 15.5t12 13.5t7 7.5q8 8 15.5 15t15.5 13q23 20 56.5 54t71.5 67t76 58.5t68 31.5q12 -39 14 -84v-17q0 -37 -6 -74q-6 -46 -14 -91t-14 -84q-16 -106 -36.5 -211.5t-51.5 -210.5q100 8 204.5 30.5 t207 50.5t203 57.5t194.5 52.5q20 4 9 -13.5t-33.5 -39t-44.5 -40.5l-23 -20q-47 -41 -96.5 -82t-108.5 -68q-141 -35 -293 -81t-307 -78q-35 -74 -80 -142q-57 -86 -127 -167.5t-139 -159.5q-70 -78 -139.5 -155t-145.5 -153l-76 -75q32 3 69 3q38 0 80 -3 q86 -6 169.5 -17.5t159 -24t122.5 -18.5q248 -29 491.5 -51t489.5 -51q-29 47 -60.5 94t-70.5 90q0 2 -2 4q14 25 55 66t88.5 82t93.5 72.5t72 37.5q2 0 2 1t2 1q8 -14 19.5 -13t26.5 -5q-2 -4 -5.5 -10t-7.5 -13q45 -57 82 -119.5t75 -124t80 -120.5t95 -111 q-10 -31 -48 -70.5t-86 -77.5t-96.5 -70t-78.5 -46q-18 14 -33 33q-18 -14 -41 -25q-2 -2 -4 -3t-4 -5q-2 2 -4 2q-104 35 -221 43t-226 21q-248 29 -495.5 52t-497.5 52q-111 12 -219.5 27.5t-218.5 25.5q-35 4 -69 4h-22q-44 -2 -92 -6q-23 -14 -45 -25.5t-47 -21.5 q0 2 -4 6z" />
<glyph unicode="u" horiz-adv-x="1169" d="M-104 -25q0 25 12 53.5t29.5 57.5t36 54.5t28.5 41.5q35 57 95.5 137t117.5 168q57 87 96 177q34 78 34 145q0 10 -1 20q-33 -25 -59.5 -40t-22.5 -1q2 6 8 13.5t13.5 15.5t12.5 13.5t7 7.5h2q4 6 17 18q-2 0 0 2v-2l12 12q-2 -2 -3 -2t-3 -2q4 4 9 10.5t9 10.5l2 2 l30.5 30.5t33.5 30.5q23 20 49 47t56 51.5t60.5 45t61.5 28.5q4 0 6 1t6 1q8 -26 8 -56q0 -24 -6 -52q-12 -60 -42.5 -124.5t-71.5 -131t-84 -128t-82 -113.5t-62 -89q-10 -14 -26.5 -37.5t-34 -51.5t-29.5 -55.5t-12 -50.5q2 0 4 1.5t4 1.5q145 29 281 43q106 11 214 11 q31 0 62 -1q-7 52 -7 109v14q1 64 9 137q14 119 42 197.5t74 139t111.5 112t157.5 114.5q10 6 22.5 17.5t18.5 0.5q6 -2 -4 -12q-10 -16 -21.5 -29.5t-23.5 -27.5q-4 -10 -9 -17.5t-7 -13.5q-16 -47 -28.5 -110.5t-18.5 -112.5q-8 -79 -8 -147v-6q0 -64 8 -128 q10 -66 31.5 -132t56.5 -136q-8 -25 -34 -52.5t-57.5 -55t-63.5 -51t-52 -40.5q-4 -2 -19.5 -14t-33 -24.5t-33 -19.5t-21.5 -1q-4 4 -5 8t-5 8q-14 -10 -26.5 -16t-22.5 -10q-159 29 -319 39q-51 3 -104 3q-109 0 -222 -14q-66 -6 -130.5 -22t-129.5 -27q0 2 -4 6z" />
<glyph unicode="v" horiz-adv-x="1050" d="M-162 897q2 8 22.5 28.5t52.5 50.5t62.5 58.5t57 51t35.5 28.5q18 14 34.5 27.5t33 20.5t30.5 3t31 -24q25 -33 40 -54.5t28.5 -42t27.5 -46t37 -66.5q61 -113 119.5 -224.5t117.5 -224.5q76 133 194 240.5t263 224.5q25 18 45.5 33.5t44.5 32.5q33 20 37 19t-8.5 -16.5 t-35 -39t-46 -46t-42 -38.5t-20.5 -19q-121 -98 -172 -239t-59 -293q-4 -41 -8 -85q-1 -13 -1 -25q0 -31 7 -60q4 -12 15.5 -23.5t15.5 -25.5q-2 -2 -2 -6q0 -2 2 -2h-2q-14 -31 -53.5 -70t-85.5 -76t-93 -67.5t-76 -42.5q-8 -2 -25.5 18.5t-39 53t-44 71.5t-42 73 t-32.5 57.5t-15 27.5q-86 160 -168 324.5t-180 318.5q-12 23 -26.5 41t-31.5 39q-4 6 -8 13t-12 9q-27 -16 -25 -8z" />
<glyph unicode="w" horiz-adv-x="1249" d="M-106 -92q-4 10 5 26.5t25 36.5q0 4 1 7.5t1 7.5q20 98 37 196q23 119 38 238t26 239q2 14 9 31t3 31q16 25 57 65.5t89 82.5t94.5 74t72.5 36q4 -14 -3 -29.5t-9 -31.5q-10 -121 -25.5 -239t-38.5 -239q-14 -94 -36 -192q41 31 81.5 55.5t81.5 44.5q-10 70 -12 138v28 q0 55 6 111q0 4 2 24.5t6.5 46t9.5 50t13 36.5q20 35 58 74t82 75t89 65.5t82 47.5q4 2 13 3q4 -4 6 -9q-10 -25 -29 -47q-4 -29 -9 -54.5t-9 -53.5q-4 -40 -4 -85v-30q2 -62 6 -117q6 -61 18 -122.5t29 -120.5q49 -10 98 -25q-4 39 -6 74q-4 67 -4 120q0 47 3 83 q7 78 41 134t98.5 107t168.5 125q10 6 20.5 11t20.5 7l12 -6q-4 -14 -15 -30.5t-28 -32.5q-2 -12 -4 -25.5t-2 -25.5q0 -35 -1 -56.5t-1 -42t1 -45t3 -63.5q4 -66 14.5 -163t30 -198.5t50 -190.5t79.5 -136q14 -14 34 -19.5t36 -15.5q-10 -31 -48 -71t-86 -78t-96.5 -69.5 t-78.5 -45.5q-16 10 -34.5 17t-35.5 17q-18 10 -35.5 37t-32 62t-26.5 76t-21 79q-25 -16 -46 -28.5t-38 -20.5q-10 8 -19 14.5t-19 14.5q-35 -35 -75 -63.5t-65 -49.5q-4 -2 -19.5 -14t-32.5 -24.5t-32.5 -19.5t-21.5 -1q-27 80 -52.5 158.5t-48.5 160.5q-35 6 -67 7h-24 q-39 0 -71 -4q-42 -6 -87 -23q-47 -55 -107.5 -103.5t-120.5 -89.5q-4 -2 -14 -10t-22.5 -14t-22.5 -8t-16 8z" />
<glyph unicode="x" horiz-adv-x="1052" d="M4 893q53 78 137 144.5t164 111.5h8l4 4v-4q25 -4 57 -45t61.5 -90t50 -92t24.5 -50q25 -47 49.5 -90t46.5 -84q18 59 29.5 115t15.5 107q16 25 57.5 65.5t89.5 82.5t94 74t73 36q-4 -86 -29 -174.5t-60.5 -174.5t-76.5 -168.5t-78 -158.5l-2 -2q51 -86 107.5 -167 t122 -158t144 -150.5t177.5 -145.5q-10 -31 -48 -70.5t-86.5 -77.5t-96.5 -70t-78 -46q-154 113 -261.5 229.5t-195.5 245.5q-49 -78 -104.5 -148.5t-120.5 -136.5q-35 -33 -72 -64.5t-76 -59.5q-18 -14 -37.5 -28.5t-36 -24t-25.5 -12.5t-7 5q2 6 8 13.5t13 15.5t12 13t8 7 q78 74 131 170.5t100 188.5q25 47 53.5 99t57.5 112q-51 86 -102.5 179t-108.5 195q-27 47 -54.5 96.5t-56.5 96.5q-4 4 -5 9t-5 9q-29 -14 -35 -6q-8 16 -24.5 35.5t-12.5 38.5z" />
<glyph unicode="y" horiz-adv-x="1056" d="M-277.5 -689q-1.5 32 6 60.5t20.5 58t32 68.5q14 33 52 76t90 90t113.5 94t120 87t110.5 71t87 45q53 23 109.5 34t109.5 28q20 4 9 -13.5t-33.5 -39t-44.5 -40.5l-23 -20q-47 -41 -96 -82t-109 -68q-53 -14 -105 -26.5t-105 -32.5h-3q-23 -47 -25 -101q-1 -9 -1 -17 q0 -46 12 -91q20 -74 61.5 -131t93.5 -103t113.5 -85t120.5 -76q82 -49 158 -81t152 -43q37 -5 74 -5q41 0 82 6q79 12 169 51q57 27 113.5 49.5t113.5 44.5q2 4 2.5 8.5t2.5 8.5q8 32 8 64q0 18 -3 36q-7 49 -25.5 96t-46.5 91.5t-54 82.5q-41 57 -88 111.5t-95.5 107 t-95.5 105.5t-88 113q-25 35 -51.5 88t-54.5 119q-14 -8 -25.5 -14.5t-21.5 -10.5q-195 -2 -382.5 -22.5t-375.5 -67.5q-16 -8 -34.5 -16.5t-39.5 -8.5q-4 6 0 13.5t8 11.5q53 72 119 159t125 180t106.5 187t63.5 180q-8 4 -14.5 8.5t-14.5 8.5q-6 6 4.5 20.5t25.5 29.5 t29.5 27.5t18.5 16.5q18 18 48 45t61.5 53.5t64.5 47t58 24.5q10 -4 17 -9t15 -9q-18 -94 -65 -191.5t-107.5 -192t-127 -182.5t-122.5 -164q23 0 49.5 15.5t47.5 21.5q35 10 67.5 16.5t67.5 12.5q63 10 126.5 19.5t129.5 13.5q-31 104 -45 197q-7 44 -7 79q0 42 9 74 q8 33 50 77t95 88t105.5 79t83.5 49q20 4 9 -13.5t-34 -39.5q-2 -16 -1 -34t3 -30q4 -37 9 -72.5t12 -72.5q20 -111 51 -215.5t84 -208.5q31 -59 67.5 -114.5t79.5 -109.5q53 -63 117.5 -131.5t124 -141.5t105.5 -148.5t63 -155.5q6 -33 6 -67q0 -47 -14 -96 q-23 -83 -101 -167q-78 -86 -174 -162.5t-201 -128.5q-59 -29 -121.5 -50t-121.5 -48q-49 -20 -97.5 -41.5t-98.5 -38t-101 -26.5q-37 -8 -76 -8q-16 0 -31 1q-88 8 -183 49.5t-171 86.5q-59 37 -120.5 76.5t-116 88t-95.5 105.5t-61 131q-12 45 -13.5 77z" />
<glyph unicode="z" horiz-adv-x="1179" d="M-419.5 -278.5q-6.5 -0.5 9.5 20.5q53 66 123 125t142 100q4 2 8 6q242 182 487.5 351.5t493.5 339.5q12 8 61 44.5t101 75.5q-88 23 -173 25h-31q-69 0 -137 -7q-83 -9 -166 -22.5t-169 -21.5q-51 -43 -105.5 -80t-89.5 -53l-2 -2h-2q-18 10 -57 38.5t-80 62.5t-73 63.5 t-34 41.5q49 74 125 133.5t148 108.5q10 6 18 9t19 7l4 5v-2q20 5 40 5q19 -1 37 -5q38 -10 77.5 -24.5t79.5 -30t83 -17.5q11 0 22 -1q90 -1 182 15q102 16 205 30.5t204.5 14.5t203.5 -35q-4 -10 -10 -18t-14 -18q-102 -117 -223 -220.5t-250 -196.5t-262.5 -181.5 t-262.5 -174.5q-59 -41 -117.5 -81.5t-117.5 -83.5q106 39 219 59q103 18 204 18h21q112 -2 221 -29.5t211 -86.5q117 -66 214.5 -156t191.5 -186q-10 -31 -48 -71t-86 -78t-96.5 -69.5t-78.5 -46.5q-109 109 -213.5 199t-219 151.5t-246.5 89.5q-87 18 -190 18 q-52 0 -108 -5q-129 -10 -244 -48t-227 -99q-16 -6 -22.5 -6.5z" />
<glyph unicode="{" horiz-adv-x="1122" d="M16 444q-4 8 7.5 22.5t27 30t28.5 27t17 15.5q43 39 88 75.5t92 67.5q-6 31 -18 55q-18 33 -51 54.5t-67 43t-60.5 48t-30.5 71.5q-6 80 24.5 150t82 129t114 109.5t117.5 93.5q31 23 61.5 48t65.5 42q27 12 68 23.5t84 15.5t82.5 -1.5t66.5 -23.5q-10 -31 -48 -70.5 t-86 -77.5t-96 -70t-79 -46q-14 12 -31.5 13t-36.5 3q-20 4 -38.5 4h-34.5q-6 -33 -4.5 -65.5t16.5 -61.5q18 -37 49 -58t63.5 -42.5t59 -47.5t37.5 -69q12 -49 5 -92t-25.5 -80t-47.5 -68.5t-61 -62.5q31 -8 64.5 -13t64 -16.5t54.5 -31t34 -56.5q18 -55 -2.5 -100t-52 -87 t-63.5 -85t-36 -94q-4 -66 37 -128.5t102.5 -111.5t131 -79.5t124.5 -30.5q47 0 87 19.5t77 41.5q10 6 22.5 17.5t18.5 1.5q6 -2 -4 -13q-43 -66 -113.5 -119t-134.5 -100q-61 -39 -123.5 -74.5t-138.5 -38.5q-51 0 -122.5 31t-135 82t-105.5 114.5t-36 129.5q6 51 36.5 94 t62.5 85t51.5 87t2.5 100q-12 39 -41.5 59.5t-66.5 30t-76 15.5t-70 18q-29 12 -44 27.5t-44 19.5h-2zM502 727l2 2z" />
<glyph unicode="|" horiz-adv-x="718" d="M130 1301.5q1 62.5 13 87.5q14 25 56.5 66.5t90.5 82.5t94 74t73 37q12 -10 12 -28v-32q-6 -18 -27 -43q0 -43 3.5 -97t7.5 -104.5t7 -93.5t5 -63q10 -168 14 -336t19.5 -333t52.5 -325.5t115 -316.5q-8 -25 -34 -52.5t-57.5 -55t-63.5 -51t-52 -40.5q-4 -2 -19.5 -14 t-33 -24.5t-33 -19.5t-21.5 -1q-78 156 -114.5 316.5t-52 325.5t-19.5 333t-14 336q-2 31 -8.5 97.5t-10.5 139t-3 135z" />
<glyph unicode="}" horiz-adv-x="870" d="M-137 1321q4 23 12 37h-6q2 2 4 3t4 3q18 41 51 69.5t72 63.5q68 57 112 86t87 41t97 11t140 -5q31 0 70 2t78 -1t73.5 -14t57.5 -38q37 -43 42 -88t-8.5 -89t-40 -89t-57 -87t-58.5 -82t-40 -77q-16 -43 -16 -84t16 -86q20 -53 37.5 -77.5t37 -37t45 -18.5t66.5 -23 q10 -4 17.5 -12t17.5 -14q14 0 23 -2v-8h2q-2 -2 -4 -3q-8 -23 -32 -50t-55.5 -56t-68.5 -56.5t-70 -50.5q8 -18 21.5 -33.5t27.5 -27.5q61 -55 111.5 -85t84.5 -62.5t48.5 -86t3.5 -153.5q-2 -16 -22.5 -41t-46 -50.5t-52 -48t-40.5 -34.5q-66 -57 -119.5 -97t-109.5 -55.5 t-122.5 -4.5t-154.5 59q-72 39 -118 83t-77 115q12 18 43 51t70 68t80 67.5t73 51.5q-8 12 -13 24.5t-9 28.5q-4 20 5 44t25.5 44.5t36 38.5t31.5 31q12 12 28.5 29.5t39.5 37.5q-35 12 -59.5 21.5t-44 24t-36 39t-34.5 71.5t-16.5 89t18.5 87q14 41 39.5 77t52 69.5 t51.5 68.5t41 76q8 23 12 59.5t-1 73.5t-21.5 66.5t-48.5 40.5q-53 18 -118 18t-122 2q-41 2 -85 4t-85 0q-20 -16 -52 -37.5t-42 -11.5zM499 -268q-3 -2 3 2q4 4 8 6q-8 -6 -11 -8z" />
<glyph unicode="~" horiz-adv-x="1173" d="M-72 506q-16 27 4.5 63.5t53 72.5t66.5 65.5t48 42.5q29 27 58.5 51t60.5 47q47 35 85 53.5t67 22.5q29 20 26.5 18t-20.5 -18q47 4 81 -19.5t68.5 -60.5t79.5 -77t113 -67q47 -18 90 -22t80 0q23 20 46 38.5t46 37.5q2 0 24.5 18.5t47 36.5t43 26.5t12.5 -10.5 q-10 -18 -19.5 -37.5t-21.5 -37.5q-12 -20 -42 -52t-68.5 -68t-84 -72t-88.5 -66.5t-81.5 -52t-63.5 -25.5q-115 -20 -229 22q-61 25 -96 52.5t-60 56t-48.5 55.5t-62.5 49q-23 -18 -44 -36.5t-44 -34.5q-27 -20 -57.5 -46t-65.5 -30z" />
<glyph unicode="&#xa1;" horiz-adv-x="638" d="M39 201q6 -84 33 -147q8 -23 32.5 -49.5t54 -51t58.5 -46t47 -38.5q25 -20 55.5 -45.5t65.5 -36.5q6 -4 8 -2h2q5 9 13 29q-8 27 -39 59q-2 4 -2 13q-10 72 -12.5 140.5t5.5 141.5q23 170 59 331t107 319q-8 25 -33.5 52t-57.5 55t-63.5 51.5t-52.5 39.5q-4 2 -19 14.5 t-32.5 24.5t-33 19.5t-21.5 1.5q-27 -57 -54.5 -138.5t-52 -173.5t-43 -191.5t-24.5 -193.5t0 -178zM178 1403q16 -25 57 -65.5t89.5 -82.5t94.5 -74t73 -36q-8 41 1 74t27.5 61.5t45 55t52.5 53.5q-10 31 -48 70.5t-86 77.5t-96 70t-79 46l-53.5 -53.5t-47 -56t-29.5 -64.5 t-1 -76z" />
<glyph unicode="&#xa2;" horiz-adv-x="872" d="M-37.5 477q10.5 154 109.5 289q0 2 2 4q51 70 131 137q23 23 50.5 45.5t55.5 42.5q-8 53 -24 115q16 25 57 66t89 82.5t94 73.5t73 36q29 -106 39 -213.5t23 -216.5q35 -6 63.5 -11t56 -14.5t54 -26t55.5 -46.5q-6 -23 -28.5 -49.5t-52.5 -54t-65.5 -55.5t-68.5 -50 q-18 -20 -41 -41t-47.5 -39.5t-47 -34.5t-36.5 -29q-4 -2 -19.5 -14t-33 -24.5t-33 -19.5t-21.5 -1q-18 59 -28.5 121.5t-18.5 124.5q-39 6 -69 18v-12q0 -51 11 -118.5t32.5 -140.5t53.5 -144.5t73 -126.5q6 18 18 34q20 23 59 61t83 76.5t87 68.5t72 34q6 -6 8 -10 q-4 -10 -10 -20.5t-14 -22.5q-4 -29 -2 -58.5t2 -44.5v-2q35 47 82 88t94 78q2 0 24.5 18.5t47 37t43 26.5t12.5 -10q-45 -104 -91 -206.5t-118 -195.5q-29 -37 -62 -67q16 -63 34 -127t36 -127q-8 -25 -33.5 -52.5t-57.5 -55t-63.5 -51t-52.5 -40.5q-4 -2 -19.5 -14 t-32.5 -24.5t-32.5 -19.5t-21.5 -1q-12 39 -33 108.5t-39 151.5q-45 -25 -80 -29q-78 0 -137 36t-103.5 92.5t-77 124t-55.5 130.5q-66 186 -55.5 340z" />
<glyph unicode="&#xa3;" horiz-adv-x="1482" d="M-154 399q-2 4 2 15q2 2 2 3t3 3q0 2 1 2t1 2v-2q35 47 82 87t92 77q2 0 22.5 17.5t44 34.5t43 27.5t19.5 -1.5q27 2 53.5 4t54.5 6q2 172 21.5 341t87.5 326q8 18 37.5 54.5t70.5 78.5t89.5 85t92.5 77.5t81.5 55t58.5 16.5q45 -6 81 -27.5t66.5 -50t56 -63.5t48.5 -72 q35 -49 62.5 -102.5t45.5 -110.5q12 -35 15.5 -69.5t19.5 -69.5q12 8 19.5 8t3.5 -12q-4 -4 -13 -17q-57 -72 -138 -142.5t-167 -109.5q-16 2 -24.5 20.5t-13.5 41t-7 44t-4 32.5q-8 39 -25.5 80.5t-41 80.5t-49 76t-50.5 68q-14 16 -31.5 36.5t-37.5 36.5 q-16 -74 -22.5 -148.5t-10.5 -147.5q-4 -88 -6 -176.5t-2 -178.5v-6q10 2 21 4t24 4q195 29 387 48.5t389 29.5q-10 -31 -48 -70.5t-86 -77.5t-96.5 -70t-78.5 -46q-129 -6 -254 -16.5t-252 -24.5q0 -76 -11.5 -147.5t-46.5 -141.5q-6 -10 -12 -21.5t-14 -21.5q84 14 176 8 t184 -21t180 -32.5t166 -26.5q-10 -31 -48 -70.5t-86 -77.5t-96 -69.5t-79 -46.5q-147 16 -290.5 45t-293.5 31q-47 0 -73.5 -1t-65.5 -9q-29 -16 -59.5 -29.5t-63.5 -17.5q-6 6 11.5 26.5t40 43t46 42t29.5 25.5q33 29 66 53q27 102 23.5 204.5t-3.5 209.5 q-104 -16 -208.5 -36.5t-211.5 -29.5zM86 -121l6 6q-27 -10 -6 -6z" />
<glyph unicode="&#xa4;" horiz-adv-x="1120" d="M2 860q-6 6 4 20.5t25.5 30t30 27.5t18.5 16q53 47 106.5 90t112.5 78q18 8 39.5 -2t41 -26.5t36 -33t24.5 -22.5q14 -10 27.5 -22t30.5 -23q6 4 12 8.5t14 8.5q29 16 71 29.5t91 23.5q27 25 53.5 46t53.5 44q2 0 24.5 18.5t47 37t43 26.5t12.5 -10q-16 -41 -34 -80 t-38 -78q49 -10 84 -39t41 -86q2 -29 -5 -57.5t-21.5 -55t-32 -51t-35.5 -45.5q39 -23 77.5 -46t79.5 -46q-10 -31 -48 -71t-86 -77.5t-96 -69.5t-79 -46l-147 86q-41 -29 -84 -54.5t-84 -41.5q-23 -23 -47.5 -41.5t-49.5 -36.5q-4 -2 -19 -14.5t-32.5 -24.5t-33 -19.5 t-21.5 -1.5q12 25 24.5 50.5t26.5 50.5q-55 0 -100 26q-53 33 -71.5 77t-12.5 92t32.5 94.5t61.5 80.5l25 25q-16 12 -32 24.5t-32 24.5q-10 8 -27.5 24.5t-36 32t-36 25.5t-29.5 4z" />
<glyph unicode="&#xa5;" horiz-adv-x="1337" d="M-133 1249q2 2 3 2t3 2q18 25 59 66t87.5 80t89.5 68.5t69 35.5l4 4q0 -2 4 -6q16 -23 35 -51q57 -84 123 -169t139.5 -162t156.5 -138t179 -98q68 66 127.5 136.5t100.5 158.5q10 25 27.5 60.5t21.5 64.5q-16 -4 4 22q59 70 135 131.5t154 106.5l8 4q4 2 12 2 q0 -35 -19.5 -75t-33.5 -69q-47 -104 -118 -192t-157 -166q-18 -18 -45.5 -42t-58.5 -49.5t-59.5 -54t-49.5 -55.5q4 -2 9.5 -2t9.5 -2q-6 -16 -18.5 -34.5t-32.5 -39.5q0 -41 15 -102t28 -113q152 23 302 33t304 4q-10 -31 -48 -70.5t-86 -77.5t-96.5 -70t-78.5 -46 q-133 6 -265 0q18 -172 23.5 -343t7.5 -345q-8 -25 -33.5 -52.5t-57.5 -55t-63.5 -51t-52.5 -40.5q-4 -2 -19.5 -14t-32.5 -24.5t-32.5 -19.5t-21.5 -1q-2 213 -10.5 425t-38.5 423q-2 12 -6.5 29.5t-8.5 37.5q-98 -14 -192 -33.5t-187 -48.5q-18 -10 -18 -11t-21 -9 q-2 0 -3 1t-5 1q-6 6 4.5 20.5t25.5 30t29.5 27.5t18.5 16q18 16 46 42t58.5 51.5t61.5 47t57 27.5q8 4 15.5 7t15.5 8q12 4 25.5 8t27.5 8q-2 23 -1 39t7 28q4 8 8.5 15.5t8.5 15.5q-18 6 -32.5 9t-29 8.5t-30 13.5t-39.5 20q-66 37 -130.5 92.5t-126 122t-117.5 138 t-105 139.5l-5 4q-4 6 -7 12t-7 13q-12 16 -24.5 34.5t-24.5 34.5z" />
<glyph unicode="&#xa6;" horiz-adv-x="438" d="M-14 -137q2 74 15 134t46 95q20 23 60 60.5t84.5 76.5t86 69t70.5 34q2 -7 2 -23q-4 -16 -26 -45q-4 -12 -7 -18q-10 -47 -12 -97.5t-2 -97.5q0 -125 20.5 -244.5t55.5 -242.5q-8 -25 -34 -52.5t-57.5 -55t-63 -51t-52.5 -40.5q-4 -2 -19.5 -14.5t-33 -24.5t-32.5 -19 t-21 -1q-10 41 -25.5 105.5t-28 140t-20.5 156.5t-6 155zM34.5 693q-1.5 146 8.5 298q0 2 5 34t9 75t8.5 87t4.5 73q-20 -10 -27 -3q8 16 16.5 29.5t18.5 26.5q20 23 59 61.5t83 77.5t87 68.5t72 33.5q6 -8 4 -55t-8 -100t-12.5 -98.5t-6.5 -49.5q-10 -154 -8 -300t25 -298 q-8 -25 -34 -52.5t-57.5 -55t-63.5 -51t-52 -39.5q-4 -2 -19.5 -14.5t-33 -25t-32.5 -19.5t-22 -1q-23 152 -24.5 298z" />
<glyph unicode="&#xa7;" horiz-adv-x="1079" d="M-70 -229q-6 6 4.5 20t25.5 29.5t29.5 28t18.5 16.5q18 18 48 45t62 53.5t64.5 47t57.5 24.5q45 -39 88 -57.5t88 -21.5t92 7t102 29q4 2 5 2t6 2q10 31 2.5 62.5t-23.5 66.5q-29 49 -74 86q-47 -4 -95 12.5t-114 55.5q-4 6 3.5 17t19.5 26q-53 29 -102.5 64.5 t-79.5 88.5q-14 25 -24.5 55.5t-6.5 59.5q4 20 23.5 49t50.5 59q-23 4 -45.5 11.5t-42.5 17.5q-25 12 -43.5 32.5t-38.5 37.5q-33 29 -42 81t-14 95q-8 94 9.5 165.5t56.5 131t95.5 113t127.5 108.5q18 14 42 34.5t50.5 37t55 26.5t53.5 6q66 -10 117 -36.5t104 -65.5 q29 -23 59.5 -49.5t65.5 -36.5q-10 -31 -48 -71t-86 -77.5t-96.5 -69.5t-78.5 -46q-29 6 -55.5 23.5t-53 39t-53.5 43t-55 39.5q0 -59 12 -119.5t43 -107.5q33 -51 82 -72.5t105.5 -28t117 -2t118.5 3.5t110.5 -13.5t91.5 -49.5q45 -43 58 -96t4 -107.5t-36.5 -105.5 t-62.5 -92q-25 -31 -54 -60q27 -27 44.5 -59.5t21.5 -73.5t-11.5 -79t-41 -72.5t-56 -64.5t-57.5 -54q-63 -61 -158.5 -135t-203 -129.5t-217 -77t-201.5 23.5q-18 10 -32.5 25.5t-31.5 28.5zM500 694q37 -41 84 -71q27 -18 56.5 -36t64.5 -36q-17 49 -52 84 q-31 29 -69.5 42t-83.5 17z" />
<glyph unicode="&#xa8;" horiz-adv-x="866" d="M41 1599q-6 6 4 20.5t25.5 30t30 28t18.5 16.5q18 18 48 44.5t61.5 53.5t64.5 47.5t57 24.5q6 -6 9 -31t4.5 -54.5t1.5 -58t2 -41.5q8 -49 20 -93t35 -85q4 49 13 90t26 70q31 53 83 96t99 78q20 18 43 36.5t44.5 32t40 18.5t34.5 -3q-12 -35 -55 -78v-4 q-4 -31 -6.5 -62.5t-6.5 -64.5q-6 -96 -2 -189.5t21 -189.5q-8 -25 -34 -52.5t-57.5 -55t-63.5 -51t-52 -39.5q-4 -2 -19.5 -14.5t-33 -25t-32.5 -19.5t-22 -1q-6 29 -11 70t-9 88q-53 -45 -108.5 -82t-90.5 -53q-76 66 -114.5 146.5t-55.5 178.5q-2 8 -3 37t-2 59.5t-3 56 t-4 25.5z" />
<glyph unicode="&#xa9;" d="M-175 395.5q-7 104.5 5 196.5q10 78 39 150.5t51 146.5q12 39 39 71.5t57.5 61.5t63 56.5t61.5 58.5q70 74 126.5 122t113.5 82q-41 -8 -77 -19t-54 -30q-35 -33 -72 -64.5t-76 -60.5q-18 -14 -37.5 -28.5t-36 -23.5t-25.5 -12t-7 5q2 6 8 13t13.5 15.5t12.5 13.5l7 7 q43 43 91 93t99.5 99.5t105.5 91.5t111 68q63 29 106.5 49.5t84.5 34t88 19.5t119 6q106 0 208.5 -25.5t198.5 -72.5q141 -66 244.5 -169.5t161.5 -248.5q37 -90 36 -196.5t-30 -219.5t-79 -227.5t-111.5 -218t-129 -192.5t-131.5 -152q-39 -39 -111.5 -104.5t-156.5 -129 t-166 -110t-139 -46.5q-72 2 -143.5 1t-139.5 22q-96 35 -176 101.5t-142.5 154.5t-106.5 190.5t-70.5 209t-33.5 211zM141.5 611q12.5 -122 48 -239.5t95 -225t143.5 -191.5q57 -59 130 -104.5t151.5 -69t161.5 -19t161 40.5q74 92 149.5 221.5t127 271.5t65.5 285.5 t-33 262.5q-43 106 -115.5 193t-165.5 151.5t-201.5 104.5t-221.5 53q-37 -33 -78 -64t-88 -51q-31 -10 -68.5 -15.5t-72.5 -13.5t-62.5 -24.5t-40.5 -47.5q-23 -70 -48 -138t-36 -142q-14 -117 -1.5 -239zM317.5 512q-18.5 190 20.5 365q4 23 23.5 38t33.5 31 q20 23 60.5 60.5t84.5 76.5t86 69t70 34q41 -10 68 -37t48.5 -57.5t44 -60.5t58.5 -46q25 -10 33 -10t13.5 4t12.5 8t32 0q-10 -31 -48 -70.5t-86.5 -77.5t-96.5 -70t-79 -46q-20 4 -30.5 -2t-26.5 -8q6 -59 17.5 -120t28.5 -120t43 -113.5t60 -99.5q20 -25 49 -42t56 -38h2 l2 2q35 51 85 93t97 81q2 0 24.5 18.5t47.5 37t43 26.5t12 -10q-59 -139 -168.5 -243.5t-232.5 -190.5q-23 -16 -48.5 -32.5t-54 -29t-58.5 -17.5t-60 1q-37 8 -67 37t-53.5 64.5t-39.5 72.5t-27 66q-61 166 -79.5 356z" />
<glyph unicode="&#xaa;" horiz-adv-x="1359" d="M-270 999h2q-2 8 8 22.5t24.5 29t27.5 25.5t18 16q18 16 43.5 39.5t54.5 48t59.5 45t55.5 30.5q2 4 4 5.5t6 5.5q4 -4 8 -4q109 -37 206 -69t195.5 -55.5t202 -35.5t223.5 -6q25 2 53.5 4t57.5 6q35 45 86 85t117 87q18 14 38.5 28.5t43.5 18.5q-10 -35 -22.5 -63.5 t-29.5 -55.5q-4 -16 -4 -24q-10 -68 -5 -136.5t16 -136.5q12 -104 41.5 -200.5t58.5 -196.5q4 -12 12 -32.5t14.5 -42t7.5 -42t-7 -35.5q-29 -43 -71 -77.5t-81 -69.5q-33 -27 -66.5 -53.5t-72.5 -44.5q-4 -4 -9.5 -5t-11.5 -6q-20 14 -32.5 43t-26.5 48q-31 39 -68 79 q-6 -6 -21.5 -18t-31.5 -22.5t-30.5 -16.5t-18.5 0v29q-2 4 -10 8q-23 -2 -43.5 -12.5t-39 -23.5t-37 -26.5t-38.5 -23.5q-47 -25 -108.5 -53.5t-125 -45t-124 -13.5t-109.5 42q0 2 -4 6q12 72 60 122t100 98q49 45 115.5 102t141 109.5t155.5 90.5t161 46q-4 35 -6 70.5 t-2 70.5q-4 59 6 109q-23 -14 -42 -24.5t-42 -16.5q-88 -29 -179 -40.5t-183 -11.5q-16 -23 -41 -46t-52.5 -44.5t-53 -41t-42.5 -31.5q-4 -2 -18.5 -13.5t-31.5 -24t-33.5 -20.5t-22.5 -4v2q-16 25 -25.5 53.5t-28.5 53.5q-25 37 -66.5 74.5t-90.5 74.5t-104.5 72 t-108.5 63v2h-2zM479 362q33 -27 71 -36t78 -5.5t82 15.5t81 29q-35 18 -72 30.5t-78 16.5q-82 4 -160 -31q0 -13 -2 -19z" />
<glyph unicode="&#xab;" horiz-adv-x="915" d="M-180 76q-4 25 11 60.5t37.5 71.5t47.5 68.5t37 53.5q49 76 88 144.5t79 134t89 127t121 120.5q16 14 39.5 36.5t50 43t54.5 34t52 11.5v-47q-10 -35 -52 -74t-85 -74q-12 -23 -24.5 -44t-24.5 -44q-37 -59 -76 -116.5t-78 -116.5q-12 -20 -25.5 -44t-20.5 -47.5t-3 -47 t27 -43.5q16 -16 43 -33q20 47 47 94t49 88q31 57 58.5 115.5t68.5 109.5q37 47 82 93.5t96 88.5t105.5 76.5t107.5 59.5q20 4 9 -13.5t-33.5 -39t-44.5 -40.5l-23 -20q-10 -10 -20.5 -18t-20.5 -19q-14 -27 -27.5 -54.5t-27.5 -53.5q-23 -43 -47.5 -84t-45 -84t-33.5 -88 t-11 -94q47 -31 93 -36t99 -20q43 -10 66.5 -18t42 -18.5t39 -26t59.5 -39.5q-10 -31 -48 -71t-86 -77.5t-96.5 -69.5t-78.5 -46q-45 33 -82 49q-53 -47 -114.5 -89t-96.5 -59q-18 6 -59 16.5t-92.5 26t-105.5 35t-100.5 43t-79 50t-36.5 59.5z" />
<glyph unicode="&#xac;" horiz-adv-x="1267" d="M-14 733l4 4q0 8 11 22.5t25.5 28t27 24.5t16.5 13q18 16 45.5 43t59.5 53.5t63.5 47t58.5 26.5l2 2h2q82 -8 164 -10t164 -2h76.5h54t48 1t58.5 1q43 4 85 6t83 11q109 18 150 29t43 -2t-23.5 -59t-50.5 -143q-8 -29 -18.5 -75.5t-16.5 -77.5q-12 -78 -13 -154t5 -153 q-8 -25 -33.5 -52.5t-57.5 -55.5t-63.5 -51.5t-52.5 -39.5q-4 -2 -19.5 -14.5t-32.5 -24.5t-32.5 -19.5t-21.5 -0.5q-6 78 -5 152.5t13 152.5q2 14 7 35.5t9 43t9.5 42t9.5 34.5q14 47 32.5 91.5t34.5 89.5q8 25 -12.5 25.5t-52 -6.5t-63 -18.5t-44.5 -13.5q-45 -8 -89 -10 t-89 -6q-35 0 -58.5 -1t-48 -1h-54h-77.5h-135q-47 -31 -78 -45q-27 18 -53 31.5t-57 23.5q-2 0 -4 1t-6 1z" />
<glyph unicode="&#xad;" horiz-adv-x="1013" d="M-8 643q53 78 137 144.5t164 113.5l2 2t4 3t4 3v-2q57 29 141 38t173.5 7t174.5 -11t146 -17q-10 -31 -48 -71t-86 -78t-96.5 -69.5t-78.5 -46.5q-45 6 -105.5 12.5t-128 11.5t-136.5 5t-128 -8q-4 -4 -8 -7t-8 -7q-4 -2 -19.5 -14.5t-33 -25t-33 -19.5t-21.5 -1 q-4 10 -8 18.5t-8 18.5z" />
<glyph unicode="&#xae;" d="M-60 328.5q1 109.5 19 215t49 191.5q25 68 53.5 136.5t75.5 121.5q47 55 99.5 115.5t108.5 119t117.5 107.5t129.5 84q47 25 98 53.5t94 46t69 14.5t24 -44q-8 -23 -29 -48.5t-49 -49.5q139 -4 290.5 -36t281.5 -99.5t220 -178t107 -274.5q6 -72 -5.5 -132.5t-34 -114.5 t-54 -107.5t-66.5 -112.5q-37 -66 -95.5 -116t-111.5 -103q-57 -59 -129 -122t-153.5 -119t-171 -104t-180.5 -78t-183 -38t-178 12q-113 27 -188.5 93.5t-123 155.5t-66.5 195.5t-18 216zM253 589.5q-1 -67.5 5 -128.5q20 -193 95 -313.5t187.5 -175t258 -45t311.5 76.5 q66 27 116 79t85 118.5t52 143.5t17 152.5t-18.5 146.5t-54.5 126q-76 111 -179.5 181.5t-223.5 110.5t-248 54t-250 12q-6 6 4 20.5t25.5 30t29.5 28t18 16.5q10 10 22.5 21t26.5 26q-23 -2 -49 -16.5t-41 -24.5q-29 -16 -48 -45t-32.5 -61.5t-22.5 -68.5t-22 -69 q-20 -59 -34.5 -124.5t-21.5 -134.5t-8 -136.5zM285 485q14 23 54 64t87 82t93 72.5t75 37.5l4 4q0 -2 -2 -2h2q16 -2 26.5 -18.5t20.5 -30.5q-6 -20 -29 -47q8 -25 16.5 -49.5t18.5 -48.5q4 4 7.5 5t7.5 5q10 29 16 58.5t23 58.5q16 25 57 65.5t89 82.5t94 74t73 36 q18 -2 32.5 -29.5t36 -61.5t57.5 -62.5t97 -30.5q-10 -31 -48 -71t-86 -78t-96 -69.5t-79 -46.5q-66 4 -97.5 28t-54.5 60q-25 -23 -50 -44t-52 -42q31 -63 73 -117.5t103 -95.5q-10 -31 -48 -70.5t-86 -77.5t-96.5 -69.5t-78.5 -46.5q-102 70 -155.5 173.5t-88.5 217.5 q-4 12 -12 39t-4 45z" />
<glyph unicode="&#xb0;" horiz-adv-x="851" d="M-4 845.5q-8 65.5 4 139.5q2 12 16.5 32.5t36.5 47.5l4 8q18 29 41 53.5t49 47.5q0 8 11.5 22t26 28.5t26.5 25t16 14.5q18 18 48 44.5t62 53.5t64.5 47.5t57.5 24.5q47 -2 99 -10.5t100.5 -27t88 -47t64.5 -73.5q20 -35 23.5 -81t7.5 -85q0 -2 -1 -3t-1 -3t-1 -3t-1 -3 l-2 -2q-12 -25 -41 -54q-41 -53 -84 -106t-90.5 -103.5t-100.5 -93.5t-112 -73q-35 -16 -69 -32t-69 -32q-4 -2 -9 -6t-11 -2q-80 12 -133.5 47t-83 87t-37.5 117.5zM299 1149q0 -10 1 -17.5t3 -17.5q10 -63 45 -125.5t90 -99.5q18 -12 42 -15.5t46 -7.5q-4 37 -8 78t-20 74 q-29 53 -83.5 84t-115.5 47z" />
<glyph unicode="&#xb1;" horiz-adv-x="952" d="M8 35q2 14 0 27.5t2 25.5q2 14 25.5 40t53.5 51.5t57.5 47t39.5 31.5q37 33 80 71t90 54q10 4 20.5 7t20.5 7q-6 55 -10 110.5t-10 113.5q-39 -14 -79 -25.5t-76 -17t-66.5 -3t-51.5 14.5q-20 10 -23 23.5t3 27.5q-6 -2 -13.5 -3t-11.5 -3q12 8 33 18q8 12 19.5 23.5 l21.5 21.5q41 37 96.5 91.5t114.5 89.5q-4 29 -11.5 55.5t-23.5 36.5q-6 6 4.5 20.5t25.5 29.5t29.5 27.5t18.5 16.5q18 18 48 45t61.5 53.5t64.5 47t57 24.5q14 -10 22.5 -28.5t12.5 -41t6.5 -45t4.5 -37.5q14 -92 24 -192q47 16 94 33.5t95 27.5q20 4 8.5 -13t-34 -38.5 t-45.5 -40.5l-22 -20q-41 -39 -84 -72q4 -33 6.5 -64.5t6.5 -62.5q-8 -25 -34 -52.5t-57.5 -55t-63.5 -51t-52 -40.5q-4 -2 -13.5 -10t-21.5 -18q98 18 201.5 12t195.5 -29q-10 -31 -48 -70.5t-86 -77.5t-96 -70t-79 -46q-80 20 -163 25.5t-167 -0.5q-10 -2 -18 -2t-16 -2 q-23 -16 -44.5 -33t-35.5 -27q-4 -2 -19.5 -14t-33 -24.5t-33 -19.5t-21.5 -1zM55 633l4 2q-2 -2 -4 -2z" />
<glyph unicode="&#xb2;" horiz-adv-x="731" d="M-51 1401q10 23 21.5 38.5t27.5 33.5q4 4 33.5 30.5t69.5 60t83 69.5t73 56.5t38 20.5t-21 -35q-4 -4 -12 -16l6 -6q18 0 70.5 10t105 12t88 -13t23.5 -71q-10 -51 -41 -102t-72 -99.5t-86 -93.5t-86 -82q31 6 63 12.5t62 10.5q47 8 93.5 20.5t91.5 22.5t91 14t95 -4 q-10 -31 -48 -70.5t-86 -77.5t-96.5 -70t-78.5 -46q-66 10 -128.5 0t-125 -27.5t-125 -33t-127.5 -15.5q-4 6 0 13.5t8 11.5q27 35 58.5 64.5t60.5 60.5q20 18 40.5 40.5t37.5 41.5q12 16 24.5 30.5t22.5 30.5q12 18 22 39q27 59 19 87t-35 37t-67 5t-78.5 -11t-70.5 -10.5 t-40 7.5zM237 1182q3 2 8 7l12 12l11 11q-8 -8 -16 -15t-14 -13q-4 -4 -1 -2z" />
<glyph unicode="&#xb3;" horiz-adv-x="512" d="M-168 928q-6 6 4 20.5t25.5 29.5t30 27.5t18.5 16.5q31 29 83 76t101 76q-29 2 -56.5 3t-55.5 5q-2 2 -2 3t-3 3q0 4 -2 6q29 41 67 78t81 71q-70 4 -136.5 5.5t-136.5 5.5h-4q2 0 4 2q-4 8 7.5 22.5t26 28.5t27.5 25.5t17 15.5q18 16 44 39.5t54.5 48.5t58.5 45.5 t54 30.5l6 6q4 0 5.5 -1t5.5 -1q2 0 2 1t2 1q31 4 61.5 3t61.5 -1q-2 -2 -2 -6q53 -2 105 -4t106 -6q6 0 21 -1t29.5 -4.5t26 -10.5t9.5 -21q-4 -25 -33 -61t-72 -74q35 -6 64.5 -19.5t58.5 -40.5q37 -37 27.5 -79t-40 -82t-70.5 -74.5t-62 -55.5q-63 -55 -137 -107 t-154 -82t-164 -27t-164 63zM197 1159q10 -6 21.5 -10t23.5 -8q-23 12 -45 18zM283 987q10 4 12 10q-8 -8 -12 -10z" />
<glyph unicode="&#xb4;" horiz-adv-x="692" d="M-41 1083q4 16 10.5 29l12.5 25q35 51 85 93t97 81q2 0 24.5 18.5t47 36.5t43 26.5t12.5 -10.5q-4 -10 -10.5 -19t-8.5 -20q8 -6 21 -6q70 78 144.5 148.5t166.5 122.5q10 6 22.5 17t18.5 1q6 -2 -4 -12q-23 -35 -53.5 -65.5t-65.5 -59.5q-18 -23 -36.5 -43.5 t-39.5 -42.5q-74 -78 -159.5 -152.5t-182.5 -130.5q-12 -8 -30.5 -18t-38 -17.5t-39 -10.5t-33.5 5zM342 1362q-4 -2 1 1t9 5q-4 -2 -5 -3t-5 -3z" />
<glyph unicode="&#xb5;" d="M135 -504.5q4 316.5 23 635.5q2 27 6 73t7 102t6 116.5t3 115t-4 96t-12 64.5q16 25 57 66t89 83t94.5 73.5t72.5 35.5q0 -4 2 -6q6 4 13.5 9.5t13.5 11.5q2 0 24.5 18.5t47 36.5t43 26.5t12.5 -10.5q-23 -37 -41.5 -74.5t-28.5 -82.5q-8 -39 -15 -95.5t-8 -121t4 -130 t19.5 -123t40 -100.5t64.5 -59q53 -25 114.5 -7.5t120.5 46.5q-14 78 -22.5 157.5t-16.5 157.5q-18 25 -33.5 44.5t-25.5 29.5l-2 2q-4 10 12 28.5t35 35.5q-2 25 -1 48t5 46v2l2 2q18 25 59 65.5t88.5 81.5t92.5 73t71 36q4 -8 4 -10q-2 -4 -4 -9.5t-4 -9.5 q-4 -49 3.5 -103t11.5 -102v-6q4 -4 6 -8t6 -8q18 -27 37.5 -57.5t35 -62.5t24.5 -65.5t5 -68.5q-4 -31 -19.5 -61.5t-39.5 -63.5q23 -98 55.5 -183t83.5 -126q16 -12 35.5 -16.5t38.5 -12.5q-10 -31 -48 -71t-86 -77.5t-96.5 -69.5t-78.5 -46q-18 8 -37 14t-37 15 q-16 8 -33.5 34.5t-33 58t-27 60.5t-15.5 41q-10 29 -18 59.5t-16 63.5q-47 -31 -90.5 -55.5t-71.5 -40.5q-29 -14 -65 -35t-75.5 -40t-82.5 -35.5t-82 -22.5q-12 -432 0 -869q-8 -25 -34 -52.5t-57.5 -55t-63.5 -51t-52 -39.5q-4 -2 -19.5 -14.5t-33 -25t-33 -19.5 t-21.5 -1q-8 322 -4 638.5z" />
<glyph unicode="&#xb6;" horiz-adv-x="1331" d="M-22.5 884.5q-6.5 59.5 2.5 96.5q8 39 32.5 75t56 67.5t66.5 58t64 51.5q80 63 143.5 103t128 59.5t141 21.5t183.5 -8q23 -2 58.5 -8t64.5 -8q37 0 79.5 3t86.5 5t85 -3.5t72 -21.5q-12 -35 -59 -82t-103 -88q-4 -27 -5 -41t-3 -49q-6 -82 -6 -163v-165q0 -150 7 -292 t31.5 -279t73 -270t132.5 -262q-8 -25 -34 -52.5t-57.5 -55.5t-63.5 -51.5t-52 -39.5q-4 -2 -19.5 -14.5t-33 -24.5t-33 -19.5t-21.5 -0.5q-92 141 -141 283.5t-72 289.5q-16 -23 -40.5 -45.5t-51 -44t-51.5 -39.5t-41 -31q-4 -2 -19.5 -14t-33 -24.5t-32.5 -19.5t-21 -1 q-72 160 -99.5 326.5t-32.5 341.5q-49 -12 -96 -7q-8 0 -10 4q-33 6 -68 31q-29 18 -50 42t-46 46q-29 27 -52.5 82t-38.5 116.5t-21.5 121zM291 1104q12 12 25.5 24.5t27.5 24.5h-53v-49zM672 862q23 18 45 35.5t43 30.5q6 37 17.5 66.5t29.5 49.5q4 4 29.5 27t62.5 53 q-47 14 -104.5 12.5t-110.5 -6.5q-4 -41 -6 -74.5t-2 -49.5q-2 -35 -2 -72t-2 -72zM676 668q4 -139 23.5 -273.5t66.5 -263.5q-10 98 -12 196.5t-2 202.5q0 29 -3.5 84.5t-3.5 120.5q-16 -18 -33.5 -33.5t-33.5 -31.5z" />
<glyph unicode="&#xb7;" horiz-adv-x="462" d="M-10 680q-6 6 4 20.5t25.5 29.5t29.5 27.5t19 16.5q18 18 47.5 45t61.5 53.5t64.5 47t57.5 24.5q29 -18 50.5 -42.5t43 -50.5t46 -50.5t55.5 -40.5q-10 -31 -48 -71t-86.5 -78t-96.5 -69.5t-79 -45.5q-31 16 -55.5 40.5t-46 50t-42.5 50.5t-50 43z" />
<glyph unicode="&#xb8;" horiz-adv-x="890" d="M-20 -559q-6 6 4 20.5t25.5 29.5t29.5 27.5t18 16.5q18 18 48 45t62 53.5t64.5 47t57.5 24.5q31 0 60.5 -3t58.5 -7q-29 16 -63 26.5t-69 8.5q-6 0 -25.5 -6.5t-38.5 -10.5t-32.5 -1t-7.5 22q12 33 31.5 61.5t36.5 57.5q16 29 34.5 54t34.5 52q41 43 83 82t87 74 q2 0 24.5 18.5t47 36.5t43 26.5t12.5 -10.5q-14 -23 -33.5 -47t-37 -51t-32 -54.5t-20.5 -53.5q8 -8 25.5 -6.5t36 7t38 10.5t31.5 3q72 -8 127.5 -53t92.5 -105q27 -43 28.5 -79t-15 -66.5t-45 -59t-61.5 -57.5q-31 -27 -64.5 -57.5t-70.5 -59t-77 -50t-80 -28.5 q-57 -8 -116 0.5t-118 21.5t-118.5 26.5t-116.5 13.5z" />
<glyph unicode="&#xb9;" horiz-adv-x="438" d="M23.5 1077q3.5 80 21.5 166q6 25 11 48.5t16 45.5q0 2 3 7.5t7 11.5q0 2 1 2t1 2q4 8 4 4q18 27 59 68t88.5 79.5t91.5 69.5t68 35v-6q-4 -14 -18 -35q-14 -35 -23.5 -85t-12.5 -106.5t1 -111.5t16 -101q-8 -25 -33.5 -52t-57 -55t-63.5 -51.5t-52 -39.5 q-4 -2 -19.5 -14.5t-33 -24.5t-33 -19.5t-21.5 -1.5q-25 84 -21.5 164z" />
<glyph unicode="&#xba;" horiz-adv-x="550" d="M-104 1341.5q-2 1.5 6 12t24.5 27l34.5 34.5q45 43 113 105q31 25 62.5 53.5t66.5 51t73.5 33.5t81.5 3q72 -16 124.5 -63.5t77 -109t15 -129t-60.5 -124.5q-20 -23 -56 -56.5t-80 -70.5t-92 -74t-96.5 -64.5t-90.5 -44t-72 -10.5q-37 6 -59.5 33t-33 65t-12.5 82t2 88 t12.5 80.5t16.5 59.5q8 18 22.5 32.5t26.5 30.5l6 7q-10 -2 -18 -3t-17 -4q-29 -23 -57 -36q-18 -10 -20 -8.5z" />
<glyph unicode="&#xbb;" horiz-adv-x="1175" d="M-109 772v2v4q53 78 137.5 144.5t164.5 113.5h8l4 4v-2q12 0 28 4t11.5 -8t-21.5 -28q53 -41 119 -74t129 -68q25 29 63.5 66t80.5 70.5t80 58t63 31.5l4 4v-4q18 -12 37.5 -44t36 -69t30 -73t19.5 -54q25 -59 46 -98t45.5 -72t55.5 -65.5t74 -75.5q12 -12 27.5 -28.5 t26.5 -36t14.5 -40t-9.5 -41.5q-57 -96 -154.5 -176t-195.5 -133q-37 -23 -79 -30t-83 -17q-4 -2 -6 -2t-6 -2q-20 -14 -40.5 -27.5t-41.5 -25.5q-23 -12 -22.5 -7.5t10.5 21.5q59 66 130 134.5t148 117.5q-6 8 -14 14t-14 14q-59 59 -99.5 102.5t-72.5 98.5 q-33 -49 -70 -93t-43 -52q-20 -31 -29.5 -50.5t-14.5 -38t-9 -41t-10 -57.5q-8 -25 -34 -52.5t-57.5 -55t-63.5 -51t-52 -39.5q-4 -2 -19.5 -14.5t-33 -24.5t-33 -19.5t-21.5 -1.5q6 27 8 54.5t13 52.5q16 49 56 99t78 99.5t60.5 99.5t7.5 103q-16 53 -50 93t-77 72 t-92 56.5t-94 47.5q-16 8 -40.5 18t-48.5 23.5t-42 31t-23 37.5zM840 121l4 4z" />
<glyph unicode="&#xbc;" horiz-adv-x="1447" d="M121 1235q4 55 31 102q35 51 85 93.5t97 80.5q2 0 24.5 18.5t47 37t43 27t12.5 -10.5q-23 -45 -26 -99t6.5 -109.5t27.5 -109t39 -96.5q-8 -25 -33.5 -52t-57.5 -55t-63.5 -51.5t-52.5 -39.5q-4 -2 -19.5 -14.5t-33 -24.5t-32.5 -19.5t-21 -1.5q-20 43 -40 97.5t-29 113 t-5 113.5zM195 -211q18 350 128.5 664.5t309.5 601.5q70 98 167 184t187 164q2 2 22.5 17.5t46 35t52.5 37.5t44 27.5t17 5.5t-24 -33q-14 -14 -22.5 -23.5t-18.5 -19.5q-8 -8 -16.5 -14t-18.5 -17l-22 -22q-23 -23 -49.5 -48.5t-49.5 -48.5q-59 -59 -104 -141t-86 -158 q-117 -227 -176.5 -462.5t-73.5 -491.5q-8 -25 -33.5 -52.5t-57.5 -55t-63.5 -51t-52.5 -40.5q-4 -2 -19.5 -14t-33 -24.5t-32.5 -19.5t-21 -1zM675 311q-9 35 11 90q12 35 33 64.5t37 60.5q35 51 85 93.5t97 80.5q2 0 24.5 18.5t47 37t43 27t12.5 -10.5 q-12 -25 -33.5 -57.5t-34 -67.5t-10.5 -69.5t37 -61.5q20 27 60 67t85 76.5t87 64.5t67 34l4 4v-2q4 -35 1 -75t-21 -75q-4 -66 -4 -136.5t4 -141t11 -135t17 -117.5q-8 -25 -33.5 -52.5t-57.5 -55t-63.5 -51t-52.5 -40.5q-4 -2 -19 -14t-32.5 -24.5t-33 -19.5t-21.5 -1 q-8 43 -15.5 100.5t-11.5 122t-5 131t1 127.5q-37 -25 -69.5 -42t-59.5 -21q-41 -8 -82 -4t-68.5 22t-36.5 53z" />
<glyph unicode="&#xbd;" horiz-adv-x="1445" d="M27 -514q72 248 144.5 493.5t158.5 487.5q53 150 100 271.5t98.5 223t115 187.5t149.5 164q47 49 99 92t114 70q4 0 5 1t3 1q10 8 21.5 14t23.5 14q35 20 39 18.5t-11.5 -19t-46 -44t-65.5 -57.5q-29 -35 -59.5 -72t-45.5 -63q-35 -61 -62.5 -125t-55.5 -129 q-129 -309 -224.5 -627.5t-187.5 -642.5q-8 -25 -33.5 -52.5t-57.5 -55t-63.5 -51t-52.5 -40.5q-4 -2 -19.5 -14t-33 -24.5t-32.5 -19.5t-21 -1zM141 1380q16 25 57.5 66t89.5 83t94 73.5t73 35.5q10 -47 14 -94t7 -94t7 -95t17 -95q-8 -25 -34 -52.5t-57.5 -55.5 t-63.5 -51.5t-52 -39.5q-4 -2 -19.5 -14.5t-33 -24.5t-32.5 -19.5t-22 -1.5q-12 47 -16 94.5t-7 95.5t-7.5 95t-14.5 94zM532 281q-4 12 7.5 28.5t29 33.5t36 31.5t24.5 20.5q74 70 158.5 135.5t177.5 106.5q14 6 34.5 13t42 11.5t42 0t32.5 -18.5q16 -23 16.5 -54.5 t-9 -65.5t-24 -66.5t-22.5 -55.5q-25 -63 -52.5 -121.5t-52 -119t-42 -123t-21.5 -131.5q16 -12 29 -29q14 4 27.5 7t25.5 12q78 68 154 131t160 120q10 6 22 17.5t19 1.5q6 -2 -5 -12q-23 -33 -51 -62t-61 -57q14 -12 -4.5 -28.5t-50 -36t-67.5 -39t-56 -37.5 q-47 -41 -95.5 -83t-100.5 -81t-107.5 -71t-116.5 -48q-10 10 -22.5 17t-12.5 20q0 88 28.5 169t65.5 158.5t72 156.5t49 165q12 70 -11.5 89.5t-60.5 12.5q-51 -43 -103 -77.5t-85 -49.5q-4 2 -14 2q0 2 -5 7z" />
<glyph unicode="&#xbe;" horiz-adv-x="1589" d="M-50 -442.5q1 36.5 10 78.5t30 108q33 102 82 198.5t108.5 188.5t124 178t129.5 170q135 174 273.5 339t273.5 339q47 86 100 150t129 125q150 123 180.5 132t-49.5 -69q-6 -10 -14 -22q-23 -41 -40 -70t-46 -66q-66 -86 -136.5 -166.5t-137.5 -166.5 q-100 -127 -217 -266.5t-219.5 -288t-177 -308t-91.5 -327.5q-4 -47 0 -93.5t4 -93.5q-8 -25 -33.5 -52.5t-57.5 -55t-63.5 -51t-52.5 -39.5q-4 -2 -19 -14.5t-32.5 -25t-33 -19.5t-21.5 -1q0 68 -2 110t-1 78.5zM20 1155l7 6q-2 8 9 22.5t25.5 29t27.5 25.5t17 13 q53 47 106.5 91t113.5 79q16 6 30.5 12.5t28.5 12.5q20 4 8 -12q43 8 97.5 16t101.5 6t80 -18.5t37 -59.5q2 -25 -16.5 -55.5t-48.5 -64t-68.5 -68.5t-77.5 -68q33 -2 64.5 -7t55.5 -28q20 -16 17.5 -39.5t-18 -46t-35 -43t-31.5 -30.5q-51 -51 -107.5 -101.5t-118 -94.5 t-128 -75.5t-140.5 -46.5q-6 6 4.5 20.5t25.5 30t29.5 27.5t18.5 17q37 33 75 65.5t79 60.5q-25 8 -44.5 12.5t-40 6.5t-43 5t-50.5 9q-2 2 -2 3t-3 3q18 37 50 71t71 64.5t83 58.5t85 52v4q0 12 -5 24.5l-9 22.5q-43 16 -86 19.5t-87 -0.5t-89 -12.5t-90 -14.5q-8 -4 -9 -4 zM664.5 85q-5.5 83 9 164t39.5 120l4 8q35 51 85 93t97 81q2 0 24.5 18.5t47 37t43 26.5t12.5 -10q-20 -33 -33.5 -83.5t-17.5 -106.5t1 -112.5t21 -101.5q10 8 20.5 15.5t22.5 17.5q59 59 126 110.5t112 63.5q4 2 12 2q14 -66 6 -136.5t-4 -139.5q6 -92 32 -178.5 t48 -174.5q-8 -25 -33.5 -52.5t-57.5 -55t-63.5 -51t-52.5 -39.5q-4 -2 -19.5 -14.5t-32.5 -25t-32.5 -19.5t-21.5 -1q-23 88 -48.5 174t-31.5 179q-2 29 -1 55t3 53q-31 -25 -61.5 -48.5t-57 -41.5t-46 -29.5t-28.5 -11.5q-61 4 -89.5 67.5t-34 146.5z" />
<glyph unicode="&#xbf;" horiz-adv-x="1214" d="M-60 19q-14 49 7.5 106.5t59.5 113.5t82 105.5t75 83.5q39 45 81.5 89.5t85.5 88.5t83 90t73 97q-29 -20 -45 -31q-10 -6 -22.5 -17t-18.5 -1q-6 2 4 12q43 66 113.5 119t134.5 100q2 0 2 1t2 1l6 6q10 6 27.5 21.5t37 29t39 23.5t33.5 8q4 -4 5 -4q-10 -31 -30 -59.5 t-42.5 -54t-47 -50t-44.5 -47.5q-76 -82 -152 -162.5t-141 -168.5q-20 -25 -41 -53.5t-36 -58.5t-21.5 -61.5t4.5 -66.5q6 -23 54 -37t106.5 -21.5t111.5 -11.5t72 -6q31 -4 60.5 -8t60.5 -8q78 -10 157.5 -14.5t157.5 6.5q0 31 -16.5 44t-40 19t-48 10t-43.5 17 q-18 12 -31.5 29.5t-28.5 33t-31.5 25.5t-41.5 6q10 31 48 71t86.5 77.5t96.5 69.5t79 46q25 4 41 -6t31.5 -25.5t28.5 -33t32 -29.5q14 -10 31.5 -14t35 -7.5t34.5 -8.5t32 -15q16 -14 18 -40t-2 -44q-18 -55 -44.5 -97t-60.5 -78t-72 -69t-81 -69q-98 -86 -188 -126 t-183.5 -51.5t-197 -1t-230.5 26.5q-20 2 -74.5 5t-112.5 11.5t-106.5 23.5t-54.5 40zM415 1262q10 31 48 71t86.5 77.5t96.5 69.5t79 46q35 -41 65.5 -90t32.5 -102q4 0 8 -4q-2 -2 -2 -4.5t-2 -4.5q-14 -25 -56 -65.5t-90 -82.5t-94.5 -74t-72.5 -36q-12 10 -15.5 43 t-11.5 50q-14 29 -31.5 55t-40.5 51z" />
<glyph unicode="&#xc0;" horiz-adv-x="1452" d="M-416 1087q0 10 18.5 31t42 42.5t45 40t27.5 24.5q55 47 94 74.5t78 43.5l11 11q2 0 2 -4q39 16 86 23t118 16q117 14 231 21t230 20q35 4 67 9t66 9q104 20 205 46t197 75q88 68 134 97.5t63.5 22t15.5 -55.5t-6 -138q-2 -39 -4 -77t-5 -75q66 16 130.5 29.5t130.5 28.5 q20 4 9 -13.5t-34 -39t-46 -40.5l-22 -20q-41 -35 -81.5 -69.5t-88.5 -63.5v-29.5t2 -29.5q16 -350 69.5 -693.5t113.5 -691.5q-8 -25 -34 -52.5t-57.5 -55t-63.5 -51t-52 -39.5q-4 -2 -19.5 -14.5t-33 -25t-32.5 -19.5t-22 -1q-59 344 -112 689t-70 696q-4 59 -3 119.5 t3 119.5q-164 -39 -325.5 -84t-321.5 -102q33 -106 56.5 -214t45.5 -212q6 -29 17.5 -70t20.5 -84t14.5 -83t-0.5 -68v-2q0 -2 2 -4l-7 -7q-12 -25 -38.5 -51t-57.5 -52t-60.5 -48.5t-47.5 -36.5q-4 -2 -18.5 -14.5t-32 -24.5t-33 -19t-21.5 -1q-4 10 -8 21l-8 22q4 4 7 10 t9 12q-6 59 -23.5 126t-27.5 114q-29 133 -59.5 271t-81.5 269q-16 -8 -33 -15t-33 -15t-22 -7t10 21q14 16 27.5 30.5t29.5 31.5q-35 86 -92 167q-29 41 -85 72t-105 33q-20 2 -42 -2t-42 4q-12 6 -17 22zM-403.5 1093q-2.5 -1 0.5 -1q2 0 3 1t3 1q-4 0 -6.5 -1zM223 1161 q4 -8 8 -12q18 -33 34 -66.5t32 -68.5q170 78 345 139t355 113q2 10 1 17t1 17q0 6 2.5 20.5t4.5 33t2 35t-4 26.5t-23 2q-86 -61 -177 -105t-186.5 -74t-194.5 -47t-200 -30zM284 1822q2 2 3 2.5t4 2.5v2q14 23 54 62.5t86 79.5t91 72.5t74 41.5q4 4 8 6q0 -4 2 -4h30.5 t30.5 -2q-4 -16 -26 -45q39 -35 104.5 -76t135 -78t131 -67.5t94.5 -45.5q-10 -31 -48 -70.5t-86.5 -77.5t-96.5 -70t-79 -46q-25 12 -68.5 32.5t-96 47.5t-107.5 57.5t-103.5 61.5t-83 60.5t-44.5 53.5h-9zM993 1427h2h-2zM995 1427l2 3z" />
<glyph unicode="&#xc1;" horiz-adv-x="1452" d="M-416 1087q0 10 18.5 31t42 42.5t45 40t27.5 24.5q55 47 94 74.5t78 43.5l11 11q2 0 2 -4q39 16 86 23t118 16q117 14 231 21t230 20q35 4 67 9t66 9q104 20 205 46t197 75q88 68 134 97.5t63.5 22t15.5 -55.5t-6 -138q-2 -39 -4 -77t-5 -75q66 16 130.5 29.5t130.5 28.5 q20 4 9 -13.5t-34 -39t-46 -40.5l-22 -20q-41 -35 -81.5 -69.5t-88.5 -63.5v-29.5t2 -29.5q16 -350 69.5 -693.5t113.5 -691.5q-8 -25 -34 -52.5t-57.5 -55t-63.5 -51t-52 -39.5q-4 -2 -19.5 -14.5t-33 -25t-32.5 -19.5t-22 -1q-59 344 -112 689t-70 696q-4 59 -3 119.5 t3 119.5q-164 -39 -325.5 -84t-321.5 -102q33 -106 56.5 -214t45.5 -212q6 -29 17.5 -70t20.5 -84t14.5 -83t-0.5 -68v-2q0 -2 2 -4l-7 -7q-12 -25 -38.5 -51t-57.5 -52t-60.5 -48.5t-47.5 -36.5q-4 -2 -18.5 -14.5t-32 -24.5t-33 -19t-21.5 -1q-4 10 -8 21l-8 22q4 4 7 10 t9 12q-6 59 -23.5 126t-27.5 114q-29 133 -59.5 271t-81.5 269q-16 -8 -33 -15t-33 -15t-22 -7t10 21q14 16 27.5 30.5t29.5 31.5q-35 86 -92 167q-29 41 -85 72t-105 33q-20 2 -42 -2t-42 4q-12 6 -17 22zM-403.5 1093q-2.5 -1 0.5 -1q2 0 3 1t3 1q-4 0 -6.5 -1zM223 1161 q4 -8 8 -12q18 -33 34 -66.5t32 -68.5q170 78 345 139t355 113q2 10 1 17t1 17q0 6 2.5 20.5t4.5 33t2 35t-4 26.5t-23 2q-86 -61 -177 -105t-186.5 -74t-194.5 -47t-200 -30zM381 1493q4 16 10.5 29l12.5 25q35 51 85 93t97 81q2 0 24.5 18.5t47 36.5t43 26.5t12.5 -10.5 q-4 -10 -10.5 -19t-8.5 -20q8 -6 21 -6q70 78 144.5 148.5t166.5 122.5q10 6 22.5 17t18.5 1q6 -2 -4 -12q-23 -35 -53.5 -65.5t-65.5 -59.5q-18 -23 -36.5 -43.5t-39.5 -42.5q-74 -78 -159.5 -152.5t-182.5 -130.5q-12 -8 -30.5 -18t-38 -17.5t-39 -10.5t-33.5 5zM764 1772 q-4 -2 1 1t9 5q-4 -2 -5 -3t-5 -3zM993 1427h2h-2zM995 1427l2 3z" />
<glyph unicode="&#xc2;" horiz-adv-x="1452" d="M-416 1087q0 10 18.5 31t42 42.5t45 40t27.5 24.5q55 47 94 74.5t78 43.5l11 11q2 0 2 -4q39 16 86 23t118 16q117 14 231 21t230 20q35 4 67 9t66 9q104 20 205 46t197 75q88 68 134 97.5t63.5 22t15.5 -55.5t-6 -138q-2 -39 -4 -77t-5 -75q66 16 130.5 29.5t130.5 28.5 q20 4 9 -13.5t-34 -39t-46 -40.5l-22 -20q-41 -35 -81.5 -69.5t-88.5 -63.5v-29.5t2 -29.5q16 -350 69.5 -693.5t113.5 -691.5q-8 -25 -34 -52.5t-57.5 -55t-63.5 -51t-52 -39.5q-4 -2 -19.5 -14.5t-33 -25t-32.5 -19.5t-22 -1q-59 344 -112 689t-70 696q-4 59 -3 119.5 t3 119.5q-164 -39 -325.5 -84t-321.5 -102q33 -106 56.5 -214t45.5 -212q6 -29 17.5 -70t20.5 -84t14.5 -83t-0.5 -68v-2q0 -2 2 -4l-7 -7q-12 -25 -38.5 -51t-57.5 -52t-60.5 -48.5t-47.5 -36.5q-4 -2 -18.5 -14.5t-32 -24.5t-33 -19t-21.5 -1q-4 10 -8 21l-8 22q4 4 7 10 t9 12q-6 59 -23.5 126t-27.5 114q-29 133 -59.5 271t-81.5 269q-16 -8 -33 -15t-33 -15t-22 -7t10 21q14 16 27.5 30.5t29.5 31.5q-35 86 -92 167q-29 41 -85 72t-105 33q-20 2 -42 -2t-42 4q-12 6 -17 22zM-403.5 1093q-2.5 -1 0.5 -1q2 0 3 1t3 1q-4 0 -6.5 -1zM223 1161 q4 -8 8 -12q18 -33 34 -66.5t32 -68.5q170 78 345 139t355 113q2 10 1 17t1 17q0 6 2.5 20.5t4.5 33t2 35t-4 26.5t-23 2q-86 -61 -177 -105t-186.5 -74t-194.5 -47t-200 -30zM305 1403q-2 14 15.5 40t40 52.5t46 50t33.5 35.5q33 37 60.5 76t56.5 76q27 33 81 88 t116.5 108.5t124 93.5t102.5 42q8 0 15 -9.5t12.5 -22.5t8.5 -24.5t3 -13.5q25 -66 50.5 -118t78.5 -99q-10 -31 -48 -71t-86 -77.5t-96.5 -69.5t-78.5 -46q-23 20 -43.5 41.5t-36.5 48.5q-16 31 -29.5 82t-32.5 86q-31 -35 -55.5 -66t-24.5 -45q-8 -25 -33.5 -52.5t-57 -55 t-63.5 -51t-52 -39.5q-4 -2 -19.5 -14.5t-33 -25t-33 -19.5t-21.5 -1zM848 1952q8 8 14 12q-4 -2 -14 -12zM993 1427h2h-2zM995 1427l2 3z" />
<glyph unicode="&#xc3;" horiz-adv-x="1452" d="M-416 1087q0 10 18.5 31t42 42.5t45 40t27.5 24.5q55 47 94 74.5t78 43.5l11 11q2 0 2 -4q39 16 86 23t118 16q117 14 231 21t230 20q35 4 67 9t66 9q104 20 205 46t197 75q88 68 134 97.5t63.5 22t15.5 -55.5t-6 -138q-2 -39 -4 -77t-5 -75q66 16 130.5 29.5t130.5 28.5 q20 4 9 -13.5t-34 -39t-46 -40.5l-22 -20q-41 -35 -81.5 -69.5t-88.5 -63.5v-29.5t2 -29.5q16 -350 69.5 -693.5t113.5 -691.5q-8 -25 -34 -52.5t-57.5 -55t-63.5 -51t-52 -39.5q-4 -2 -19.5 -14.5t-33 -25t-32.5 -19.5t-22 -1q-59 344 -112 689t-70 696q-4 59 -3 119.5 t3 119.5q-164 -39 -325.5 -84t-321.5 -102q33 -106 56.5 -214t45.5 -212q6 -29 17.5 -70t20.5 -84t14.5 -83t-0.5 -68v-2q0 -2 2 -4l-7 -7q-12 -25 -38.5 -51t-57.5 -52t-60.5 -48.5t-47.5 -36.5q-4 -2 -18.5 -14.5t-32 -24.5t-33 -19t-21.5 -1q-4 10 -8 21l-8 22q4 4 7 10 t9 12q-6 59 -23.5 126t-27.5 114q-29 133 -59.5 271t-81.5 269q-16 -8 -33 -15t-33 -15t-22 -7t10 21q14 16 27.5 30.5t29.5 31.5q-35 86 -92 167q-29 41 -85 72t-105 33q-20 2 -42 -2t-42 4q-12 6 -17 22zM-403.5 1093q-2.5 -1 0.5 -1q2 0 3 1t3 1q-4 0 -6.5 -1zM223 1161 q4 -8 8 -12q18 -33 34 -66.5t32 -68.5q170 78 345 139t355 113q2 10 1 17t1 17q0 6 2.5 20.5t4.5 33t2 35t-4 26.5t-23 2q-86 -61 -177 -105t-186.5 -74t-194.5 -47t-200 -30zM223 1502q2 14 12 24q23 35 44.5 69t43.5 62q14 18 43 49t67 65t82 67.5t85 60.5t77 41t60 8 q39 -8 71 -44t62.5 -70.5t64.5 -56t81 -1.5q18 12 35.5 24.5t33.5 22.5q35 20 39 17t-13.5 -21t-50 -47t-68.5 -59.5t-70.5 -60.5t-57.5 -46v-2q0 -2 -12 -10t-26.5 -17.5t-28 -16.5t-15.5 -9q-49 -31 -79.5 -41t-57.5 -1t-55.5 35.5t-69.5 69.5q-10 12 -27.5 28.5 t-35.5 29.5q-31 -27 -63 -53.5t-59.5 -49t-46 -37t-22.5 -16.5q-16 -10 -39 -21q-2 2 -2 3.5t-2 3.5zM819 1575q-4 -2 1 0t9 6q-8 -4 -10 -6zM993 1427h2h-2zM995 1427l2 3z" />
<glyph unicode="&#xc4;" horiz-adv-x="1452" d="M-416 1087q0 10 18.5 31t42 42.5t45 40t27.5 24.5q55 47 94 74.5t78 43.5l11 11q2 0 2 -4q39 16 86 23t118 16q117 14 231 21t230 20q35 4 67 9t66 9q104 20 205 46t197 75q88 68 134 97.5t63.5 22t15.5 -55.5t-6 -138q-2 -39 -4 -77t-5 -75q66 16 130.5 29.5t130.5 28.5 q20 4 9 -13.5t-34 -39t-46 -40.5l-22 -20q-41 -35 -81.5 -69.5t-88.5 -63.5v-29.5t2 -29.5q16 -350 69.5 -693.5t113.5 -691.5q-8 -25 -34 -52.5t-57.5 -55t-63.5 -51t-52 -39.5q-4 -2 -19.5 -14.5t-33 -25t-32.5 -19.5t-22 -1q-59 344 -112 689t-70 696q-4 59 -3 119.5 t3 119.5q-164 -39 -325.5 -84t-321.5 -102q33 -106 56.5 -214t45.5 -212q6 -29 17.5 -70t20.5 -84t14.5 -83t-0.5 -68v-2q0 -2 2 -4l-7 -7q-12 -25 -38.5 -51t-57.5 -52t-60.5 -48.5t-47.5 -36.5q-4 -2 -18.5 -14.5t-32 -24.5t-33 -19t-21.5 -1q-4 10 -8 21l-8 22q4 4 7 10 t9 12q-6 59 -23.5 126t-27.5 114q-29 133 -59.5 271t-81.5 269q-16 -8 -33 -15t-33 -15t-22 -7t10 21q14 16 27.5 30.5t29.5 31.5q-35 86 -92 167q-29 41 -85 72t-105 33q-20 2 -42 -2t-42 4q-12 6 -17 22zM-403.5 1093q-2.5 -1 0.5 -1q2 0 3 1t3 1q-4 0 -6.5 -1zM223 1161 q4 -8 8 -12q18 -33 34 -66.5t32 -68.5q170 78 345 139t355 113q2 10 1 17t1 17q0 6 2.5 20.5t4.5 33t2 35t-4 26.5t-23 2q-86 -61 -177 -105t-186.5 -74t-194.5 -47t-200 -30zM350 2009q-6 6 4 20.5t25.5 30t30 28t18.5 16.5q18 18 48 44.5t61.5 53.5t64.5 47.5t57 24.5 q6 -6 9 -31t4.5 -54.5t1.5 -58t2 -41.5q8 -49 20 -93t35 -85q4 49 13 90t26 70q31 53 83 96t99 78q20 18 43 36.5t44.5 32t40 18.5t34.5 -3q-12 -35 -55 -78v-4q-4 -31 -6.5 -62.5t-6.5 -64.5q-6 -96 -2 -189.5t21 -189.5q-8 -25 -34 -52.5t-57.5 -55t-63.5 -51t-52 -39.5 q-4 -2 -19.5 -14.5t-33 -25t-32.5 -19.5t-22 -1q-6 29 -11 70t-9 88q-53 -45 -108.5 -82t-90.5 -53q-76 66 -114.5 146.5t-55.5 178.5q-2 8 -3 37t-2 59.5t-3 56t-4 25.5zM993 1427h2h-2zM995 1427l2 3z" />
<glyph unicode="&#xc5;" horiz-adv-x="1452" d="M-416 1087q0 10 18.5 31t42 42.5t45 40t27.5 24.5q55 47 94 74.5t78 43.5l11 11q2 0 2 -4q39 16 86 23t118 16q117 14 231 21t230 20q35 4 67 9t66 9q104 20 205 46t197 75q88 68 134 97.5t63.5 22t15.5 -55.5t-6 -138q-2 -39 -4 -77t-5 -75q66 16 130.5 29.5t130.5 28.5 q20 4 9 -13.5t-34 -39t-46 -40.5l-22 -20q-41 -35 -81.5 -69.5t-88.5 -63.5v-29.5t2 -29.5q16 -350 69.5 -693.5t113.5 -691.5q-8 -25 -34 -52.5t-57.5 -55t-63.5 -51t-52 -39.5q-4 -2 -19.5 -14.5t-33 -25t-32.5 -19.5t-22 -1q-59 344 -112 689t-70 696q-4 59 -3 119.5 t3 119.5q-164 -39 -325.5 -84t-321.5 -102q33 -106 56.5 -214t45.5 -212q6 -29 17.5 -70t20.5 -84t14.5 -83t-0.5 -68v-2q0 -2 2 -4l-7 -7q-12 -25 -38.5 -51t-57.5 -52t-60.5 -48.5t-47.5 -36.5q-4 -2 -18.5 -14.5t-32 -24.5t-33 -19t-21.5 -1q-4 10 -8 21l-8 22q4 4 7 10 t9 12q-6 59 -23.5 126t-27.5 114q-29 133 -59.5 271t-81.5 269q-16 -8 -33 -15t-33 -15t-22 -7t10 21q14 16 27.5 30.5t29.5 31.5q-35 86 -92 167q-29 41 -85 72t-105 33q-20 2 -42 -2t-42 4q-12 6 -17 22zM-403.5 1093q-2.5 -1 0.5 -1q2 0 3 1t3 1q-4 0 -6.5 -1zM223 1161 q4 -8 8 -12q18 -33 34 -66.5t32 -68.5q170 78 345 139t355 113q2 10 1 17t1 17q0 6 2.5 20.5t4.5 33t2 35t-4 26.5t-23 2q-86 -61 -177 -105t-186.5 -74t-194.5 -47t-200 -30zM228 1733q2 23 30.5 61.5t71.5 86t95.5 95.5t100.5 91t87 74.5t55 44.5q14 10 31.5 24.5t37 24.5 t39 15t37.5 -1q-8 -25 -37.5 -57.5t-68.5 -66.5t-82 -65.5t-78 -52.5q-4 -12 -4 -16q0 -12 -1 -24.5t3 -24.5q10 -23 44 -51.5t80 -58t100.5 -57.5t103.5 -48q-16 43 -40 85t-53.5 79t-67.5 63.5t-83 36.5q-6 6 4.5 20.5t25.5 30t29.5 27.5t18.5 16q18 18 48 45t61.5 53.5 t64.5 47t57 24.5q72 -16 116 -63t81 -111q51 -80 71.5 -153.5t8.5 -167.5q-2 -16 -17.5 -36t-33.5 -40q-18 -23 -39 -40t-43 -34q-43 -41 -89 -81t-96.5 -68.5t-107.5 -39t-121 8.5q-29 8 -73 23.5t-93 37t-99 48t-90 57.5t-63.5 65.5t-21.5 71.5zM877 1483q-6 -6 10 6 q-8 -4 -10 -6zM993 1427h2h-2zM995 1427l2 3z" />
<glyph unicode="&#xc6;" horiz-adv-x="2095" d="M-211 -199q-6 43 1 107.5t20.5 140.5t32 157t39 155.5t40 140t33.5 108.5q49 143 110.5 280.5t137.5 266.5q49 88 103 169t120 155q10 14 31.5 37.5t49.5 50t59.5 54.5t62.5 52q27 23 61.5 49.5t63.5 24.5q14 0 29.5 -10t27.5 -15q47 -20 92 -37.5t88 -46.5 q84 -49 166 -104t174 -84q98 -31 200.5 -30t204 19.5t200 48.5t192.5 58q20 4 9 -13t-33.5 -38.5t-45.5 -40.5l-22 -20q-47 -41 -96.5 -82t-108.5 -68q-115 -35 -222.5 -65.5t-211 -46t-205.5 -9.5t-209 43q25 -74 47.5 -147.5t40.5 -145.5q117 -4 234.5 -13t235.5 -18.5 t235.5 -14.5t236.5 -1q-10 -31 -48 -70.5t-86 -77.5t-96 -70t-79 -46q-143 -4 -284.5 3t-282.5 20q12 -63 21 -135t12.5 -144t-1 -142.5t-22.5 -131.5q106 74 221 140.5t235.5 111.5t247.5 59t256 -12q55 -12 91 -24.5t67 -29t63.5 -38t79.5 -52.5q-10 -31 -48 -70.5 t-86 -77.5t-96 -69.5t-79 -46.5q-37 23 -71.5 48.5t-75.5 43.5q-104 49 -214 61.5t-219.5 -3t-215 -55.5t-203.5 -95q-25 -37 -56.5 -67.5t-60.5 -65.5l-43 -43q6 0 14 -4q-10 -31 -48 -71t-86 -77.5t-96 -69.5t-79 -46q-12 4 -25.5 6t-27.5 6q-2 2 -2 3t-2 3q-2 8 -6 15.5 t0 15.5q8 27 33.5 60.5t61.5 70.5t78 73t83 68q27 104 19.5 216t-19.5 210q-25 176 -78 385q-39 2 -76 2h-74q-55 0 -96 -2t-79 -5t-79 -10t-96 -15q-16 -4 -32.5 -8.5t-32.5 -8.5q-14 -55 -26.5 -112.5t-23.5 -114.5q-14 -72 -31.5 -147.5t-13.5 -149.5q29 14 21 -6 q-4 -6 -10.5 -13.5t-12.5 -15.5q-43 -53 -95 -99t-107 -87q-4 -2 -19.5 -14.5t-33 -24.5t-33 -19.5t-21.5 -1.5zM240 768q29 23 55.5 38t48.5 19q55 6 107.5 27t105.5 33q29 8 60.5 13t66.5 9q-41 123 -91 239t-104 220q-12 -23 -24 -46.5t-25 -47.5q-63 -123 -112 -249 t-88 -255z" />
<glyph unicode="&#xc7;" horiz-adv-x="1288" d="M14 305q-27 262 48 504t264 424q31 29 69.5 66.5t81.5 73.5t87 64.5t85 41.5q6 2 29.5 7t46.5 7q6 4 12 5t11 3q0 -2 -1.5 -4t-1.5 -4q16 -2 22.5 -10.5t-7.5 -28.5q-6 -8 -11.5 -14t-11.5 -15q-2 -10 -2 -17v-17q2 -92 35 -191.5t90.5 -187.5t133 -159t163.5 -103 q27 -10 54.5 -13.5t56.5 -9.5q-10 -31 -48 -71t-86.5 -77.5t-96.5 -69.5t-79 -46q-29 6 -56.5 9t-53.5 13q-90 33 -167 105t-133 162t-90 189t-36 189q0 18 2 37t4 37q-4 -10 -9 -20t-9 -21q-59 -139 -79 -293.5t-3 -306.5q8 -82 34.5 -172t75.5 -163.5t124 -117.5t177 -34 q59 6 105.5 23.5t86.5 44t79 57t84 65.5q14 10 33.5 24.5t35.5 20.5q14 6 15.5 2t-8 -15t-23.5 -27.5t-31 -30.5q-35 -33 -71.5 -64t-75.5 -61q-68 -49 -149 -115t-171 -116t-185 -70.5t-192 20.5q-80 35 -133 112t-82 154q-33 98 -43 205zM187 -559q-6 6 4 20.5t25.5 29.5 t29.5 27.5t18 16.5q18 18 48 45t62 53.5t64.5 47t57.5 24.5q31 0 60.5 -3t58.5 -7q-29 16 -63 26.5t-69 8.5q-6 0 -25.5 -6.5t-38.5 -10.5t-32.5 -1t-7.5 22q12 33 31.5 61.5t36.5 57.5q16 29 34.5 54t34.5 52q41 43 83 82t87 74q2 0 24.5 18.5t47 36.5t43 26.5t12.5 -10.5 q-14 -23 -33.5 -47t-37 -51t-32 -54.5t-20.5 -53.5q8 -8 25.5 -6.5t36 7t38 10.5t31.5 3q72 -8 127.5 -53t92.5 -105q27 -43 28.5 -79t-15 -66.5t-45 -59t-61.5 -57.5q-31 -27 -64.5 -57.5t-70.5 -59t-77 -50t-80 -28.5q-57 -8 -116 0.5t-118 21.5t-118.5 26.5t-116.5 13.5z M670 1352l6 6z" />
<glyph unicode="&#xc8;" horiz-adv-x="1490" d="M-594 -369q-4 8 8.5 24.5t29.5 35t34.5 35t21.5 20.5q51 47 100.5 88t101.5 72t110.5 50t128.5 26q16 2 33.5 2h33.5q147 57 289.5 125.5t282.5 134.5q102 47 206.5 93t208.5 95q-55 -6 -106 -13t-70 -9q-86 -8 -180 -16.5t-188.5 -8.5t-186.5 12.5t-176 46.5 q-80 33 -122 88.5t-55 125t-2 145.5t38 147q41 109 106.5 200t146.5 170t172 146.5t181 130.5q2 2 11 9.5t20.5 14.5t22.5 13t16 8q23 8 45 18.5t45.5 18t46 11.5t45.5 0q45 -8 89 -11.5t85 -23.5q45 -23 93 -61t89 -86t71 -102.5t40 -107.5q-8 -25 -34 -52t-57.5 -55 t-63.5 -51.5t-52 -39.5q-4 -2 -19.5 -14.5t-33 -24.5t-32.5 -19.5t-22 -1.5q-14 72 -61 142.5t-111.5 126t-141.5 88.5t-148 28q-35 -2 -67 -14t-67 -22q-39 -47 -70.5 -108.5t-52 -127.5t-24.5 -132.5t12.5 -125.5t57.5 -108.5t112 -77.5q84 -35 176.5 -47.5t186.5 -12.5 t188 8.5t180 16.5q18 2 68.5 9t105 14.5t102.5 10.5t64 -3q-10 -29 -41.5 -63t-69.5 -65.5t-78 -59.5t-65 -46q-104 -74 -215.5 -138.5t-227.5 -122.5t-233.5 -111.5t-234.5 -108.5q-16 -8 -34.5 -15.5t-35.5 -15.5q92 -18 186.5 -47t187.5 -59.5t183.5 -58t176.5 -44.5 q160 -33 321.5 -40t322.5 0t322.5 25.5t321.5 37.5q-10 -31 -48 -71t-86 -78t-96.5 -69.5t-78.5 -46.5q-125 -14 -251 -29.5t-252 -25.5t-253 -13t-254 7q-166 12 -324.5 49t-318.5 84q-139 43 -278.5 88t-286.5 51q-4 0 -9.5 1t-9.5 1q-74 -29 -148.5 -53t-150.5 -43 q0 2 -4 6zM319 2023q2 2 3 2.5t4 2.5v2q14 23 54 62.5t86 79.5t91 72.5t74 41.5q4 4 8 6q0 -4 2 -4h30.5t30.5 -2q-4 -16 -26 -45q39 -35 104.5 -76t135 -78t131 -67.5t94.5 -45.5q-10 -31 -48 -70.5t-86.5 -77.5t-96.5 -70t-79 -46q-25 12 -68.5 32.5t-96 47.5t-107.5 57.5 t-103.5 61.5t-83 60.5t-44.5 53.5h-9z" />
<glyph unicode="&#xc9;" horiz-adv-x="1490" d="M-594 -369q-4 8 8.5 24.5t29.5 35t34.5 35t21.5 20.5q51 47 100.5 88t101.5 72t110.5 50t128.5 26q16 2 33.5 2h33.5q147 57 289.5 125.5t282.5 134.5q102 47 206.5 93t208.5 95q-55 -6 -106 -13t-70 -9q-86 -8 -180 -16.5t-188.5 -8.5t-186.5 12.5t-176 46.5 q-80 33 -122 88.5t-55 125t-2 145.5t38 147q41 109 106.5 200t146.5 170t172 146.5t181 130.5q2 2 11 9.5t20.5 14.5t22.5 13t16 8q23 8 45 18.5t45.5 18t46 11.5t45.5 0q45 -8 89 -11.5t85 -23.5q45 -23 93 -61t89 -86t71 -102.5t40 -107.5q-8 -25 -34 -52t-57.5 -55 t-63.5 -51.5t-52 -39.5q-4 -2 -19.5 -14.5t-33 -24.5t-32.5 -19.5t-22 -1.5q-14 72 -61 142.5t-111.5 126t-141.5 88.5t-148 28q-35 -2 -67 -14t-67 -22q-39 -47 -70.5 -108.5t-52 -127.5t-24.5 -132.5t12.5 -125.5t57.5 -108.5t112 -77.5q84 -35 176.5 -47.5t186.5 -12.5 t188 8.5t180 16.5q18 2 68.5 9t105 14.5t102.5 10.5t64 -3q-10 -29 -41.5 -63t-69.5 -65.5t-78 -59.5t-65 -46q-104 -74 -215.5 -138.5t-227.5 -122.5t-233.5 -111.5t-234.5 -108.5q-16 -8 -34.5 -15.5t-35.5 -15.5q92 -18 186.5 -47t187.5 -59.5t183.5 -58t176.5 -44.5 q160 -33 321.5 -40t322.5 0t322.5 25.5t321.5 37.5q-10 -31 -48 -71t-86 -78t-96.5 -69.5t-78.5 -46.5q-125 -14 -251 -29.5t-252 -25.5t-253 -13t-254 7q-166 12 -324.5 49t-318.5 84q-139 43 -278.5 88t-286.5 51q-4 0 -9.5 1t-9.5 1q-74 -29 -148.5 -53t-150.5 -43 q0 2 -4 6zM416 1677q4 16 10.5 29l12.5 25q35 51 85 93t97 81q2 0 24.5 18.5t47 36.5t43 26.5t12.5 -10.5q-4 -10 -10.5 -19t-8.5 -20q8 -6 21 -6q70 78 144.5 148.5t166.5 122.5q10 6 22.5 17t18.5 1q6 -2 -4 -12q-23 -35 -53.5 -65.5t-65.5 -59.5q-18 -23 -36.5 -43.5 t-39.5 -42.5q-74 -78 -159.5 -152.5t-182.5 -130.5q-12 -8 -30.5 -18t-38 -17.5t-39 -10.5t-33.5 5zM799 1956q-4 -2 1 1t9 5q-4 -2 -5 -3t-5 -3z" />
<glyph unicode="&#xca;" horiz-adv-x="1490" d="M-594 -369q-4 8 8.5 24.5t29.5 35t34.5 35t21.5 20.5q51 47 100.5 88t101.5 72t110.5 50t128.5 26q16 2 33.5 2h33.5q147 57 289.5 125.5t282.5 134.5q102 47 206.5 93t208.5 95q-55 -6 -106 -13t-70 -9q-86 -8 -180 -16.5t-188.5 -8.5t-186.5 12.5t-176 46.5 q-80 33 -122 88.5t-55 125t-2 145.5t38 147q41 109 106.5 200t146.5 170t172 146.5t181 130.5q2 2 11 9.5t20.5 14.5t22.5 13t16 8q23 8 45 18.5t45.5 18t46 11.5t45.5 0q45 -8 89 -11.5t85 -23.5q45 -23 93 -61t89 -86t71 -102.5t40 -107.5q-8 -25 -34 -52t-57.5 -55 t-63.5 -51.5t-52 -39.5q-4 -2 -19.5 -14.5t-33 -24.5t-32.5 -19.5t-22 -1.5q-14 72 -61 142.5t-111.5 126t-141.5 88.5t-148 28q-35 -2 -67 -14t-67 -22q-39 -47 -70.5 -108.5t-52 -127.5t-24.5 -132.5t12.5 -125.5t57.5 -108.5t112 -77.5q84 -35 176.5 -47.5t186.5 -12.5 t188 8.5t180 16.5q18 2 68.5 9t105 14.5t102.5 10.5t64 -3q-10 -29 -41.5 -63t-69.5 -65.5t-78 -59.5t-65 -46q-104 -74 -215.5 -138.5t-227.5 -122.5t-233.5 -111.5t-234.5 -108.5q-16 -8 -34.5 -15.5t-35.5 -15.5q92 -18 186.5 -47t187.5 -59.5t183.5 -58t176.5 -44.5 q160 -33 321.5 -40t322.5 0t322.5 25.5t321.5 37.5q-10 -31 -48 -71t-86 -78t-96.5 -69.5t-78.5 -46.5q-125 -14 -251 -29.5t-252 -25.5t-253 -13t-254 7q-166 12 -324.5 49t-318.5 84q-139 43 -278.5 88t-286.5 51q-4 0 -9.5 1t-9.5 1q-74 -29 -148.5 -53t-150.5 -43 q0 2 -4 6zM334 1638q-2 14 15.5 40t40 52.5t46 50t33.5 35.5q33 37 60.5 76t56.5 76q27 33 81 88t116.5 108.5t124 93.5t102.5 42q8 0 15 -9.5t12.5 -22.5t8.5 -24.5t3 -13.5q25 -66 50.5 -118t78.5 -99q-10 -31 -48 -71t-86 -77.5t-96.5 -69.5t-78.5 -46q-23 20 -43.5 41.5 t-36.5 48.5q-16 31 -29.5 82t-32.5 86q-31 -35 -55.5 -66t-24.5 -45q-8 -25 -33.5 -52.5t-57 -55t-63.5 -51t-52 -39.5q-4 -2 -19.5 -14.5t-33 -25t-33 -19.5t-21.5 -1zM877 2187q8 8 14 12q-4 -2 -14 -12z" />
<glyph unicode="&#xcb;" horiz-adv-x="1490" d="M-594 -369q-4 8 8.5 24.5t29.5 35t34.5 35t21.5 20.5q51 47 100.5 88t101.5 72t110.5 50t128.5 26q16 2 33.5 2h33.5q147 57 289.5 125.5t282.5 134.5q102 47 206.5 93t208.5 95q-55 -6 -106 -13t-70 -9q-86 -8 -180 -16.5t-188.5 -8.5t-186.5 12.5t-176 46.5 q-80 33 -122 88.5t-55 125t-2 145.5t38 147q41 109 106.5 200t146.5 170t172 146.5t181 130.5q2 2 11 9.5t20.5 14.5t22.5 13t16 8q23 8 45 18.5t45.5 18t46 11.5t45.5 0q45 -8 89 -11.5t85 -23.5q45 -23 93 -61t89 -86t71 -102.5t40 -107.5q-8 -25 -34 -52t-57.5 -55 t-63.5 -51.5t-52 -39.5q-4 -2 -19.5 -14.5t-33 -24.5t-32.5 -19.5t-22 -1.5q-14 72 -61 142.5t-111.5 126t-141.5 88.5t-148 28q-35 -2 -67 -14t-67 -22q-39 -47 -70.5 -108.5t-52 -127.5t-24.5 -132.5t12.5 -125.5t57.5 -108.5t112 -77.5q84 -35 176.5 -47.5t186.5 -12.5 t188 8.5t180 16.5q18 2 68.5 9t105 14.5t102.5 10.5t64 -3q-10 -29 -41.5 -63t-69.5 -65.5t-78 -59.5t-65 -46q-104 -74 -215.5 -138.5t-227.5 -122.5t-233.5 -111.5t-234.5 -108.5q-16 -8 -34.5 -15.5t-35.5 -15.5q92 -18 186.5 -47t187.5 -59.5t183.5 -58t176.5 -44.5 q160 -33 321.5 -40t322.5 0t322.5 25.5t321.5 37.5q-10 -31 -48 -71t-86 -78t-96.5 -69.5t-78.5 -46.5q-125 -14 -251 -29.5t-252 -25.5t-253 -13t-254 7q-166 12 -324.5 49t-318.5 84q-139 43 -278.5 88t-286.5 51q-4 0 -9.5 1t-9.5 1q-74 -29 -148.5 -53t-150.5 -43 q0 2 -4 6zM328 2283q-6 6 4 20.5t25.5 30t30 28t18.5 16.5q18 18 48 44.5t61.5 53.5t64.5 47.5t57 24.5q6 -6 9 -31t4.5 -54.5t1.5 -58t2 -41.5q8 -49 20 -93t35 -85q4 49 13 90t26 70q31 53 83 96t99 78q20 18 43 36.5t44.5 32t40 18.5t34.5 -3q-12 -35 -55 -78v-4 q-4 -31 -6.5 -62.5t-6.5 -64.5q-6 -96 -2 -189.5t21 -189.5q-8 -25 -34 -52.5t-57.5 -55t-63.5 -51t-52 -39.5q-4 -2 -19.5 -14.5t-33 -25t-32.5 -19.5t-22 -1q-6 29 -11 70t-9 88q-53 -45 -108.5 -82t-90.5 -53q-76 66 -114.5 146.5t-55.5 178.5q-2 8 -3 37t-2 59.5t-3 56 t-4 25.5z" />
<glyph unicode="&#xcc;" horiz-adv-x="964" d="M-170 1327q53 78 137 144.5t164 113.5q45 18 94 19.5t98.5 -5t98.5 -16.5t94 -16q2 0 3 -1t5 -1q10 8 23.5 15t25.5 15q16 4 21 4q4 2 12 3q0 -12 -1 -24.5t-3 -23.5q113 -14 224.5 -19t224.5 -1q-10 -31 -48 -71t-86.5 -77.5t-96.5 -69.5t-79 -46q-61 -2 -122.5 -2 t-122.5 4q-12 -29 -19 -64q-29 -119 -44 -234.5t-14 -228t22.5 -224t70.5 -220.5q123 41 246 65.5t254 28.5q-10 -31 -48 -70.5t-86.5 -77.5t-96.5 -70t-79 -46q-55 -2 -108 -7t-107 -15q-35 -31 -72.5 -58.5t-60.5 -46.5q-4 -2 -19.5 -14.5t-32.5 -24.5t-32.5 -19t-21.5 -1 q-14 23 -25.5 45t-21.5 45q-27 -10 -53.5 -19.5t-53.5 -19.5q-4 -2 -33.5 -14.5t-64.5 -23.5t-66 -18t-39 -1q-6 6 4.5 20t26 29.5t29.5 28t18 16.5q14 12 35 31.5t45.5 41t49 41t48.5 33.5q-53 188 -41.5 381t58.5 393q10 43 28.5 84l37 82t36 84t23.5 86q-23 4 -42.5 6 t-39.5 7q-59 10 -129 24t-137 14q-20 -14 -37 -23t-31 -15q-23 8 -27 8t-12 10h-2h2q-2 2 -2 3t-2 3zM73 1976q2 2 3 2.5t4 2.5v2q14 23 54 62.5t86 79.5t91 72.5t74 41.5q4 4 8 6q0 -4 2 -4h30.5t30.5 -2q-4 -16 -26 -45q39 -35 104.5 -76t135 -78t131 -67.5t94.5 -45.5 q-10 -31 -48 -70.5t-86.5 -77.5t-96.5 -70t-79 -46q-25 12 -68.5 32.5t-96 47.5t-107.5 57.5t-103.5 61.5t-83 60.5t-44.5 53.5h-9z" />
<glyph unicode="&#xcd;" horiz-adv-x="964" d="M-170 1327q53 78 137 144.5t164 113.5q45 18 94 19.5t98.5 -5t98.5 -16.5t94 -16q2 0 3 -1t5 -1q10 8 23.5 15t25.5 15q16 4 21 4q4 2 12 3q0 -12 -1 -24.5t-3 -23.5q113 -14 224.5 -19t224.5 -1q-10 -31 -48 -71t-86.5 -77.5t-96.5 -69.5t-79 -46q-61 -2 -122.5 -2 t-122.5 4q-12 -29 -19 -64q-29 -119 -44 -234.5t-14 -228t22.5 -224t70.5 -220.5q123 41 246 65.5t254 28.5q-10 -31 -48 -70.5t-86.5 -77.5t-96.5 -70t-79 -46q-55 -2 -108 -7t-107 -15q-35 -31 -72.5 -58.5t-60.5 -46.5q-4 -2 -19.5 -14.5t-32.5 -24.5t-32.5 -19t-21.5 -1 q-14 23 -25.5 45t-21.5 45q-27 -10 -53.5 -19.5t-53.5 -19.5q-4 -2 -33.5 -14.5t-64.5 -23.5t-66 -18t-39 -1q-6 6 4.5 20t26 29.5t29.5 28t18 16.5q14 12 35 31.5t45.5 41t49 41t48.5 33.5q-53 188 -41.5 381t58.5 393q10 43 28.5 84l37 82t36 84t23.5 86q-23 4 -42.5 6 t-39.5 7q-59 10 -129 24t-137 14q-20 -14 -37 -23t-31 -15q-23 8 -27 8t-12 10h-2h2q-2 2 -2 3t-2 3zM182 1667q4 16 10.5 29l12.5 25q35 51 85 93t97 81q2 0 24.5 18.5t47 36.5t43 26.5t12.5 -10.5q-4 -10 -10.5 -19t-8.5 -20q8 -6 21 -6q70 78 144.5 148.5t166.5 122.5 q10 6 22.5 17t18.5 1q6 -2 -4 -12q-23 -35 -53.5 -65.5t-65.5 -59.5q-18 -23 -36.5 -43.5t-39.5 -42.5q-74 -78 -159.5 -152.5t-182.5 -130.5q-12 -8 -30.5 -18t-38 -17.5t-39 -10.5t-33.5 5zM565 1946q-4 -2 1 1t9 5q-4 -2 -5 -3t-5 -3z" />
<glyph unicode="&#xce;" horiz-adv-x="964" d="M-170 1327q53 78 137 144.5t164 113.5q45 18 94 19.5t98.5 -5t98.5 -16.5t94 -16q2 0 3 -1t5 -1q10 8 23.5 15t25.5 15q16 4 21 4q4 2 12 3q0 -12 -1 -24.5t-3 -23.5q113 -14 224.5 -19t224.5 -1q-10 -31 -48 -71t-86.5 -77.5t-96.5 -69.5t-79 -46q-61 -2 -122.5 -2 t-122.5 4q-12 -29 -19 -64q-29 -119 -44 -234.5t-14 -228t22.5 -224t70.5 -220.5q123 41 246 65.5t254 28.5q-10 -31 -48 -70.5t-86.5 -77.5t-96.5 -70t-79 -46q-55 -2 -108 -7t-107 -15q-35 -31 -72.5 -58.5t-60.5 -46.5q-4 -2 -19.5 -14.5t-32.5 -24.5t-32.5 -19t-21.5 -1 q-14 23 -25.5 45t-21.5 45q-27 -10 -53.5 -19.5t-53.5 -19.5q-4 -2 -33.5 -14.5t-64.5 -23.5t-66 -18t-39 -1q-6 6 4.5 20t26 29.5t29.5 28t18 16.5q14 12 35 31.5t45.5 41t49 41t48.5 33.5q-53 188 -41.5 381t58.5 393q10 43 28.5 84l37 82t36 84t23.5 86q-23 4 -42.5 6 t-39.5 7q-59 10 -129 24t-137 14q-20 -14 -37 -23t-31 -15q-23 8 -27 8t-12 10h-2h2q-2 2 -2 3t-2 3zM74 1624q-2 14 15.5 40t40 52.5t46 50t33.5 35.5q33 37 60.5 76t56.5 76q27 33 81 88t116.5 108.5t124 93.5t102.5 42q8 0 15 -9.5t12.5 -22.5t8.5 -24.5t3 -13.5 q25 -66 50.5 -118t78.5 -99q-10 -31 -48 -71t-86 -77.5t-96.5 -69.5t-78.5 -46q-23 20 -43.5 41.5t-36.5 48.5q-16 31 -29.5 82t-32.5 86q-31 -35 -55.5 -66t-24.5 -45q-8 -25 -33.5 -52.5t-57 -55t-63.5 -51t-52 -39.5q-4 -2 -19.5 -14.5t-33 -25t-33 -19.5t-21.5 -1z M617 2173q8 8 14 12q-4 -2 -14 -12z" />
<glyph unicode="&#xcf;" horiz-adv-x="964" d="M-170 1327q53 78 137 144.5t164 113.5q45 18 94 19.5t98.5 -5t98.5 -16.5t94 -16q2 0 3 -1t5 -1q10 8 23.5 15t25.5 15q16 4 21 4q4 2 12 3q0 -12 -1 -24.5t-3 -23.5q113 -14 224.5 -19t224.5 -1q-10 -31 -48 -71t-86.5 -77.5t-96.5 -69.5t-79 -46q-61 -2 -122.5 -2 t-122.5 4q-12 -29 -19 -64q-29 -119 -44 -234.5t-14 -228t22.5 -224t70.5 -220.5q123 41 246 65.5t254 28.5q-10 -31 -48 -70.5t-86.5 -77.5t-96.5 -70t-79 -46q-55 -2 -108 -7t-107 -15q-35 -31 -72.5 -58.5t-60.5 -46.5q-4 -2 -19.5 -14.5t-32.5 -24.5t-32.5 -19t-21.5 -1 q-14 23 -25.5 45t-21.5 45q-27 -10 -53.5 -19.5t-53.5 -19.5q-4 -2 -33.5 -14.5t-64.5 -23.5t-66 -18t-39 -1q-6 6 4.5 20t26 29.5t29.5 28t18 16.5q14 12 35 31.5t45.5 41t49 41t48.5 33.5q-53 188 -41.5 381t58.5 393q10 43 28.5 84l37 82t36 84t23.5 86q-23 4 -42.5 6 t-39.5 7q-59 10 -129 24t-137 14q-20 -14 -37 -23t-31 -15q-23 8 -27 8t-12 10h-2h2q-2 2 -2 3t-2 3zM92 2220q-6 6 4 20.5t25.5 30t30 28t18.5 16.5q18 18 48 44.5t61.5 53.5t64.5 47.5t57 24.5q6 -6 9 -31t4.5 -54.5t1.5 -58t2 -41.5q8 -49 20 -93t35 -85q4 49 13 90 t26 70q31 53 83 96t99 78q20 18 43 36.5t44.5 32t40 18.5t34.5 -3q-12 -35 -55 -78v-4q-4 -31 -6.5 -62.5t-6.5 -64.5q-6 -96 -2 -189.5t21 -189.5q-8 -25 -34 -52.5t-57.5 -55t-63.5 -51t-52 -39.5q-4 -2 -19.5 -14.5t-33 -25t-32.5 -19.5t-22 -1q-6 29 -11 70t-9 88 q-53 -45 -108.5 -82t-90.5 -53q-76 66 -114.5 146.5t-55.5 178.5q-2 8 -3 37t-2 59.5t-3 56t-4 25.5z" />
<glyph unicode="&#xd0;" horiz-adv-x="1357" d="M-229 197q0 12 26.5 40.5t65.5 62.5t81 68.5t72 57.5q-51 190 -77.5 392t-22.5 399q2 55 25 98q-4 10 -5.5 18t-5.5 19q-4 12 -5 38.5t-3 54.5t-6 51.5t-10 29.5t4 20.5t25.5 29.5t30 27.5t18.5 16.5q18 18 47.5 45t61.5 53.5t64.5 47t57.5 24.5q8 -8 13 -31.5t7.5 -52.5 t3.5 -55.5t5 -40.5q2 -6 3 -13.5t3 -13.5q2 2 8 2q10 -20 10 -55q45 -113 127 -213q68 -84 160 -162t192.5 -155.5t200 -157.5t183 -168t144 -185.5t81.5 -209.5q16 -80 -4.5 -150t-63.5 -129t-100.5 -111.5t-112.5 -99.5q-141 -117 -286.5 -185.5t-292 -77.5t-291 45 t-285.5 181q-6 6 4 20.5t25.5 30t30 27.5t18.5 16q18 18 48 45t61.5 53.5t64.5 47t57 24.5q68 -59 138.5 -106t147.5 -77t161 -40t176 4q43 6 89 17.5t91 27.5q8 20 12 47q10 55 2 109.5t-27.5 107t-48 100.5t-59.5 91q-63 84 -138 156.5t-155.5 139t-164.5 131t-164 132.5 q16 -92 38.5 -181t53.5 -167q96 -8 187 -29.5t163 -44.5q-12 -35 -60 -82t-106 -90q-16 -31 -54 -68.5t-84 -74.5t-91 -66.5t-74 -42.5q-23 16 -43 29.5t-43 28.5q-27 16 -52.5 69t-47.5 107q-10 2 -21.5 2h-21.5q-63 0 -131 -13q-31 -23 -58.5 -38t-48.5 -25q-4 4 -13 11 t-11 16zM-215 205h2h-2z" />
<glyph unicode="&#xd1;" horiz-adv-x="1267" d="M-307 1370q16 23 56 64t87 81.5t93 72.5t73 38l4 4q0 -4 2 -4q37 -35 68 -74q4 2 6 2t6 2l2 3v-3q2 0 3 1.5t3 1.5q18 -33 29 -72q57 -90 99 -189.5t89 -191.5q57 -115 120 -225.5t134 -216.5q117 -172 250 -322q-29 123 -43 251t-14 259q0 63 2 104t8 76t17.5 73 t29.5 93q8 23 59.5 75t116 107.5t125 102.5t88.5 59q35 16 76 8t78 -10q-10 -27 -42 -62.5t-74 -70.5t-87 -66.5t-80 -50.5q-16 -98 -7 -201.5t17 -187.5q31 -317 137.5 -599t319.5 -519q2 0 6 -4q-2 0 -2 -1t-2 -1q-10 -25 -37.5 -55.5t-64.5 -63.5t-77 -62.5t-75 -50.5 q-10 -10 -21 -20t-22 -21q-4 4 -5 6.5t-5 4.5q-76 53 -155.5 95t-155.5 95q-174 123 -320.5 270.5t-273.5 317.5l16 -88t24.5 -111.5t32 -101.5t37.5 -58q-10 -31 -48 -70.5t-86 -77.5t-96 -69.5t-79 -46.5q-25 14 -44 66.5t-33.5 114t-24.5 119t-17 81.5q-43 211 -89 420 t-87 420q-14 84 -36.5 188.5t-26.5 198.5q-10 16 -22.5 29.5t-24.5 27.5q-10 -4 -15 2q-4 8 -11 15.5t-11 17.5zM131 1502q2 14 12 24q23 35 44.5 69t43.5 62q14 18 43 49t67 65t82 67.5t85 60.5t77 41t60 8q39 -8 71 -44t62.5 -70.5t64.5 -56t81 -1.5q18 12 35.5 24.5 t33.5 22.5q35 20 39 17t-13.5 -21t-50 -47t-68.5 -59.5t-70.5 -60.5t-57.5 -46v-2q0 -2 -12 -10t-26.5 -17.5t-28 -16.5t-15.5 -9q-49 -31 -79.5 -41t-57.5 -1t-55.5 35.5t-69.5 69.5q-10 12 -27.5 28.5t-35.5 29.5q-31 -27 -63 -53.5t-59.5 -49t-46 -37t-22.5 -16.5 q-16 -10 -39 -21q-2 2 -2 3.5t-2 3.5zM727 1575q-4 -2 1 0t9 6q-8 -4 -10 -6z" />
<glyph unicode="&#xd2;" horiz-adv-x="1275" d="M-25.5 134q5.5 81 13.5 147q10 86 23.5 193.5t36 217t58 208.5t93.5 169q31 37 67.5 69.5t71.5 63.5q25 23 49.5 44.5t50.5 41.5q-8 23 -6 48.5t-2 52.5q16 25 57 65.5t89.5 82.5t94.5 73.5t72 36.5q4 -27 3 -54.5t10 -54.5q12 -31 38.5 -67.5t57.5 -72.5t60.5 -68 t50.5 -54q51 -55 105 -114.5t102.5 -123t86 -133t56.5 -147.5q27 -104 9.5 -206.5t-68 -198t-124 -182.5t-160.5 -160.5t-180.5 -132t-179.5 -99.5q-51 -25 -110.5 -42.5t-121 -25.5t-121.5 -3t-116 28q-78 31 -113.5 95.5t-47 143t-6 159.5zM227 1710q2 2 3 2.5t4 2.5v2 q14 23 54 62.5t86 79.5t91 72.5t74 41.5q4 4 8 6q0 -4 2 -4h30.5t30.5 -2q-4 -16 -26 -45q39 -35 104.5 -76t135 -78t131 -67.5t94.5 -45.5q-10 -31 -48 -70.5t-86.5 -77.5t-96.5 -70t-79 -46q-25 12 -68.5 32.5t-96 47.5t-107.5 57.5t-103.5 61.5t-83 60.5t-44.5 53.5h-9z M286 346.5q-5 -100.5 27 -192.5q33 -94 106 -135.5t160 -46.5t177 17.5t162 57.5q20 29 34.5 50.5t25.5 47t19.5 59.5t16.5 87q18 111 -11.5 209t-85 188t-127 170t-137.5 154q-31 35 -85 92t-93 113q-10 -8 -20.5 -16.5t-20.5 -16.5q-10 -23 -17 -46.5t-16 -45.5 q-41 -133 -62.5 -273.5t-37.5 -279.5q-10 -92 -15 -192.5z" />
<glyph unicode="&#xd3;" horiz-adv-x="1275" d="M-25.5 134q5.5 81 13.5 147q10 86 23.5 193.5t36 217t58 208.5t93.5 169q31 37 67.5 69.5t71.5 63.5q25 23 49.5 44.5t50.5 41.5q-8 23 -6 48.5t-2 52.5q16 25 57 65.5t89.5 82.5t94.5 73.5t72 36.5q4 -27 3 -54.5t10 -54.5q12 -31 38.5 -67.5t57.5 -72.5t60.5 -68 t50.5 -54q51 -55 105 -114.5t102.5 -123t86 -133t56.5 -147.5q27 -104 9.5 -206.5t-68 -198t-124 -182.5t-160.5 -160.5t-180.5 -132t-179.5 -99.5q-51 -25 -110.5 -42.5t-121 -25.5t-121.5 -3t-116 28q-78 31 -113.5 95.5t-47 143t-6 159.5zM286 346.5q-5 -100.5 27 -192.5 q33 -94 106 -135.5t160 -46.5t177 17.5t162 57.5q20 29 34.5 50.5t25.5 47t19.5 59.5t16.5 87q18 111 -11.5 209t-85 188t-127 170t-137.5 154q-31 35 -85 92t-93 113q-10 -8 -20.5 -16.5t-20.5 -16.5q-10 -23 -17 -46.5t-16 -45.5q-41 -133 -62.5 -273.5t-37.5 -279.5 q-10 -92 -15 -192.5zM293 1493q4 16 10.5 29l12.5 25q35 51 85 93t97 81q2 0 24.5 18.5t47 36.5t43 26.5t12.5 -10.5q-4 -10 -10.5 -19t-8.5 -20q8 -6 21 -6q70 78 144.5 148.5t166.5 122.5q10 6 22.5 17t18.5 1q6 -2 -4 -12q-23 -35 -53.5 -65.5t-65.5 -59.5 q-18 -23 -36.5 -43.5t-39.5 -42.5q-74 -78 -159.5 -152.5t-182.5 -130.5q-12 -8 -30.5 -18t-38 -17.5t-39 -10.5t-33.5 5zM676 1772q-4 -2 1 1t9 5q-4 -2 -5 -3t-5 -3z" />
<glyph unicode="&#xd4;" horiz-adv-x="1275" d="M-25.5 134q5.5 81 13.5 147q10 86 23.5 193.5t36 217t58 208.5t93.5 169q31 37 67.5 69.5t71.5 63.5q25 23 49.5 44.5t50.5 41.5q-8 23 -6 48.5t-2 52.5q16 25 57 65.5t89.5 82.5t94.5 73.5t72 36.5q4 -27 3 -54.5t10 -54.5q12 -31 38.5 -67.5t57.5 -72.5t60.5 -68 t50.5 -54q51 -55 105 -114.5t102.5 -123t86 -133t56.5 -147.5q27 -104 9.5 -206.5t-68 -198t-124 -182.5t-160.5 -160.5t-180.5 -132t-179.5 -99.5q-51 -25 -110.5 -42.5t-121 -25.5t-121.5 -3t-116 28q-78 31 -113.5 95.5t-47 143t-6 159.5zM217 1403q-2 14 15.5 40 t40 52.5t46 50t33.5 35.5q33 37 60.5 76t56.5 76q27 33 81 88t116.5 108.5t124 93.5t102.5 42q8 0 15 -9.5t12.5 -22.5t8.5 -24.5t3 -13.5q25 -66 50.5 -118t78.5 -99q-10 -31 -48 -71t-86 -77.5t-96.5 -69.5t-78.5 -46q-23 20 -43.5 41.5t-36.5 48.5q-16 31 -29.5 82 t-32.5 86q-31 -35 -55.5 -66t-24.5 -45q-8 -25 -33.5 -52.5t-57 -55t-63.5 -51t-52 -39.5q-4 -2 -19.5 -14.5t-33 -25t-33 -19.5t-21.5 -1zM286 346.5q-5 -100.5 27 -192.5q33 -94 106 -135.5t160 -46.5t177 17.5t162 57.5q20 29 34.5 50.5t25.5 47t19.5 59.5t16.5 87 q18 111 -11.5 209t-85 188t-127 170t-137.5 154q-31 35 -85 92t-93 113q-10 -8 -20.5 -16.5t-20.5 -16.5q-10 -23 -17 -46.5t-16 -45.5q-41 -133 -62.5 -273.5t-37.5 -279.5q-10 -92 -15 -192.5zM760 1952q8 8 14 12q-4 -2 -14 -12z" />
<glyph unicode="&#xd5;" horiz-adv-x="1275" d="M-25.5 134q5.5 81 13.5 147q10 86 23.5 193.5t36 217t58 208.5t93.5 169q31 37 67.5 69.5t71.5 63.5q25 23 49.5 44.5t50.5 41.5q-8 23 -6 48.5t-2 52.5q16 25 57 65.5t89.5 82.5t94.5 73.5t72 36.5q4 -27 3 -54.5t10 -54.5q12 -31 38.5 -67.5t57.5 -72.5t60.5 -68 t50.5 -54q51 -55 105 -114.5t102.5 -123t86 -133t56.5 -147.5q27 -104 9.5 -206.5t-68 -198t-124 -182.5t-160.5 -160.5t-180.5 -132t-179.5 -99.5q-51 -25 -110.5 -42.5t-121 -25.5t-121.5 -3t-116 28q-78 31 -113.5 95.5t-47 143t-6 159.5zM135 1502q2 14 12 24 q23 35 44.5 69t43.5 62q14 18 43 49t67 65t82 67.5t85 60.5t77 41t60 8q39 -8 71 -44t62.5 -70.5t64.5 -56t81 -1.5q18 12 35.5 24.5t33.5 22.5q35 20 39 17t-13.5 -21t-50 -47t-68.5 -59.5t-70.5 -60.5t-57.5 -46v-2q0 -2 -12 -10t-26.5 -17.5t-28 -16.5t-15.5 -9 q-49 -31 -79.5 -41t-57.5 -1t-55.5 35.5t-69.5 69.5q-10 12 -27.5 28.5t-35.5 29.5q-31 -27 -63 -53.5t-59.5 -49t-46 -37t-22.5 -16.5q-16 -10 -39 -21q-2 2 -2 3.5t-2 3.5zM286 346.5q-5 -100.5 27 -192.5q33 -94 106 -135.5t160 -46.5t177 17.5t162 57.5q20 29 34.5 50.5 t25.5 47t19.5 59.5t16.5 87q18 111 -11.5 209t-85 188t-127 170t-137.5 154q-31 35 -85 92t-93 113q-10 -8 -20.5 -16.5t-20.5 -16.5q-10 -23 -17 -46.5t-16 -45.5q-41 -133 -62.5 -273.5t-37.5 -279.5q-10 -92 -15 -192.5zM731 1575q-4 -2 1 0t9 6q-8 -4 -10 -6z" />
<glyph unicode="&#xd6;" horiz-adv-x="1275" d="M-25.5 134q5.5 81 13.5 147q10 86 23.5 193.5t36 217t58 208.5t93.5 169q31 37 67.5 69.5t71.5 63.5q25 23 49.5 44.5t50.5 41.5q-8 23 -6 48.5t-2 52.5q16 25 57 65.5t89.5 82.5t94.5 73.5t72 36.5q4 -27 3 -54.5t10 -54.5q12 -31 38.5 -67.5t57.5 -72.5t60.5 -68 t50.5 -54q51 -55 105 -114.5t102.5 -123t86 -133t56.5 -147.5q27 -104 9.5 -206.5t-68 -198t-124 -182.5t-160.5 -160.5t-180.5 -132t-179.5 -99.5q-51 -25 -110.5 -42.5t-121 -25.5t-121.5 -3t-116 28q-78 31 -113.5 95.5t-47 143t-6 159.5zM262 2009q-6 6 4 20.5t25.5 30 t30 28t18.5 16.5q18 18 48 44.5t61.5 53.5t64.5 47.5t57 24.5q6 -6 9 -31t4.5 -54.5t1.5 -58t2 -41.5q8 -49 20 -93t35 -85q4 49 13 90t26 70q31 53 83 96t99 78q20 18 43 36.5t44.5 32t40 18.5t34.5 -3q-12 -35 -55 -78v-4q-4 -31 -6.5 -62.5t-6.5 -64.5q-6 -96 -2 -189.5 t21 -189.5q-8 -25 -34 -52.5t-57.5 -55t-63.5 -51t-52 -39.5q-4 -2 -19.5 -14.5t-33 -25t-32.5 -19.5t-22 -1q-6 29 -11 70t-9 88q-53 -45 -108.5 -82t-90.5 -53q-76 66 -114.5 146.5t-55.5 178.5q-2 8 -3 37t-2 59.5t-3 56t-4 25.5zM286 346.5q-5 -100.5 27 -192.5 q33 -94 106 -135.5t160 -46.5t177 17.5t162 57.5q20 29 34.5 50.5t25.5 47t19.5 59.5t16.5 87q18 111 -11.5 209t-85 188t-127 170t-137.5 154q-31 35 -85 92t-93 113q-10 -8 -20.5 -16.5t-20.5 -16.5q-10 -23 -17 -46.5t-16 -45.5q-41 -133 -62.5 -273.5t-37.5 -279.5 q-10 -92 -15 -192.5z" />
<glyph unicode="&#xd7;" horiz-adv-x="978" d="M-39 797q16 25 57 65.5t89.5 82.5t94.5 74t72 36q47 -72 102.5 -134.5t115.5 -121.5q4 4 6 8t6 8q41 43 83 82t87 74q2 0 24.5 18.5t47 36.5t43 26.5t12.5 -10.5q-49 -66 -101.5 -128t-105.5 -128l-2 -2l-37 -43q90 -78 185.5 -148.5t197.5 -139.5q-10 -31 -48 -71 t-86 -78t-96.5 -69.5t-78.5 -46.5q-78 53 -155 107.5t-148 114.5q-2 -4 -3 -5.5t-4 -5.5q-43 -53 -95 -99t-107 -87q-4 -2 -19.5 -14.5t-33 -24.5t-33 -19.5t-21.5 -0.5q47 90 104.5 172t121.5 159q-78 70 -147 146t-128 166z" />
<glyph unicode="&#xd8;" horiz-adv-x="1275" d="M-25.5 134q5.5 81 13.5 147q10 86 23.5 193.5t36 217t58 208.5t93.5 169q31 37 67.5 69.5t71.5 63.5q25 23 49.5 44.5t50.5 41.5q-8 23 -6 48.5t-2 52.5q16 25 57 65.5t89.5 82.5t94.5 73.5t72 36.5q4 -27 3 -54.5t10 -54.5q12 -31 38.5 -67.5t57.5 -72.5t60.5 -68 t50.5 -54q51 -55 105 -114.5t102.5 -123t86 -133t56.5 -147.5q27 -104 9.5 -206.5t-68 -198t-124 -182.5t-160.5 -160.5t-180.5 -132t-179.5 -99.5q-51 -25 -110.5 -42.5t-121 -25.5t-121.5 -3t-116 28q-78 31 -113.5 95.5t-47 143t-6 159.5zM-22 -557q47 295 155.5 561.5 t265 503t354.5 447.5t425 395q2 2 17.5 13.5t34 25.5t38 26.5t29.5 17.5t9 -2t-22 -34q-8 -10 -16 -18.5t-18 -18.5q-35 -35 -70 -69.5t-76 -65.5q-57 -57 -113.5 -114.5t-109.5 -118.5q-238 -274 -385 -603t-205 -688q-8 -25 -33.5 -52t-57.5 -55t-63.5 -51.5t-52.5 -39.5 q-4 -2 -19 -14.5t-32.5 -24.5t-33 -19.5t-21.5 -1.5zM286 346.5q-5 -100.5 27 -192.5q33 -94 106 -135.5t160 -46.5t177 17.5t162 57.5q20 29 34.5 50.5t25.5 47t19.5 59.5t16.5 87q18 111 -11.5 209t-85 188t-127 170t-137.5 154q-31 35 -85 92t-93 113q-10 -8 -20.5 -16.5 t-20.5 -16.5q-10 -23 -17 -46.5t-16 -45.5q-41 -133 -62.5 -273.5t-37.5 -279.5q-10 -92 -15 -192.5z" />
<glyph unicode="&#xd9;" horiz-adv-x="1320" d="M-399 -345.5q8 50.5 25.5 115t41 134t46 130t40 105.5t23.5 60q47 135 89 271t56 278q10 86 8 166.5t-6 164.5q-4 74 -11 156t7 156q-10 -2 2 22q2 0 2 2q2 0 2 4q16 25 57.5 66t89.5 83t94 73.5t73 35.5q-12 -37 -15.5 -80t-1.5 -87t7.5 -88t7.5 -83q4 -86 6 -165.5 t-8 -165.5q-16 -147 -58.5 -285.5t-91.5 -278.5q-12 -35 -24.5 -67.5t-24.5 -67.5q-10 -35 -22.5 -69.5t-24.5 -69.5q-4 -14 -20.5 -61.5t-32 -100.5t-24.5 -101t3 -65q8 -12 26.5 -12t39 6t38 14.5t27.5 12.5q53 23 108.5 39t110.5 32q45 12 89 22.5t89 20.5 q111 25 216.5 31t211.5 -4q-180 274 -294.5 571t-133.5 633q16 25 57.5 66t89.5 83t94 73.5t73 35.5q10 -186 52 -361t109.5 -340t156.5 -321.5t198 -308.5q59 -84 130 -172t157 -158q39 -16 74.5 -35.5t60.5 -52.5q2 0 2 -1t2 -1q-2 0 -4 -2q-10 -31 -49 -69.5t-86.5 -77.5 t-95.5 -70t-76 -45q-37 18 -71 41t-67 49q-16 6 -30.5 12.5t-28.5 10.5q-131 57 -257 98t-253 61.5t-259 19.5t-276 -28q-90 -18 -178 -43q-55 -16 -110.5 -32.5t-108.5 -38.5q-10 -4 -31.5 -13.5t-44 -15.5t-43 -5t-28.5 17q-10 20 -2 70.5zM61 1959q2 2 3 2.5t4 2.5v2 q14 23 54 62.5t86 79.5t91 72.5t74 41.5q4 4 8 6q0 -4 2 -4h30.5t30.5 -2q-4 -16 -26 -45q39 -35 104.5 -76t135 -78t131 -67.5t94.5 -45.5q-10 -31 -48 -70.5t-86.5 -77.5t-96.5 -70t-79 -46q-25 12 -68.5 32.5t-96 47.5t-107.5 57.5t-103.5 61.5t-83 60.5t-44.5 53.5h-9z " />
<glyph unicode="&#xda;" horiz-adv-x="1320" d="M-399 -345.5q8 50.5 25.5 115t41 134t46 130t40 105.5t23.5 60q47 135 89 271t56 278q10 86 8 166.5t-6 164.5q-4 74 -11 156t7 156q-10 -2 2 22q2 0 2 2q2 0 2 4q16 25 57.5 66t89.5 83t94 73.5t73 35.5q-12 -37 -15.5 -80t-1.5 -87t7.5 -88t7.5 -83q4 -86 6 -165.5 t-8 -165.5q-16 -147 -58.5 -285.5t-91.5 -278.5q-12 -35 -24.5 -67.5t-24.5 -67.5q-10 -35 -22.5 -69.5t-24.5 -69.5q-4 -14 -20.5 -61.5t-32 -100.5t-24.5 -101t3 -65q8 -12 26.5 -12t39 6t38 14.5t27.5 12.5q53 23 108.5 39t110.5 32q45 12 89 22.5t89 20.5 q111 25 216.5 31t211.5 -4q-180 274 -294.5 571t-133.5 633q16 25 57.5 66t89.5 83t94 73.5t73 35.5q10 -186 52 -361t109.5 -340t156.5 -321.5t198 -308.5q59 -84 130 -172t157 -158q39 -16 74.5 -35.5t60.5 -52.5q2 0 2 -1t2 -1q-2 0 -4 -2q-10 -31 -49 -69.5t-86.5 -77.5 t-95.5 -70t-76 -45q-37 18 -71 41t-67 49q-16 6 -30.5 12.5t-28.5 10.5q-131 57 -257 98t-253 61.5t-259 19.5t-276 -28q-90 -18 -178 -43q-55 -16 -110.5 -32.5t-108.5 -38.5q-10 -4 -31.5 -13.5t-44 -15.5t-43 -5t-28.5 17q-10 20 -2 70.5zM315 1493q4 16 10.5 29l12.5 25 q35 51 85 93t97 81q2 0 24.5 18.5t47 36.5t43 26.5t12.5 -10.5q-4 -10 -10.5 -19t-8.5 -20q8 -6 21 -6q70 78 144.5 148.5t166.5 122.5q10 6 22.5 17t18.5 1q6 -2 -4 -12q-23 -35 -53.5 -65.5t-65.5 -59.5q-18 -23 -36.5 -43.5t-39.5 -42.5q-74 -78 -159.5 -152.5 t-182.5 -130.5q-12 -8 -30.5 -18t-38 -17.5t-39 -10.5t-33.5 5zM698 1772q-4 -2 1 1t9 5q-4 -2 -5 -3t-5 -3z" />
<glyph unicode="&#xdb;" horiz-adv-x="1320" d="M-399 -345.5q8 50.5 25.5 115t41 134t46 130t40 105.5t23.5 60q47 135 89 271t56 278q10 86 8 166.5t-6 164.5q-4 74 -11 156t7 156q-10 -2 2 22q2 0 2 2q2 0 2 4q16 25 57.5 66t89.5 83t94 73.5t73 35.5q-12 -37 -15.5 -80t-1.5 -87t7.5 -88t7.5 -83q4 -86 6 -165.5 t-8 -165.5q-16 -147 -58.5 -285.5t-91.5 -278.5q-12 -35 -24.5 -67.5t-24.5 -67.5q-10 -35 -22.5 -69.5t-24.5 -69.5q-4 -14 -20.5 -61.5t-32 -100.5t-24.5 -101t3 -65q8 -12 26.5 -12t39 6t38 14.5t27.5 12.5q53 23 108.5 39t110.5 32q45 12 89 22.5t89 20.5 q111 25 216.5 31t211.5 -4q-180 274 -294.5 571t-133.5 633q16 25 57.5 66t89.5 83t94 73.5t73 35.5q10 -186 52 -361t109.5 -340t156.5 -321.5t198 -308.5q59 -84 130 -172t157 -158q39 -16 74.5 -35.5t60.5 -52.5q2 0 2 -1t2 -1q-2 0 -4 -2q-10 -31 -49 -69.5t-86.5 -77.5 t-95.5 -70t-76 -45q-37 18 -71 41t-67 49q-16 6 -30.5 12.5t-28.5 10.5q-131 57 -257 98t-253 61.5t-259 19.5t-276 -28q-90 -18 -178 -43q-55 -16 -110.5 -32.5t-108.5 -38.5q-10 -4 -31.5 -13.5t-44 -15.5t-43 -5t-28.5 17q-10 20 -2 70.5zM16 1695q-2 14 15.5 40t40 52.5 t46 50t33.5 35.5q33 37 60.5 76t56.5 76q27 33 81 88t116.5 108.5t124 93.5t102.5 42q8 0 15 -9.5t12.5 -22.5t8.5 -24.5t3 -13.5q25 -66 50.5 -118t78.5 -99q-10 -31 -48 -71t-86 -77.5t-96.5 -69.5t-78.5 -46q-23 20 -43.5 41.5t-36.5 48.5q-16 31 -29.5 82t-32.5 86 q-31 -35 -55.5 -66t-24.5 -45q-8 -25 -33.5 -52.5t-57 -55t-63.5 -51t-52 -39.5q-4 -2 -19.5 -14.5t-33 -25t-33 -19.5t-21.5 -1zM559 2244q8 8 14 12q-4 -2 -14 -12z" />
<glyph unicode="&#xdc;" horiz-adv-x="1320" d="M-399 -345.5q8 50.5 25.5 115t41 134t46 130t40 105.5t23.5 60q47 135 89 271t56 278q10 86 8 166.5t-6 164.5q-4 74 -11 156t7 156q-10 -2 2 22q2 0 2 2q2 0 2 4q16 25 57.5 66t89.5 83t94 73.5t73 35.5q-12 -37 -15.5 -80t-1.5 -87t7.5 -88t7.5 -83q4 -86 6 -165.5 t-8 -165.5q-16 -147 -58.5 -285.5t-91.5 -278.5q-12 -35 -24.5 -67.5t-24.5 -67.5q-10 -35 -22.5 -69.5t-24.5 -69.5q-4 -14 -20.5 -61.5t-32 -100.5t-24.5 -101t3 -65q8 -12 26.5 -12t39 6t38 14.5t27.5 12.5q53 23 108.5 39t110.5 32q45 12 89 22.5t89 20.5 q111 25 216.5 31t211.5 -4q-180 274 -294.5 571t-133.5 633q16 25 57.5 66t89.5 83t94 73.5t73 35.5q10 -186 52 -361t109.5 -340t156.5 -321.5t198 -308.5q59 -84 130 -172t157 -158q39 -16 74.5 -35.5t60.5 -52.5q2 0 2 -1t2 -1q-2 0 -4 -2q-10 -31 -49 -69.5t-86.5 -77.5 t-95.5 -70t-76 -45q-37 18 -71 41t-67 49q-16 6 -30.5 12.5t-28.5 10.5q-131 57 -257 98t-253 61.5t-259 19.5t-276 -28q-90 -18 -178 -43q-55 -16 -110.5 -32.5t-108.5 -38.5q-10 -4 -31.5 -13.5t-44 -15.5t-43 -5t-28.5 17q-10 20 -2 70.5zM-59 2258q-6 6 4 20.5t25.5 30 t30 28t18.5 16.5q18 18 48 44.5t61.5 53.5t64.5 47.5t57 24.5q6 -6 9 -31t4.5 -54.5t1.5 -58t2 -41.5q8 -49 20 -93t35 -85q4 49 13 90t26 70q31 53 83 96t99 78q20 18 43 36.5t44.5 32t40 18.5t34.5 -3q-12 -35 -55 -78v-4q-4 -31 -6.5 -62.5t-6.5 -64.5q-6 -96 -2 -189.5 t21 -189.5q-8 -25 -34 -52.5t-57.5 -55t-63.5 -51t-52 -39.5q-4 -2 -19.5 -14.5t-33 -25t-32.5 -19.5t-22 -1q-6 29 -11 70t-9 88q-53 -45 -108.5 -82t-90.5 -53q-76 66 -114.5 146.5t-55.5 178.5q-2 8 -3 37t-2 59.5t-3 56t-4 25.5z" />
<glyph unicode="&#xdd;" horiz-adv-x="1337" d="M-154.5 759q21.5 83 66.5 173q43 86 80 155.5t79 131t94 117t126 114.5q31 27 64.5 52.5t70.5 41.5q23 4 6.5 -18.5t-45.5 -46.5q-4 -6 -6 -10.5t-4 -8.5q-14 -25 -27.5 -50.5t-30.5 -53.5q-27 -47 -59.5 -100.5t-60 -109.5t-44 -115.5t-8.5 -117.5q10 -84 83 -130 t170.5 -64.5t202 -13t179.5 23.5q-20 72 -37.5 141.5t-33.5 141.5q-6 27 -9.5 46t-1.5 35.5t12.5 33t30.5 36.5q35 35 70 66t72 59q29 23 57.5 45.5t61.5 36.5q16 8 30.5 -2t26.5 -27.5t21.5 -36t13.5 -28.5q18 -35 34.5 -74t25.5 -79t6 -81t-23 -79q-6 -10 -12.5 -20.5 t-12.5 -20.5q20 -68 42 -136.5t44 -134.5q45 -133 96.5 -262t116.5 -252q39 -72 77 -135t63.5 -127.5t37 -135.5t-1.5 -157q-8 -55 -38.5 -106t-72.5 -96.5t-89.5 -86.5t-88.5 -73q-135 -115 -292.5 -202t-341.5 -103q-82 -8 -175.5 13t-182.5 65t-168 108.5t-134 143.5 t-77.5 169t-0.5 187q14 55 45 105t74 97q57 72 132 128.5t159 95.5q14 6 14 0q45 25 87 46t77 38q20 4 9 -13.5t-33.5 -39t-45.5 -40.5l-22 -20q-43 -35 -87 -71t-95 -66v-6q-10 -45 -7 -91.5t13 -91.5q23 -82 68.5 -155.5t108 -134t136.5 -104.5t154 -69 q86 -25 148.5 -30.5t119.5 3.5t117.5 28.5t144.5 44.5q43 104 36 194t-43 175t-88 169t-97 176q-78 158 -135.5 325t-106.5 337q-131 -90 -276.5 -143.5t-274.5 -51.5q-35 0 -95.5 8.5t-122.5 25.5t-114.5 44t-66.5 66q-37 96 -15.5 179zM496 1378q4 16 10.5 29l12.5 25 q35 51 85 93t97 81q2 0 24.5 18.5t47 36.5t43 26.5t12.5 -10.5q-4 -10 -10.5 -19t-8.5 -20q8 -6 21 -6q70 78 144.5 148.5t166.5 122.5q10 6 22.5 17t18.5 1q6 -2 -4 -12q-23 -35 -53.5 -65.5t-65.5 -59.5q-18 -23 -36.5 -43.5t-39.5 -42.5q-74 -78 -159.5 -152.5 t-182.5 -130.5q-12 -8 -30.5 -18t-38 -17.5t-39 -10.5t-33.5 5zM879 1657q-4 -2 1 1t9 5q-4 -2 -5 -3t-5 -3z" />
<glyph unicode="&#xde;" horiz-adv-x="1220" d="M-110.5 875q16.5 268 108.5 536q35 51 85 93t97 81q2 0 24.5 18.5t47 37t43 26.5t12.5 -10q-76 -217 -100 -447q28 11 59 15q-6 -20 -28 -47q2 0 2 -1t2 -1q23 -14 45 -28.5t49 -25.5q31 -10 62.5 -14t62.5 -8q68 -6 163 -1t191 2t183 -22.5t139 -74.5q57 -61 55 -115.5 t-35 -102t-83 -88.5t-91 -77q-145 -127 -324.5 -207t-373.5 -105q8 -35 13 -70.5t9 -72.5q-8 -25 -33.5 -52.5t-57.5 -55t-63.5 -51t-52.5 -40.5q-4 -2 -19 -14t-32.5 -24.5t-33 -19.5t-21.5 -1q-4 55 -14.5 107.5t-23.5 103.5t-26.5 103t-21.5 106q-35 279 -18.5 547z M199 827q4 -59 9 -120.5t13 -120.5q0 -6 1 -11.5t1 -9.5q10 4 17.5 6t15.5 4q92 -14 181 -11t181 20q57 10 125 25.5t131 35.5q-14 57 -49 96q-20 20 -47.5 36t-58.5 25t-62.5 14t-58.5 9q-98 12 -198.5 5t-200.5 -3zM858 564q2 1 4 3q-2 0 -4 -2t0 -1z" />
<glyph unicode="&#xdf;" horiz-adv-x="1400" d="M-111 1106q2 35 9.5 68.5t13.5 68.5q0 10 4 31v2l2 2q18 25 59 65.5t88.5 81.5t92.5 73t71 36q-2 -6 -2 -12t-2 -13q-2 -45 15.5 -87t27.5 -85q14 -53 31.5 -114.5t58.5 -102.5q66 -61 160 -110t199.5 -80t215 -40t206.5 9q63 57 135 90q4 2 7 -2t1 -8q-8 -20 -33 -41 q-2 -2 -2 -4t-2 -4l2 2q23 10 40.5 24.5t35.5 26.5q10 6 22.5 17.5t18.5 0.5q6 -2 -4 -12q-39 -59 -98.5 -107t-118.5 -89q-20 -31 -47 -60q-29 -35 -63 -71.5t-70 -75.5q47 -10 94 -21.5t88 -34.5q47 -27 85 -67.5t65.5 -88.5t45 -101.5t25.5 -102.5q27 -158 -29.5 -283 t-156.5 -223q-49 -59 -105.5 -110.5t-128.5 -75.5q-6 -2 -12 -2q-35 -29 -71 -56.5t-79 -29.5q-96 -2 -153.5 -3t-95 2t-67.5 12t-71 27.5t-104.5 48t-169.5 72.5q-6 6 4 20.5t25.5 30t30 28t18.5 16.5q18 18 48 44.5t61.5 53.5t64.5 47.5t57 24.5q78 -31 149.5 -66 t143.5 -62.5t145.5 -41t157.5 -0.5q18 31 23 49q14 53 13 108.5t-11 108.5q-8 51 -25.5 102t-45.5 98.5t-64.5 87.5t-81.5 68q-47 29 -103.5 37t-109.5 25q-6 6 4 20t25.5 29.5t29.5 28t18 16.5q25 23 48.5 43t50.5 41q29 35 55.5 73.5t54.5 77.5q-18 -6 -37.5 -11t-37.5 -9 q-57 -10 -128 -10t-147 9t-151.5 28.5t-145.5 48.5q0 -4 1 -5t1 -3q8 -55 18.5 -119t26 -128.5t37 -125t53.5 -109.5q10 -16 27 -24.5t31 -20.5q-10 -31 -48 -70.5t-86.5 -77.5t-96.5 -70t-79 -46q-14 12 -28.5 23.5t-28.5 21.5q-16 12 -31.5 48t-30 84t-27.5 102.5 t-23.5 104.5t-17.5 90t-9 58q-27 164 -45.5 329t-16.5 331zM756 467q12 8 18 14q-10 -8 -16 -13t-2 -1zM926 594h2q2 0 3 1t-1 1q-2 -2 -4 -2zM1257 948q8 8 7.5 8t-4.5 -4q-2 -2 -1 -2t-2 -2zM1268 965q2 4 4 5t0 -1z" />
<glyph unicode="&#xe0;" horiz-adv-x="1359" d="M-270 999h2q-2 8 8 22.5t24.5 29t27.5 25.5t18 16q18 16 43.5 39.5t54.5 48t59.5 45t55.5 30.5q2 4 4 5.5t6 5.5q4 -4 8 -4q109 -37 206 -69t195.5 -55.5t202 -35.5t223.5 -6q25 2 53.5 4t57.5 6q35 45 86 85t117 87q18 14 38.5 28.5t43.5 18.5q-10 -35 -22.5 -63.5 t-29.5 -55.5q-4 -16 -4 -24q-10 -68 -5 -136.5t16 -136.5q12 -104 41.5 -200.5t58.5 -196.5q4 -12 12 -32.5t14.5 -42t7.5 -42t-7 -35.5q-29 -43 -71 -77.5t-81 -69.5q-33 -27 -66.5 -53.5t-72.5 -44.5q-4 -4 -9.5 -5t-11.5 -6q-20 14 -32.5 43t-26.5 48q-31 39 -68 79 q-6 -6 -21.5 -18t-31.5 -22.5t-30.5 -16.5t-18.5 0v29q-2 4 -10 8q-23 -2 -43.5 -12.5t-39 -23.5t-37 -26.5t-38.5 -23.5q-47 -25 -108.5 -53.5t-125 -45t-124 -13.5t-109.5 42q0 2 -4 6q12 72 60 122t100 98q49 45 115.5 102t141 109.5t155.5 90.5t161 46q-4 35 -6 70.5 t-2 70.5q-4 59 6 109q-23 -14 -42 -24.5t-42 -16.5q-88 -29 -179 -40.5t-183 -11.5q-16 -23 -41 -46t-52.5 -44.5t-53 -41t-42.5 -31.5q-4 -2 -18.5 -13.5t-31.5 -24t-33.5 -20.5t-22.5 -4v2q-16 25 -25.5 53.5t-28.5 53.5q-25 37 -66.5 74.5t-90.5 74.5t-104.5 72 t-108.5 63v2h-2zM239 1495q2 2 3 2.5t4 2.5v2q14 23 54 62.5t86 79.5t91 72.5t74 41.5q4 4 8 6q0 -4 2 -4h30.5t30.5 -2q-4 -16 -26 -45q39 -35 104.5 -76t135 -78t131 -67.5t94.5 -45.5q-10 -31 -48 -70.5t-86.5 -77.5t-96.5 -70t-79 -46q-25 12 -68.5 32.5t-96 47.5 t-107.5 57.5t-103.5 61.5t-83 60.5t-44.5 53.5h-9zM479 362q33 -27 71 -36t78 -5.5t82 15.5t81 29q-35 18 -72 30.5t-78 16.5q-82 4 -160 -31q0 -13 -2 -19z" />
<glyph unicode="&#xe1;" horiz-adv-x="1359" d="M-270 999h2q-2 8 8 22.5t24.5 29t27.5 25.5t18 16q18 16 43.5 39.5t54.5 48t59.5 45t55.5 30.5q2 4 4 5.5t6 5.5q4 -4 8 -4q109 -37 206 -69t195.5 -55.5t202 -35.5t223.5 -6q25 2 53.5 4t57.5 6q35 45 86 85t117 87q18 14 38.5 28.5t43.5 18.5q-10 -35 -22.5 -63.5 t-29.5 -55.5q-4 -16 -4 -24q-10 -68 -5 -136.5t16 -136.5q12 -104 41.5 -200.5t58.5 -196.5q4 -12 12 -32.5t14.5 -42t7.5 -42t-7 -35.5q-29 -43 -71 -77.5t-81 -69.5q-33 -27 -66.5 -53.5t-72.5 -44.5q-4 -4 -9.5 -5t-11.5 -6q-20 14 -32.5 43t-26.5 48q-31 39 -68 79 q-6 -6 -21.5 -18t-31.5 -22.5t-30.5 -16.5t-18.5 0v29q-2 4 -10 8q-23 -2 -43.5 -12.5t-39 -23.5t-37 -26.5t-38.5 -23.5q-47 -25 -108.5 -53.5t-125 -45t-124 -13.5t-109.5 42q0 2 -4 6q12 72 60 122t100 98q49 45 115.5 102t141 109.5t155.5 90.5t161 46q-4 35 -6 70.5 t-2 70.5q-4 59 6 109q-23 -14 -42 -24.5t-42 -16.5q-88 -29 -179 -40.5t-183 -11.5q-16 -23 -41 -46t-52.5 -44.5t-53 -41t-42.5 -31.5q-4 -2 -18.5 -13.5t-31.5 -24t-33.5 -20.5t-22.5 -4v2q-16 25 -25.5 53.5t-28.5 53.5q-25 37 -66.5 74.5t-90.5 74.5t-104.5 72 t-108.5 63v2h-2zM408 1239q4 16 10.5 29l12.5 25q35 51 85 93t97 81q2 0 24.5 18.5t47 36.5t43 26.5t12.5 -10.5q-4 -10 -10.5 -19t-8.5 -20q8 -6 21 -6q70 78 144.5 148.5t166.5 122.5q10 6 22.5 17t18.5 1q6 -2 -4 -12q-23 -35 -53.5 -65.5t-65.5 -59.5 q-18 -23 -36.5 -43.5t-39.5 -42.5q-74 -78 -159.5 -152.5t-182.5 -130.5q-12 -8 -30.5 -18t-38 -17.5t-39 -10.5t-33.5 5zM479 362q33 -27 71 -36t78 -5.5t82 15.5t81 29q-35 18 -72 30.5t-78 16.5q-82 4 -160 -31q0 -13 -2 -19zM791 1518q-4 -2 1 1t9 5q-4 -2 -5 -3t-5 -3z " />
<glyph unicode="&#xe2;" horiz-adv-x="1359" d="M-270 999h2q-2 8 8 22.5t24.5 29t27.5 25.5t18 16q18 16 43.5 39.5t54.5 48t59.5 45t55.5 30.5q2 4 4 5.5t6 5.5q4 -4 8 -4q109 -37 206 -69t195.5 -55.5t202 -35.5t223.5 -6q25 2 53.5 4t57.5 6q35 45 86 85t117 87q18 14 38.5 28.5t43.5 18.5q-10 -35 -22.5 -63.5 t-29.5 -55.5q-4 -16 -4 -24q-10 -68 -5 -136.5t16 -136.5q12 -104 41.5 -200.5t58.5 -196.5q4 -12 12 -32.5t14.5 -42t7.5 -42t-7 -35.5q-29 -43 -71 -77.5t-81 -69.5q-33 -27 -66.5 -53.5t-72.5 -44.5q-4 -4 -9.5 -5t-11.5 -6q-20 14 -32.5 43t-26.5 48q-31 39 -68 79 q-6 -6 -21.5 -18t-31.5 -22.5t-30.5 -16.5t-18.5 0v29q-2 4 -10 8q-23 -2 -43.5 -12.5t-39 -23.5t-37 -26.5t-38.5 -23.5q-47 -25 -108.5 -53.5t-125 -45t-124 -13.5t-109.5 42q0 2 -4 6q12 72 60 122t100 98q49 45 115.5 102t141 109.5t155.5 90.5t161 46q-4 35 -6 70.5 t-2 70.5q-4 59 6 109q-23 -14 -42 -24.5t-42 -16.5q-88 -29 -179 -40.5t-183 -11.5q-16 -23 -41 -46t-52.5 -44.5t-53 -41t-42.5 -31.5q-4 -2 -18.5 -13.5t-31.5 -24t-33.5 -20.5t-22.5 -4v2q-16 25 -25.5 53.5t-28.5 53.5q-25 37 -66.5 74.5t-90.5 74.5t-104.5 72 t-108.5 63v2h-2zM274 1229q-2 14 15.5 40t40 52.5t46 50t33.5 35.5q33 37 60.5 76t56.5 76q27 33 81 88t116.5 108.5t124 93.5t102.5 42q8 0 15 -9.5t12.5 -22.5t8.5 -24.5t3 -13.5q25 -66 50.5 -118t78.5 -99q-10 -31 -48 -71t-86 -77.5t-96.5 -69.5t-78.5 -46 q-23 20 -43.5 41.5t-36.5 48.5q-16 31 -29.5 82t-32.5 86q-31 -35 -55.5 -66t-24.5 -45q-8 -25 -33.5 -52.5t-57 -55t-63.5 -51t-52 -39.5q-4 -2 -19.5 -14.5t-33 -25t-33 -19.5t-21.5 -1zM479 362q33 -27 71 -36t78 -5.5t82 15.5t81 29q-35 18 -72 30.5t-78 16.5 q-82 4 -160 -31q0 -13 -2 -19zM817 1778q8 8 14 12q-4 -2 -14 -12z" />
<glyph unicode="&#xe3;" horiz-adv-x="1359" d="M-270 999h2q-2 8 8 22.5t24.5 29t27.5 25.5t18 16q18 16 43.5 39.5t54.5 48t59.5 45t55.5 30.5q2 4 4 5.5t6 5.5q4 -4 8 -4q109 -37 206 -69t195.5 -55.5t202 -35.5t223.5 -6q25 2 53.5 4t57.5 6q35 45 86 85t117 87q18 14 38.5 28.5t43.5 18.5q-10 -35 -22.5 -63.5 t-29.5 -55.5q-4 -16 -4 -24q-10 -68 -5 -136.5t16 -136.5q12 -104 41.5 -200.5t58.5 -196.5q4 -12 12 -32.5t14.5 -42t7.5 -42t-7 -35.5q-29 -43 -71 -77.5t-81 -69.5q-33 -27 -66.5 -53.5t-72.5 -44.5q-4 -4 -9.5 -5t-11.5 -6q-20 14 -32.5 43t-26.5 48q-31 39 -68 79 q-6 -6 -21.5 -18t-31.5 -22.5t-30.5 -16.5t-18.5 0v29q-2 4 -10 8q-23 -2 -43.5 -12.5t-39 -23.5t-37 -26.5t-38.5 -23.5q-47 -25 -108.5 -53.5t-125 -45t-124 -13.5t-109.5 42q0 2 -4 6q12 72 60 122t100 98q49 45 115.5 102t141 109.5t155.5 90.5t161 46q-4 35 -6 70.5 t-2 70.5q-4 59 6 109q-23 -14 -42 -24.5t-42 -16.5q-88 -29 -179 -40.5t-183 -11.5q-16 -23 -41 -46t-52.5 -44.5t-53 -41t-42.5 -31.5q-4 -2 -18.5 -13.5t-31.5 -24t-33.5 -20.5t-22.5 -4v2q-16 25 -25.5 53.5t-28.5 53.5q-25 37 -66.5 74.5t-90.5 74.5t-104.5 72 t-108.5 63v2h-2zM260 1252q2 14 12 24q23 35 44.5 69t43.5 62q14 18 43 49t67 65t82 67.5t85 60.5t77 41t60 8q39 -8 71 -44t62.5 -70.5t64.5 -56t81 -1.5q18 12 35.5 24.5t33.5 22.5q35 20 39 17t-13.5 -21t-50 -47t-68.5 -59.5t-70.5 -60.5t-57.5 -46v-2q0 -2 -12 -10 t-26.5 -17.5t-28 -16.5t-15.5 -9q-49 -31 -79.5 -41t-57.5 -1t-55.5 35.5t-69.5 69.5q-10 12 -27.5 28.5t-35.5 29.5q-31 -27 -63 -53.5t-59.5 -49t-46 -37t-22.5 -16.5q-16 -10 -39 -21q-2 2 -2 3.5t-2 3.5zM479 362q33 -27 71 -36t78 -5.5t82 15.5t81 29q-35 18 -72 30.5 t-78 16.5q-82 4 -160 -31q0 -13 -2 -19zM856 1325q-4 -2 1 0t9 6q-8 -4 -10 -6z" />
<glyph unicode="&#xe4;" horiz-adv-x="1359" d="M-270 999h2q-2 8 8 22.5t24.5 29t27.5 25.5t18 16q18 16 43.5 39.5t54.5 48t59.5 45t55.5 30.5q2 4 4 5.5t6 5.5q4 -4 8 -4q109 -37 206 -69t195.5 -55.5t202 -35.5t223.5 -6q25 2 53.5 4t57.5 6q35 45 86 85t117 87q18 14 38.5 28.5t43.5 18.5q-10 -35 -22.5 -63.5 t-29.5 -55.5q-4 -16 -4 -24q-10 -68 -5 -136.5t16 -136.5q12 -104 41.5 -200.5t58.5 -196.5q4 -12 12 -32.5t14.5 -42t7.5 -42t-7 -35.5q-29 -43 -71 -77.5t-81 -69.5q-33 -27 -66.5 -53.5t-72.5 -44.5q-4 -4 -9.5 -5t-11.5 -6q-20 14 -32.5 43t-26.5 48q-31 39 -68 79 q-6 -6 -21.5 -18t-31.5 -22.5t-30.5 -16.5t-18.5 0v29q-2 4 -10 8q-23 -2 -43.5 -12.5t-39 -23.5t-37 -26.5t-38.5 -23.5q-47 -25 -108.5 -53.5t-125 -45t-124 -13.5t-109.5 42q0 2 -4 6q12 72 60 122t100 98q49 45 115.5 102t141 109.5t155.5 90.5t161 46q-4 35 -6 70.5 t-2 70.5q-4 59 6 109q-23 -14 -42 -24.5t-42 -16.5q-88 -29 -179 -40.5t-183 -11.5q-16 -23 -41 -46t-52.5 -44.5t-53 -41t-42.5 -31.5q-4 -2 -18.5 -13.5t-31.5 -24t-33.5 -20.5t-22.5 -4v2q-16 25 -25.5 53.5t-28.5 53.5q-25 37 -66.5 74.5t-90.5 74.5t-104.5 72 t-108.5 63v2h-2zM305 1599q-6 6 4 20.5t25.5 30t30 28t18.5 16.5q18 18 48 44.5t61.5 53.5t64.5 47.5t57 24.5q6 -6 9 -31t4.5 -54.5t1.5 -58t2 -41.5q8 -49 20 -93t35 -85q4 49 13 90t26 70q31 53 83 96t99 78q20 18 43 36.5t44.5 32t40 18.5t34.5 -3q-12 -35 -55 -78v-4 q-4 -31 -6.5 -62.5t-6.5 -64.5q-6 -96 -2 -189.5t21 -189.5q-8 -25 -34 -52.5t-57.5 -55t-63.5 -51t-52 -39.5q-4 -2 -19.5 -14.5t-33 -25t-32.5 -19.5t-22 -1q-6 29 -11 70t-9 88q-53 -45 -108.5 -82t-90.5 -53q-76 66 -114.5 146.5t-55.5 178.5q-2 8 -3 37t-2 59.5t-3 56 t-4 25.5zM479 362q33 -27 71 -36t78 -5.5t82 15.5t81 29q-35 18 -72 30.5t-78 16.5q-82 4 -160 -31q0 -13 -2 -19z" />
<glyph unicode="&#xe5;" horiz-adv-x="1359" d="M-270 999h2q-2 8 8 22.5t24.5 29t27.5 25.5t18 16q18 16 43.5 39.5t54.5 48t59.5 45t55.5 30.5q2 4 4 5.5t6 5.5q4 -4 8 -4q109 -37 206 -69t195.5 -55.5t202 -35.5t223.5 -6q25 2 53.5 4t57.5 6q35 45 86 85t117 87q18 14 38.5 28.5t43.5 18.5q-10 -35 -22.5 -63.5 t-29.5 -55.5q-4 -16 -4 -24q-10 -68 -5 -136.5t16 -136.5q12 -104 41.5 -200.5t58.5 -196.5q4 -12 12 -32.5t14.5 -42t7.5 -42t-7 -35.5q-29 -43 -71 -77.5t-81 -69.5q-33 -27 -66.5 -53.5t-72.5 -44.5q-4 -4 -9.5 -5t-11.5 -6q-20 14 -32.5 43t-26.5 48q-31 39 -68 79 q-6 -6 -21.5 -18t-31.5 -22.5t-30.5 -16.5t-18.5 0v29q-2 4 -10 8q-23 -2 -43.5 -12.5t-39 -23.5t-37 -26.5t-38.5 -23.5q-47 -25 -108.5 -53.5t-125 -45t-124 -13.5t-109.5 42q0 2 -4 6q12 72 60 122t100 98q49 45 115.5 102t141 109.5t155.5 90.5t161 46q-4 35 -6 70.5 t-2 70.5q-4 59 6 109q-23 -14 -42 -24.5t-42 -16.5q-88 -29 -179 -40.5t-183 -11.5q-16 -23 -41 -46t-52.5 -44.5t-53 -41t-42.5 -31.5q-4 -2 -18.5 -13.5t-31.5 -24t-33.5 -20.5t-22.5 -4v2q-16 25 -25.5 53.5t-28.5 53.5q-25 37 -66.5 74.5t-90.5 74.5t-104.5 72 t-108.5 63v2h-2zM183 1323q2 23 30.5 61.5t71.5 86t95.5 95.5t100.5 91t87 74.5t55 44.5q14 10 31.5 24.5t37 24.5t39 15t37.5 -1q-8 -25 -37.5 -57.5t-68.5 -66.5t-82 -65.5t-78 -52.5q-4 -12 -4 -16q0 -12 -1 -24.5t3 -24.5q10 -23 44 -51.5t80 -58t100.5 -57.5t103.5 -48 q-16 43 -40 85t-53.5 79t-67.5 63.5t-83 36.5q-6 6 4.5 20.5t25.5 30t29.5 27.5t18.5 16q18 18 48 45t61.5 53.5t64.5 47t57 24.5q72 -16 116 -63t81 -111q51 -80 71.5 -153.5t8.5 -167.5q-2 -16 -17.5 -36t-33.5 -40q-18 -23 -39 -40t-43 -34q-43 -41 -89 -81t-96.5 -68.5 t-107.5 -39t-121 8.5q-29 8 -73 23.5t-93 37t-99 48t-90 57.5t-63.5 65.5t-21.5 71.5zM479 362q33 -27 71 -36t78 -5.5t82 15.5t81 29q-35 18 -72 30.5t-78 16.5q-82 4 -160 -31q0 -13 -2 -19zM832 1073q-6 -6 10 6q-8 -4 -10 -6z" />
<glyph unicode="&#xe6;" horiz-adv-x="2060" d="M-270 999h2q-2 8 8 22.5t24.5 29t27.5 25.5t18 16q18 16 43.5 39.5t54.5 48t59.5 45t55.5 30.5q2 4 4 5.5t6 5.5q4 -4 8 -4q109 -37 206 -69t195.5 -55.5t202 -35.5t223.5 -6q25 2 53.5 4t57.5 6q35 45 86 85t117 87q18 14 38.5 28.5t43.5 18.5q-10 -35 -22.5 -63.5 t-29.5 -55.5q-4 -16 -4 -24q-10 -68 -5 -136.5t16 -136.5q12 -104 41.5 -200.5t58.5 -196.5q4 -12 12 -32.5t14.5 -42t7.5 -42t-7 -35.5q-29 -43 -71 -77.5t-81 -69.5q-33 -27 -66.5 -53.5t-72.5 -44.5q-4 -4 -9.5 -5t-11.5 -6q-20 14 -32.5 43t-26.5 48q-31 39 -68 79 q-6 -6 -21.5 -18t-31.5 -22.5t-30.5 -16.5t-18.5 0v29q-2 4 -10 8q-23 -2 -43.5 -12.5t-39 -23.5t-37 -26.5t-38.5 -23.5q-47 -25 -108.5 -53.5t-125 -45t-124 -13.5t-109.5 42q0 2 -4 6q12 72 60 122t100 98q49 45 115.5 102t141 109.5t155.5 90.5t161 46q-4 35 -6 70.5 t-2 70.5q-4 59 6 109q-23 -14 -42 -24.5t-42 -16.5q-88 -29 -179 -40.5t-183 -11.5q-16 -23 -41 -46t-52.5 -44.5t-53 -41t-42.5 -31.5q-4 -2 -18.5 -13.5t-31.5 -24t-33.5 -20.5t-22.5 -4v2q-16 25 -25.5 53.5t-28.5 53.5q-25 37 -66.5 74.5t-90.5 74.5t-104.5 72 t-108.5 63v2h-2zM479 362q33 -27 71 -36t78 -5.5t82 15.5t81 29q-35 18 -72 30.5t-78 16.5q-82 4 -160 -31q0 -13 -2 -19zM943 377q-5 4 4 15.5t27 25.5q-4 99 0.5 195t8.5 195q5 83 1.5 166t11.5 165q16 20 60 54.5t96.5 70t101.5 63t81 33.5l4 3v-2q7 0 9 -1 q4 -11 -1.5 -26t3.5 -26q36 -42 84 -81t99.5 -74.5t105 -70t102.5 -66.5q27 -15 55 -35.5t59 -37t65 -28.5t70 -8q-11 -27 -50.5 -59.5t-87.5 -62.5t-97 -56.5t-81 -42.5q-11 -4 -22.5 -9t-22.5 -10q-2 -2 -4 -2q-9 -3 -23 -11q-2 0 -4 -2h-2q-3 -1 -5 -2t-4 -3 q-34 -15 -67.5 -32t-69.5 -33q-27 -13 -59 -28.5t-68 -33.5q4 -30 10 -59.5t15 -56.5q9 -30 22.5 -59.5t33.5 -51.5t50 -37t75 -17q25 -3 52.5 4t52.5 16q22 16 50 36t55 39.5t48 34.5t32 24q41 28 81.5 55t82.5 51q9 5 26.5 14t32 15t23.5 7t2 -6q-4 -7 -22 -21 q-8 -8 -17.5 -15.5t-20.5 -16.5q-40 -28 -99 -75t-130.5 -100t-150 -105t-156.5 -94.5t-149.5 -68t-129.5 -22.5q-65 4 -104.5 35t-60.5 74t-30 91t-14 87l-6 84zM1311 735q-1 -54 1 -109q13 6 26.5 10t26.5 9q20 4 9 -12q25 11 49.5 21.5t49.5 21.5q18 6 33.5 12.5 t33.5 15.5q-38 17 -71.5 41.5t-65.5 43.5q-21 13 -42.5 27.5t-46.5 28.5q-2 -56 -3 -110zM1596 652q2 0 3 1t3 1l-4 -2h-2z" />
<glyph unicode="&#xe7;" horiz-adv-x="872" d="M-20 -559q-6 6 4 20.5t25.5 29.5t29.5 27.5t18 16.5q18 18 48 45t62 53.5t64.5 47t57.5 24.5q31 0 60.5 -3t58.5 -7q-29 16 -63 26.5t-69 8.5q-6 0 -25.5 -6.5t-38.5 -10.5t-32.5 -1t-7.5 22q12 33 31.5 61.5t36.5 57.5q16 29 34.5 54t34.5 52q41 43 83 82t87 74 q2 0 24.5 18.5t47 36.5t43 26.5t12.5 -10.5q-14 -23 -33.5 -47t-37 -51t-32 -54.5t-20.5 -53.5q8 -8 25.5 -6.5t36 7t38 10.5t31.5 3q72 -8 127.5 -53t92.5 -105q27 -43 28.5 -79t-15 -66.5t-45 -59t-61.5 -57.5q-31 -27 -64.5 -57.5t-70.5 -59t-77 -50t-80 -28.5 q-57 -8 -116 0.5t-118 21.5t-118.5 26.5t-116.5 13.5zM12 414q-2 37 0 63.5t7.5 51t13.5 50t20 60.5q18 49 81 117.5t142.5 133t159.5 118t133 71.5q41 16 85 21.5t85 15.5q43 31 72 37l4 4q0 -2 -2 -2h2q0 -10 -6 -22q-18 -76 -12 -149t25.5 -144.5t45 -143t45.5 -145.5 q-8 -25 -33.5 -52.5t-57 -55t-63.5 -51t-52 -40.5q-4 -2 -18.5 -13t-32 -23.5t-34 -20.5t-22.5 -4q-2 4 -3 10t-3 10q-3 5 -19 13q-6 6 9 26q-20 66 -44 131.5t-40.5 131t-19.5 133t16 135.5q-25 -14 -45.5 -21.5t-36.5 -11.5q-18 -4 -37 -6t-35 -6q-12 -41 -15 -84t-1 -80 q6 -92 37.5 -186.5t89 -159t136.5 -81t177 47.5q10 6 22.5 17.5t18.5 0.5q6 -2 -4 -12q-43 -66 -114 -119t-134 -100q-47 -31 -103.5 -67t-115.5 -40q-78 -4 -137.5 42t-99.5 115t-62.5 146.5t-24.5 137.5z" />
<glyph unicode="&#xe8;" horiz-adv-x="917" d="M-35 297q-4 4 4 17.5t25 29.5q-4 115 0 226.5t8 226.5q4 96 1 192t11 191q14 23 54.5 63.5t88.5 81.5t93 73t74 38l4 4v-2q6 0 8 -2q4 -12 -1 -29.5t3 -30.5q33 -49 77 -94t91 -86t96 -81t94 -77q25 -18 50.5 -41.5t54 -43t59.5 -33t64 -9.5q-10 -31 -46 -68.5t-80 -72.5 t-89 -65.5t-74 -49.5q-10 -4 -20.5 -10t-20.5 -12q-2 -2 -4 -2q-8 -4 -21 -13q-2 0 -4 -2h-2q-2 -2 -4 -3t-4 -3q-31 -18 -61.5 -37.5t-63.5 -37.5q-25 -16 -54.5 -34t-62.5 -38q4 -35 9.5 -69t13.5 -66q8 -35 20.5 -69t31 -59.5t46 -43t68.5 -19.5q23 -4 48 4.5t48 18.5 q20 18 46 41.5t50.5 46t44 40t29.5 27.5q37 33 74 64t76 59q8 6 24 16.5t29.5 17.5t21.5 8t2 -7q-4 -8 -20 -24q-8 -10 -16.5 -18.5l-18.5 -18.5q-37 -33 -91 -87.5t-119.5 -116t-137.5 -121.5t-143.5 -109.5t-137 -79t-118.5 -25.5q-59 4 -95.5 40t-55.5 86t-27.5 105.5 t-12.5 100.5l-6 98zM59 1671q2 2 3 2.5t4 2.5v2q14 23 54 62.5t86 79.5t91 72.5t74 41.5q4 4 8 6q0 -4 2 -4h30.5t30.5 -2q-4 -16 -26 -45q39 -35 104.5 -76t135 -78t131 -67.5t94.5 -45.5q-10 -31 -48 -70.5t-86.5 -77.5t-96.5 -70t-79 -46q-25 12 -68.5 32.5t-96 47.5 t-107.5 57.5t-103.5 61.5t-83 60.5t-44.5 53.5h-9zM302 711.5q-1 -62.5 1 -125.5q12 6 24.5 11t24.5 11q18 4 8 -14q23 12 45.5 24.5t45.5 24.5q16 8 30.5 15.5t30.5 17.5q-35 20 -65.5 48t-59.5 50q-20 16 -39.5 32.5t-42.5 33.5q-2 -66 -3 -128.5zM563 616q2 0 3 1t3 1 l-4 -2h-2z" />
<glyph unicode="&#xe9;" horiz-adv-x="917" d="M-35 297q-4 4 4 17.5t25 29.5q-4 115 0 226.5t8 226.5q4 96 1 192t11 191q14 23 54.5 63.5t88.5 81.5t93 73t74 38l4 4v-2q6 0 8 -2q4 -12 -1 -29.5t3 -30.5q33 -49 77 -94t91 -86t96 -81t94 -77q25 -18 50.5 -41.5t54 -43t59.5 -33t64 -9.5q-10 -31 -46 -68.5t-80 -72.5 t-89 -65.5t-74 -49.5q-10 -4 -20.5 -10t-20.5 -12q-2 -2 -4 -2q-8 -4 -21 -13q-2 0 -4 -2h-2q-2 -2 -4 -3t-4 -3q-31 -18 -61.5 -37.5t-63.5 -37.5q-25 -16 -54.5 -34t-62.5 -38q4 -35 9.5 -69t13.5 -66q8 -35 20.5 -69t31 -59.5t46 -43t68.5 -19.5q23 -4 48 4.5t48 18.5 q20 18 46 41.5t50.5 46t44 40t29.5 27.5q37 33 74 64t76 59q8 6 24 16.5t29.5 17.5t21.5 8t2 -7q-4 -8 -20 -24q-8 -10 -16.5 -18.5l-18.5 -18.5q-37 -33 -91 -87.5t-119.5 -116t-137.5 -121.5t-143.5 -109.5t-137 -79t-118.5 -25.5q-59 4 -95.5 40t-55.5 86t-27.5 105.5 t-12.5 100.5l-6 98zM25 1372q4 16 10.5 29l12.5 25q35 51 85 93t97 81q2 0 24.5 18.5t47 36.5t43 26.5t12.5 -10.5q-4 -10 -10.5 -19t-8.5 -20q8 -6 21 -6q70 78 144.5 148.5t166.5 122.5q10 6 22.5 17t18.5 1q6 -2 -4 -12q-23 -35 -53.5 -65.5t-65.5 -59.5 q-18 -23 -36.5 -43.5t-39.5 -42.5q-74 -78 -159.5 -152.5t-182.5 -130.5q-12 -8 -30.5 -18t-38 -17.5t-39 -10.5t-33.5 5zM302 711.5q-1 -62.5 1 -125.5q12 6 24.5 11t24.5 11q18 4 8 -14q23 12 45.5 24.5t45.5 24.5q16 8 30.5 15.5t30.5 17.5q-35 20 -65.5 48t-59.5 50 q-20 16 -39.5 32.5t-42.5 33.5q-2 -66 -3 -128.5zM408 1651q-4 -2 1 1t9 5q-4 -2 -5 -3t-5 -3zM563 616q2 0 3 1t3 1l-4 -2h-2z" />
<glyph unicode="&#xea;" horiz-adv-x="917" d="M-35 297q-4 4 4 17.5t25 29.5q-4 115 0 226.5t8 226.5q4 96 1 192t11 191q14 23 54.5 63.5t88.5 81.5t93 73t74 38l4 4v-2q6 0 8 -2q4 -12 -1 -29.5t3 -30.5q33 -49 77 -94t91 -86t96 -81t94 -77q25 -18 50.5 -41.5t54 -43t59.5 -33t64 -9.5q-10 -31 -46 -68.5t-80 -72.5 t-89 -65.5t-74 -49.5q-10 -4 -20.5 -10t-20.5 -12q-2 -2 -4 -2q-8 -4 -21 -13q-2 0 -4 -2h-2q-2 -2 -4 -3t-4 -3q-31 -18 -61.5 -37.5t-63.5 -37.5q-25 -16 -54.5 -34t-62.5 -38q4 -35 9.5 -69t13.5 -66q8 -35 20.5 -69t31 -59.5t46 -43t68.5 -19.5q23 -4 48 4.5t48 18.5 q20 18 46 41.5t50.5 46t44 40t29.5 27.5q37 33 74 64t76 59q8 6 24 16.5t29.5 17.5t21.5 8t2 -7q-4 -8 -20 -24q-8 -10 -16.5 -18.5l-18.5 -18.5q-37 -33 -91 -87.5t-119.5 -116t-137.5 -121.5t-143.5 -109.5t-137 -79t-118.5 -25.5q-59 4 -95.5 40t-55.5 86t-27.5 105.5 t-12.5 100.5l-6 98zM14 1341q-2 14 15.5 40t40 52.5t46 50t33.5 35.5q33 37 60.5 76t56.5 76q27 33 81 88t116.5 108.5t124 93.5t102.5 42q8 0 15 -9.5t12.5 -22.5t8.5 -24.5t3 -13.5q25 -66 50.5 -118t78.5 -99q-10 -31 -48 -71t-86 -77.5t-96.5 -69.5t-78.5 -46 q-23 20 -43.5 41.5t-36.5 48.5q-16 31 -29.5 82t-32.5 86q-31 -35 -55.5 -66t-24.5 -45q-8 -25 -33.5 -52.5t-57 -55t-63.5 -51t-52 -39.5q-4 -2 -19.5 -14.5t-33 -25t-33 -19.5t-21.5 -1zM302 711.5q-1 -62.5 1 -125.5q12 6 24.5 11t24.5 11q18 4 8 -14q23 12 45.5 24.5 t45.5 24.5q16 8 30.5 15.5t30.5 17.5q-35 20 -65.5 48t-59.5 50q-20 16 -39.5 32.5t-42.5 33.5q-2 -66 -3 -128.5zM557 1890q8 8 14 12q-4 -2 -14 -12zM563 616q2 0 3 1t3 1l-4 -2h-2z" />
<glyph unicode="&#xeb;" horiz-adv-x="917" d="M-35 297q-4 4 4 17.5t25 29.5q-4 115 0 226.5t8 226.5q4 96 1 192t11 191q14 23 54.5 63.5t88.5 81.5t93 73t74 38l4 4v-2q6 0 8 -2q4 -12 -1 -29.5t3 -30.5q33 -49 77 -94t91 -86t96 -81t94 -77q25 -18 50.5 -41.5t54 -43t59.5 -33t64 -9.5q-10 -31 -46 -68.5t-80 -72.5 t-89 -65.5t-74 -49.5q-10 -4 -20.5 -10t-20.5 -12q-2 -2 -4 -2q-8 -4 -21 -13q-2 0 -4 -2h-2q-2 -2 -4 -3t-4 -3q-31 -18 -61.5 -37.5t-63.5 -37.5q-25 -16 -54.5 -34t-62.5 -38q4 -35 9.5 -69t13.5 -66q8 -35 20.5 -69t31 -59.5t46 -43t68.5 -19.5q23 -4 48 4.5t48 18.5 q20 18 46 41.5t50.5 46t44 40t29.5 27.5q37 33 74 64t76 59q8 6 24 16.5t29.5 17.5t21.5 8t2 -7q-4 -8 -20 -24q-8 -10 -16.5 -18.5l-18.5 -18.5q-37 -33 -91 -87.5t-119.5 -116t-137.5 -121.5t-143.5 -109.5t-137 -79t-118.5 -25.5q-59 4 -95.5 40t-55.5 86t-27.5 105.5 t-12.5 100.5l-6 98zM49 1974q-6 6 4 20.5t25.5 30t30 28t18.5 16.5q18 18 48 44.5t61.5 53.5t64.5 47.5t57 24.5q6 -6 9 -31t4.5 -54.5t1.5 -58t2 -41.5q8 -49 20 -93t35 -85q4 49 13 90t26 70q31 53 83 96t99 78q20 18 43 36.5t44.5 32t40 18.5t34.5 -3q-12 -35 -55 -78v-4 q-4 -31 -6.5 -62.5t-6.5 -64.5q-6 -96 -2 -189.5t21 -189.5q-8 -25 -34 -52.5t-57.5 -55t-63.5 -51t-52 -39.5q-4 -2 -19.5 -14.5t-33 -25t-32.5 -19.5t-22 -1q-6 29 -11 70t-9 88q-53 -45 -108.5 -82t-90.5 -53q-76 66 -114.5 146.5t-55.5 178.5q-2 8 -3 37t-2 59.5t-3 56 t-4 25.5zM302 711.5q-1 -62.5 1 -125.5q12 6 24.5 11t24.5 11q18 4 8 -14q23 12 45.5 24.5t45.5 24.5q16 8 30.5 15.5t30.5 17.5q-35 20 -65.5 48t-59.5 50q-20 16 -39.5 32.5t-42.5 33.5q-2 -66 -3 -128.5zM563 616q2 0 3 1t3 1l-4 -2h-2z" />
<glyph unicode="&#xec;" horiz-adv-x="626" d="M-166 1456q4 2 8 6q18 27 59.5 68t88.5 81t92 70.5t70 34.5q10 -10 21.5 -17.5t21.5 -17.5q-8 -23 -25 -43q43 -86 110.5 -163.5t153.5 -114.5q23 -10 44.5 -13.5t43.5 -9.5q-8 -25 -35.5 -56.5t-64.5 -63t-79 -62.5t-77 -53q8 -16 15 -25q23 -20 55.5 -29.5t67 -12.5 t68.5 -2t63 1q23 0 41 -2t40 -8q23 16 45.5 28.5t43.5 16.5q-10 -29 -43 -70t-77 -85t-92.5 -82.5t-84.5 -61.5q29 -88 56.5 -178t61 -172t76.5 -151.5t98 -118.5q18 -16 42 -20.5t46 -14.5l68 43q10 6 22.5 17t18.5 1q6 -2 -4 -12q-43 -66 -113.5 -119t-134.5 -100 q-4 -4 -28.5 -19.5t-52 -34t-51.5 -32t-26 -13.5q-59 14 -100 49t-71.5 81.5t-54 98.5t-46.5 103q-35 80 -62.5 162l-55 164t-59.5 161.5t-73 155.5q-18 23 -31 51q12 16 38 44t57.5 58t67.5 60.5t69 52.5q-90 31 -150.5 88.5t-119.5 139.5q-8 10 -20.5 27.5t-23 37 t-15.5 39t1 35.5q-2 0 -4 2z" />
<glyph unicode="&#xed;" horiz-adv-x="626" d="M-57 705q2 2 2 6q16 23 56 63.5t87 81.5t92 73t74 38l4 4v-2q18 -4 35 -29q31 -12 75 -19.5t89 -12.5t84.5 -7t64.5 -2q-8 -23 -30.5 -49.5t-53 -55t-66.5 -56t-69 -50.5q27 -115 46.5 -230.5t60.5 -226.5q12 -31 27.5 -64.5t37 -61t50 -45t65.5 -17.5q-10 -31 -48 -71 t-86 -77.5t-96.5 -69.5t-78.5 -46q-37 0 -67 18.5t-52.5 47t-37.5 63.5t-28 65q-25 63 -40 129t-27.5 132.5t-25.5 133t-32 132.5q-4 10 -10 32.5t-15.5 48t-21.5 52t-24 45.5q-27 10 -37 20q0 2 -4 7zM-51 1073q16 25 57 66t89 83t94.5 73.5t72.5 35.5q8 -8 14.5 -16 t12.5 -19q53 -6 106.5 6.5t104.5 37t99 54t91 56.5q41 25 40 17.5t-26.5 -33t-67.5 -62.5t-84 -70.5t-74 -59t-36 -28.5q-43 -27 -100 -62.5t-120.5 -65t-127 -47t-114.5 -7.5q-12 4 -17.5 17.5t-13.5 23.5z" />
<glyph unicode="&#xee;" horiz-adv-x="626" d="M-190 997q20 29 72 79t110 98q4 6 6 11t6 11q23 35 44.5 66.5t43.5 64.5q31 43 82 99.5t110.5 108.5t121 90t114.5 44q20 -35 31.5 -82t23 -93t31 -87t60.5 -66q18 -10 39.5 -14t42.5 -10q-10 -31 -48 -71t-86.5 -78t-96.5 -69.5t-79 -45.5q-74 20 -106.5 48.5t-47 64.5 t-19.5 79t-25 96q-41 -51 -95.5 -108t-113 -108.5t-113.5 -89.5t-100 -50q0 2 -4 6q0 2 -4 6zM-66 721v6q53 78 137.5 144.5t164.5 113.5q2 0 3 1t3 1t6 4q0 -2 -1 -2t-1 -2q39 8 82 7t86 -5t85 -9t81 -7q-8 -25 -38 -57.5t-69 -66.5t-82 -65.5t-78 -52.5q47 -135 91.5 -272 t107.5 -266q31 -66 67.5 -123.5t82.5 -114.5q8 -8 20 -20.5t27 -16.5q31 23 41 24t-19 -36q-31 -39 -67.5 -72t-75.5 -65q-16 -14 -37 -33t-44.5 -37t-48 -31.5t-46.5 -17.5q-14 -2 -34 14.5t-37 38t-30.5 40.5t-17.5 24q-84 121 -136.5 258t-97.5 274q-10 33 -32.5 91.5 t-45 120.5t-37 119.5t-10.5 90.5zM594 -174q6 10 14 12q4 4 9.5 7t9.5 8q-18 -12 -33 -27z" />
<glyph unicode="&#xef;" horiz-adv-x="626" d="M-98 1520q2 2 3 2t3 2q18 25 56 62.5t82 76.5t87 68.5t72 40.5q4 4 6 5t6 5q0 -10 2 -15q16 -63 29.5 -125.5t30.5 -125.5q4 8 8 15t8 15q35 51 85 93t97 81q2 0 24.5 18.5t47 37t43 26.5t12.5 -10q-68 -111 -68.5 -229.5t23.5 -243.5q-8 -25 -33.5 -52.5t-57.5 -55 t-63.5 -51t-52.5 -40.5q-4 -2 -19.5 -14t-32.5 -24.5t-32.5 -19.5t-21.5 -1q-4 12 -4 16q-25 -18 -45.5 -34.5t-36.5 -26.5q-4 -2 -19.5 -14.5t-33 -24.5t-33 -19.5t-21.5 -1.5q-49 127 -76.5 259.5t-62.5 261.5q-2 0 -6 4q0 16 -2 24q0 2 -4 15zM30 552q-7 132 23 243 q6 18 22.5 36.5t36 36t40 32.5t32.5 26q33 27 76 66.5t86 56.5l25 22q-2 -4 -2 -9t-2 -9q14 0 36.5 -9.5t46 -21.5t43 -23.5t29.5 -15.5q74 -27 152 -37q-10 -31 -48 -70.5t-86 -77.5t-96.5 -70t-78.5 -46h-9q16 -100 45 -207.5t67 -208t83 -187.5t94 -147q18 -23 41 -39 t43 -36q-10 -31 -48 -71t-86 -78t-96 -69.5t-79 -46.5q-37 33 -57.5 51.5t-37 38t-33 45t-42.5 74.5q-53 98 -101.5 224.5t-80 260.5t-38.5 266z" />
<glyph unicode="&#xf0;" horiz-adv-x="1433" d="M-113 1405q0 8 2 12q0 6 9 13q16 23 45.5 47t36.5 32q31 29 64.5 61t70.5 57.5t76.5 43t84.5 17.5q23 4 6.5 -17.5t-42.5 -46.5q20 -16 44.5 -35.5l49 -39t46 -36t34.5 -28.5q115 -109 222 -222.5t208 -236.5l24 -31q135 70 263.5 147t257.5 154q41 25 39.5 18t-27 -33 t-67.5 -62.5t-84 -70.5l-73.5 -59.5t-35.5 -27.5q-55 -33 -109.5 -65.5t-109.5 -65.5q98 -123 190 -251t170 -265q23 -41 48.5 -89.5t48 -100.5t39 -104t22.5 -100q10 -74 -4.5 -124t-46 -89.5t-76.5 -73.5t-96 -77q-12 -10 -31 -27.5t-40.5 -34t-43 -30t-39.5 -13.5 q-86 -2 -172 29t-167 78t-154.5 105.5t-137.5 111.5q-10 8 -27.5 24.5t-36 36t-35 41t-20.5 39.5q-6 25 15.5 63t58.5 81t84 88t91 83t80 67.5t52 41.5q16 14 30.5 26.5t29.5 22.5q-47 61 -95.5 122t-95.5 118q-59 -29 -117.5 -56.5t-117.5 -51.5q-2 -2 -29 -11.5t-65.5 -23 t-83 -28.5t-83 -27.5t-66.5 -19.5t-32 -5q-8 4 -9 15.5t-1 19.5q16 25 57 65.5t89.5 82.5t94.5 74t72 36q0 -8 1 -14.5t6 -14.5q27 0 83 16.5t115 38.5q-51 59 -98 111.5t-88 95.5q-68 72 -138.5 142.5t-148.5 134.5q-8 8 -26.5 19t-38 24.5t-35 27t-17.5 25.5zM627 274 q6 -18 20.5 -37.5t31.5 -38t33.5 -33.5t28.5 -26q78 -66 168.5 -133.5t188.5 -116.5q-43 131 -129 277.5t-193 292.5q-12 -12 -25.5 -23.5t-29.5 -25.5q-10 -10 -31.5 -29t-27.5 -23q-14 -16 -27.5 -40.5t-7.5 -43.5z" />
<glyph unicode="&#xf1;" horiz-adv-x="1134" d="M-213 467q6 23 32.5 51.5t58.5 57t63.5 53t48.5 39.5q8 8 13 15t9 15q0 25 2 49.5t9 49.5v2l2 2q16 25 56 64.5t86 79.5t90 71t73 39l6 6q0 -2 -2 -4h2q12 -25 8 -50.5t-18 -54.5q2 -78 16 -155.5t18 -153.5q2 -29 2 -54.5t3 -53.5q78 78 162.5 149.5t170.5 134.5 q-25 -4 -13.5 11.5t46.5 39.5q33 39 77 72t77 59q29 23 59.5 48.5t65.5 35.5q4 2 12 2q4 -18 -3 -36.5t-20 -34.5q0 -4 -1 -10.5t-1 -14.5q-4 -47 -2 -94t6 -94q6 -66 15.5 -137.5t28 -142t48 -135t74.5 -118.5q90 -102 193.5 -169.5t215.5 -107.5t231.5 -58.5t243.5 -21.5 t250 2t251 11q-10 -31 -48 -70.5t-86 -77.5t-96.5 -70t-78.5 -46q-154 -8 -321 -14t-332 9t-319.5 63.5t-283.5 152.5q-84 70 -140 154t-90 178t-50.5 196.5t-22.5 206.5q-2 35 -3 73t3 75q-35 -27 -66.5 -52.5t-54.5 -52.5q-39 -43 -72.5 -95t-57 -109.5t-34 -118 t-0.5 -119.5q6 -41 16.5 -79t12.5 -81q-8 -25 -33.5 -52.5t-58.5 -55t-64.5 -51t-52.5 -40.5q-4 -2 -17.5 -13t-29.5 -23.5t-32.5 -20.5t-22.5 -4q-2 0 -2 -2v4q-33 63 -45.5 139t-16.5 154t-3 154.5t-3 146.5q-4 55 -13 113.5t-16 117.5q-27 -25 -57.5 -49t-60 -44.5 t-57 -37t-46.5 -24.5q-2 2 -6 2q0 4 -4 4zM63 1092q2 14 12 24q23 35 44.5 69t43.5 62q14 18 43 49t67 65t82 67.5t85 60.5t77 41t60 8q39 -8 71 -44t62.5 -70.5t64.5 -56t81 -1.5q18 12 35.5 24.5t33.5 22.5q35 20 39 17t-13.5 -21t-50 -47t-68.5 -59.5t-70.5 -60.5 t-57.5 -46v-2q0 -2 -12 -10t-26.5 -17.5t-28 -16.5t-15.5 -9q-49 -31 -79.5 -41t-57.5 -1t-55.5 35.5t-69.5 69.5q-10 12 -27.5 28.5t-35.5 29.5q-31 -27 -63 -53.5t-59.5 -49t-46 -37t-22.5 -16.5q-16 -10 -39 -21q-2 2 -2 3.5t-2 3.5zM659 1165q-4 -2 1 0t9 6 q-8 -4 -10 -6z" />
<glyph unicode="&#xf2;" horiz-adv-x="901" d="M4 139q2 45 6 80q6 53 22.5 136t39 168t51 160t61.5 114q6 8 12.5 15t12.5 13q-6 10 -13.5 21.5t-13.5 21.5q16 25 57.5 66t89.5 83t94 73.5t73 35.5q92 -141 179 -282.5t167 -288.5q6 -12 24.5 -41t37 -62.5t32.5 -65.5t14 -50h2l-2 -2q0 -8 -2 -10q-59 -72 -139 -142.5 t-166 -109.5q-41 12 -67.5 18t-71.5 -16q-6 -4 -13.5 -7.5t-13.5 -7.5q-4 -4 -8 -6q-8 -4 -10 -6t-4 -2l-2 -2q-10 -6 -18.5 -12t-18.5 -11q-31 -18 -69 -40.5t-78 -41t-82 -25.5t-81 5q-43 14 -65.5 50t-30.5 81t-6 90zM43 1495q2 2 3 2.5t4 2.5v2q14 23 54 62.5t86 79.5 t91 72.5t74 41.5q4 4 8 6q0 -4 2 -4h30.5t30.5 -2q-4 -16 -26 -45q39 -35 104.5 -76t135 -78t131 -67.5t94.5 -45.5q-10 -31 -48 -70.5t-86.5 -77.5t-96.5 -70t-79 -46q-25 12 -68.5 32.5t-96 47.5t-107.5 57.5t-103.5 61.5t-83 60.5t-44.5 53.5h-9zM317.5 348.5 q4.5 -59.5 27 -104.5t71.5 -62q41 -14 81 -5.5t81 28.5q-55 104 -112.5 203.5t-119.5 199.5q-14 -63 -23.5 -131.5t-5 -128z" />
<glyph unicode="&#xf3;" horiz-adv-x="901" d="M4 139q2 45 6 80q6 53 22.5 136t39 168t51 160t61.5 114q6 8 12.5 15t12.5 13q-6 10 -13.5 21.5t-13.5 21.5q16 25 57.5 66t89.5 83t94 73.5t73 35.5q92 -141 179 -282.5t167 -288.5q6 -12 24.5 -41t37 -62.5t32.5 -65.5t14 -50h2l-2 -2q0 -8 -2 -10q-59 -72 -139 -142.5 t-166 -109.5q-41 12 -67.5 18t-71.5 -16q-6 -4 -13.5 -7.5t-13.5 -7.5q-4 -4 -8 -6q-8 -4 -10 -6t-4 -2l-2 -2q-10 -6 -18.5 -12t-18.5 -11q-31 -18 -69 -40.5t-78 -41t-82 -25.5t-81 5q-43 14 -65.5 50t-30.5 81t-6 90zM104 1083q4 16 10.5 29l12.5 25q35 51 85 93t97 81 q2 0 24.5 18.5t47 36.5t43 26.5t12.5 -10.5q-4 -10 -10.5 -19t-8.5 -20q8 -6 21 -6q70 78 144.5 148.5t166.5 122.5q10 6 22.5 17t18.5 1q6 -2 -4 -12q-23 -35 -53.5 -65.5t-65.5 -59.5q-18 -23 -36.5 -43.5t-39.5 -42.5q-74 -78 -159.5 -152.5t-182.5 -130.5 q-12 -8 -30.5 -18t-38 -17.5t-39 -10.5t-33.5 5zM317.5 348.5q4.5 -59.5 27 -104.5t71.5 -62q41 -14 81 -5.5t81 28.5q-55 104 -112.5 203.5t-119.5 199.5q-14 -63 -23.5 -131.5t-5 -128zM487 1362q-4 -2 1 1t9 5q-4 -2 -5 -3t-5 -3z" />
<glyph unicode="&#xf4;" horiz-adv-x="901" d="M4 139q2 45 6 80q6 53 22.5 136t39 168t51 160t61.5 114q6 8 12.5 15t12.5 13q-6 10 -13.5 21.5t-13.5 21.5q16 25 57.5 66t89.5 83t94 73.5t73 35.5q92 -141 179 -282.5t167 -288.5q6 -12 24.5 -41t37 -62.5t32.5 -65.5t14 -50h2l-2 -2q0 -8 -2 -10q-59 -72 -139 -142.5 t-166 -109.5q-41 12 -67.5 18t-71.5 -16q-6 -4 -13.5 -7.5t-13.5 -7.5q-4 -4 -8 -6q-8 -4 -10 -6t-4 -2l-2 -2q-10 -6 -18.5 -12t-18.5 -11q-31 -18 -69 -40.5t-78 -41t-82 -25.5t-81 5q-43 14 -65.5 50t-30.5 81t-6 90zM31 993q-2 14 15.5 40t40 52.5t46 50t33.5 35.5 q33 37 60.5 76t56.5 76q27 33 81 88t116.5 108.5t124 93.5t102.5 42q8 0 15 -9.5t12.5 -22.5t8.5 -24.5t3 -13.5q25 -66 50.5 -118t78.5 -99q-10 -31 -48 -71t-86 -77.5t-96.5 -69.5t-78.5 -46q-23 20 -43.5 41.5t-36.5 48.5q-16 31 -29.5 82t-32.5 86q-31 -35 -55.5 -66 t-24.5 -45q-8 -25 -33.5 -52.5t-57 -55t-63.5 -51t-52 -39.5q-4 -2 -19.5 -14.5t-33 -25t-33 -19.5t-21.5 -1zM317.5 348.5q4.5 -59.5 27 -104.5t71.5 -62q41 -14 81 -5.5t81 28.5q-55 104 -112.5 203.5t-119.5 199.5q-14 -63 -23.5 -131.5t-5 -128zM574 1542q8 8 14 12 q-4 -2 -14 -12z" />
<glyph unicode="&#xf5;" horiz-adv-x="901" d="M4 139q2 45 6 80q6 53 22.5 136t39 168t51 160t61.5 114q6 8 12.5 15t12.5 13q-6 10 -13.5 21.5t-13.5 21.5q16 25 57.5 66t89.5 83t94 73.5t73 35.5q92 -141 179 -282.5t167 -288.5q6 -12 24.5 -41t37 -62.5t32.5 -65.5t14 -50h2l-2 -2q0 -8 -2 -10q-59 -72 -139 -142.5 t-166 -109.5q-41 12 -67.5 18t-71.5 -16q-6 -4 -13.5 -7.5t-13.5 -7.5q-4 -4 -8 -6q-8 -4 -10 -6t-4 -2l-2 -2q-10 -6 -18.5 -12t-18.5 -11q-31 -18 -69 -40.5t-78 -41t-82 -25.5t-81 5q-43 14 -65.5 50t-30.5 81t-6 90zM29 1174q2 14 12 24q23 35 44.5 69t43.5 62 q14 18 43 49t67 65t82 67.5t85 60.5t77 41t60 8q39 -8 71 -44t62.5 -70.5t64.5 -56t81 -1.5q18 12 35.5 24.5t33.5 22.5q35 20 39 17t-13.5 -21t-50 -47t-68.5 -59.5t-70.5 -60.5t-57.5 -46v-2q0 -2 -12 -10t-26.5 -17.5t-28 -16.5t-15.5 -9q-49 -31 -79.5 -41t-57.5 -1 t-55.5 35.5t-69.5 69.5q-10 12 -27.5 28.5t-35.5 29.5q-31 -27 -63 -53.5t-59.5 -49t-46 -37t-22.5 -16.5q-16 -10 -39 -21q-2 2 -2 3.5t-2 3.5zM317.5 348.5q4.5 -59.5 27 -104.5t71.5 -62q41 -14 81 -5.5t81 28.5q-55 104 -112.5 203.5t-119.5 199.5q-14 -63 -23.5 -131.5 t-5 -128zM625 1247q-4 -2 1 0t9 6q-8 -4 -10 -6z" />
<glyph unicode="&#xf6;" horiz-adv-x="901" d="M4 139q2 45 6 80q6 53 22.5 136t39 168t51 160t61.5 114q6 8 12.5 15t12.5 13q-6 10 -13.5 21.5t-13.5 21.5q16 25 57.5 66t89.5 83t94 73.5t73 35.5q92 -141 179 -282.5t167 -288.5q6 -12 24.5 -41t37 -62.5t32.5 -65.5t14 -50h2l-2 -2q0 -8 -2 -10q-59 -72 -139 -142.5 t-166 -109.5q-41 12 -67.5 18t-71.5 -16q-6 -4 -13.5 -7.5t-13.5 -7.5q-4 -4 -8 -6q-8 -4 -10 -6t-4 -2l-2 -2q-10 -6 -18.5 -12t-18.5 -11q-31 -18 -69 -40.5t-78 -41t-82 -25.5t-81 5q-43 14 -65.5 50t-30.5 81t-6 90zM76 1599q-6 6 4 20.5t25.5 30t30 28t18.5 16.5 q18 18 48 44.5t61.5 53.5t64.5 47.5t57 24.5q6 -6 9 -31t4.5 -54.5t1.5 -58t2 -41.5q8 -49 20 -93t35 -85q4 49 13 90t26 70q31 53 83 96t99 78q20 18 43 36.5t44.5 32t40 18.5t34.5 -3q-12 -35 -55 -78v-4q-4 -31 -6.5 -62.5t-6.5 -64.5q-6 -96 -2 -189.5t21 -189.5 q-8 -25 -34 -52.5t-57.5 -55t-63.5 -51t-52 -39.5q-4 -2 -19.5 -14.5t-33 -25t-32.5 -19.5t-22 -1q-6 29 -11 70t-9 88q-53 -45 -108.5 -82t-90.5 -53q-76 66 -114.5 146.5t-55.5 178.5q-2 8 -3 37t-2 59.5t-3 56t-4 25.5zM317.5 348.5q4.5 -59.5 27 -104.5t71.5 -62 q41 -14 81 -5.5t81 28.5q-55 104 -112.5 203.5t-119.5 199.5q-14 -63 -23.5 -131.5t-5 -128z" />
<glyph unicode="&#xf7;" horiz-adv-x="468" d="M-403 600q-6 6 4 20.5t25.5 30t29.5 27.5t18 16q18 18 48 45t62 53.5t64.5 47t57.5 24.5q23 -14 52.5 -21t60 -10.5t62.5 -5.5t56 -4q180 -16 351.5 -2.5t347.5 41.5q20 4 9 -13.5t-33.5 -39t-45.5 -40.5l-23 -19q-47 -41 -96 -82t-108 -68q-180 -29 -354.5 -43t-356.5 2 q-25 2 -56.5 4t-62 5t-60 10.5t-52.5 21.5zM-53 178q2 8 19.5 26.5t17.5 20.5q4 4 33.5 30t69.5 60.5t83 70.5t72.5 56.5t38 20.5t-20.5 -35q-18 -18 3.5 -57t56 -81t72.5 -76t52 -44q-10 -31 -48 -71t-86 -77.5t-96 -69.5t-79 -46q-27 18 -63.5 49t-67.5 67.5t-49 76.5 t-8 79zM-37 1077q14 23 53 64t86.5 81t93.5 72.5t74 38.5l6 6q0 -2 -2 -4h2h13.5t13.5 -2q-4 -10 -11 -22.5t-18 -26.5q6 -59 41 -122.5t60 -110.5q-8 -25 -34 -52.5t-57.5 -55.5t-63.5 -51.5t-52 -39.5q-4 -2 -19.5 -14.5t-33 -24.5t-32.5 -19.5t-22 -0.5 q-14 29 -34.5 64.5t-37 73.5t-25.5 75.5t-1 70.5z" />
<glyph unicode="&#xf8;" horiz-adv-x="901" d="M-155 -781q47 295 155.5 561.5t265 503t354.5 447.5t425 395q2 2 17.5 13.5t34 25.5t38 26.5t29.5 17.5t9 -2t-22 -34q-8 -10 -16 -18.5t-18 -18.5q-35 -35 -70 -69.5t-76 -65.5q-57 -57 -113.5 -114.5t-109.5 -118.5q-238 -274 -385 -603t-205 -688q-8 -25 -33.5 -52 t-57.5 -55t-63.5 -51.5t-52.5 -39.5q-4 -2 -19 -14.5t-32.5 -24.5t-33 -19.5t-21.5 -1.5zM4 139q2 45 6 80q6 53 22.5 136t39 168t51 160t61.5 114q6 8 12.5 15t12.5 13q-6 10 -13.5 21.5t-13.5 21.5q16 25 57.5 66t89.5 83t94 73.5t73 35.5q92 -141 179 -282.5t167 -288.5 q6 -12 24.5 -41t37 -62.5t32.5 -65.5t14 -50h2l-2 -2q0 -8 -2 -10q-59 -72 -139 -142.5t-166 -109.5q-41 12 -67.5 18t-71.5 -16q-6 -4 -13.5 -7.5t-13.5 -7.5q-4 -4 -8 -6q-8 -4 -10 -6t-4 -2l-2 -2q-10 -6 -18.5 -12t-18.5 -11q-31 -18 -69 -40.5t-78 -41t-82 -25.5t-81 5 q-43 14 -65.5 50t-30.5 81t-6 90zM317.5 348.5q4.5 -59.5 27 -104.5t71.5 -62q41 -14 81 -5.5t81 28.5q-55 104 -112.5 203.5t-119.5 199.5q-14 -63 -23.5 -131.5t-5 -128z" />
<glyph unicode="&#xf9;" horiz-adv-x="1169" d="M-104 -25q0 25 12 53.5t29.5 57.5t36 54.5t28.5 41.5q35 57 95.5 137t117.5 168t96 177.5t33 164.5q-33 -25 -59.5 -40t-22.5 -1q2 6 8 13.5t13.5 15.5t12.5 13.5t7 7.5h2q4 6 17 18q-2 0 0 2v-2l12 12q-2 -2 -3 -2t-3 -2q4 4 9 10.5t9 10.5l2 2l30.5 30.5t33.5 30.5 q23 20 49 47t56 51.5t60.5 45t61.5 28.5q4 0 6 1t6 1q14 -49 2 -108.5t-42.5 -124t-71.5 -131t-84 -128t-82 -113.5t-62 -89q-10 -14 -26.5 -37.5t-34 -51.5t-29.5 -55.5t-12 -50.5q2 0 4 1.5t4 1.5q145 29 281.5 43t275.5 10q-8 59 -7 123.5t9 136.5q14 119 42 197.5 t74 139t111.5 112t157.5 114.5q10 6 22.5 17.5t18.5 0.5q6 -2 -4 -12q-10 -16 -21.5 -29.5t-23.5 -27.5q-4 -10 -9 -17.5t-7 -13.5q-16 -47 -28.5 -110.5t-18.5 -112.5q-8 -78 -8.5 -146.5t9 -135t31 -132t56.5 -135.5q-8 -25 -34 -52.5t-57.5 -55t-63.5 -51t-52 -40.5 q-4 -2 -19.5 -14t-33 -24.5t-33 -19.5t-21.5 -1q-4 4 -5 8t-5 8q-14 -10 -26.5 -16t-22.5 -10q-160 29 -319.5 39t-325.5 -11q-66 -6 -130.5 -22t-129.5 -27q0 2 -4 6zM374 1417q2 2 3 2.5t4 2.5v2q14 23 54 62.5t86 79.5t91 72.5t74 41.5q4 4 8 6q0 -4 2 -4h30.5t30.5 -2 q-4 -16 -26 -45q39 -35 104.5 -76t135 -78t131 -67.5t94.5 -45.5q-10 -31 -48 -70.5t-86.5 -77.5t-96.5 -70t-79 -46q-25 12 -68.5 32.5t-96 47.5t-107.5 57.5t-103.5 61.5t-83 60.5t-44.5 53.5h-9z" />
<glyph unicode="&#xfa;" horiz-adv-x="1169" d="M-104 -25q0 25 12 53.5t29.5 57.5t36 54.5t28.5 41.5q35 57 95.5 137t117.5 168t96 177.5t33 164.5q-33 -25 -59.5 -40t-22.5 -1q2 6 8 13.5t13.5 15.5t12.5 13.5t7 7.5h2q4 6 17 18q-2 0 0 2v-2l12 12q-2 -2 -3 -2t-3 -2q4 4 9 10.5t9 10.5l2 2l30.5 30.5t33.5 30.5 q23 20 49 47t56 51.5t60.5 45t61.5 28.5q4 0 6 1t6 1q14 -49 2 -108.5t-42.5 -124t-71.5 -131t-84 -128t-82 -113.5t-62 -89q-10 -14 -26.5 -37.5t-34 -51.5t-29.5 -55.5t-12 -50.5q2 0 4 1.5t4 1.5q145 29 281.5 43t275.5 10q-8 59 -7 123.5t9 136.5q14 119 42 197.5 t74 139t111.5 112t157.5 114.5q10 6 22.5 17.5t18.5 0.5q6 -2 -4 -12q-10 -16 -21.5 -29.5t-23.5 -27.5q-4 -10 -9 -17.5t-7 -13.5q-16 -47 -28.5 -110.5t-18.5 -112.5q-8 -78 -8.5 -146.5t9 -135t31 -132t56.5 -135.5q-8 -25 -34 -52.5t-57.5 -55t-63.5 -51t-52 -40.5 q-4 -2 -19.5 -14t-33 -24.5t-33 -19.5t-21.5 -1q-4 4 -5 8t-5 8q-14 -10 -26.5 -16t-22.5 -10q-160 29 -319.5 39t-325.5 -11q-66 -6 -130.5 -22t-129.5 -27q0 2 -4 6zM510 1185q4 16 10.5 29l12.5 25q35 51 85 93t97 81q2 0 24.5 18.5t47 36.5t43 26.5t12.5 -10.5 q-4 -10 -10.5 -19t-8.5 -20q8 -6 21 -6q70 78 144.5 148.5t166.5 122.5q10 6 22.5 17t18.5 1q6 -2 -4 -12q-23 -35 -53.5 -65.5t-65.5 -59.5q-18 -23 -36.5 -43.5t-39.5 -42.5q-74 -78 -159.5 -152.5t-182.5 -130.5q-12 -8 -30.5 -18t-38 -17.5t-39 -10.5t-33.5 5zM893 1464 q-4 -2 1 1t9 5q-4 -2 -5 -3t-5 -3z" />
<glyph unicode="&#xfb;" horiz-adv-x="1169" d="M-104 -25q0 25 12 53.5t29.5 57.5t36 54.5t28.5 41.5q35 57 95.5 137t117.5 168t96 177.5t33 164.5q-33 -25 -59.5 -40t-22.5 -1q2 6 8 13.5t13.5 15.5t12.5 13.5t7 7.5h2q4 6 17 18q-2 0 0 2v-2l12 12q-2 -2 -3 -2t-3 -2q4 4 9 10.5t9 10.5l2 2l30.5 30.5t33.5 30.5 q23 20 49 47t56 51.5t60.5 45t61.5 28.5q4 0 6 1t6 1q14 -49 2 -108.5t-42.5 -124t-71.5 -131t-84 -128t-82 -113.5t-62 -89q-10 -14 -26.5 -37.5t-34 -51.5t-29.5 -55.5t-12 -50.5q2 0 4 1.5t4 1.5q145 29 281.5 43t275.5 10q-8 59 -7 123.5t9 136.5q14 119 42 197.5 t74 139t111.5 112t157.5 114.5q10 6 22.5 17.5t18.5 0.5q6 -2 -4 -12q-10 -16 -21.5 -29.5t-23.5 -27.5q-4 -10 -9 -17.5t-7 -13.5q-16 -47 -28.5 -110.5t-18.5 -112.5q-8 -78 -8.5 -146.5t9 -135t31 -132t56.5 -135.5q-8 -25 -34 -52.5t-57.5 -55t-63.5 -51t-52 -40.5 q-4 -2 -19.5 -14t-33 -24.5t-33 -19.5t-21.5 -1q-4 4 -5 8t-5 8q-14 -10 -26.5 -16t-22.5 -10q-160 29 -319.5 39t-325.5 -11q-66 -6 -130.5 -22t-129.5 -27q0 2 -4 6zM373 1032q-2 14 15.5 40t40 52.5t46 50t33.5 35.5q33 37 60.5 76t56.5 76q27 33 81 88t116.5 108.5 t124 93.5t102.5 42q8 0 15 -9.5t12.5 -22.5t8.5 -24.5t3 -13.5q25 -66 50.5 -118t78.5 -99q-10 -31 -48 -71t-86 -77.5t-96.5 -69.5t-78.5 -46q-23 20 -43.5 41.5t-36.5 48.5q-16 31 -29.5 82t-32.5 86q-31 -35 -55.5 -66t-24.5 -45q-8 -25 -33.5 -52.5t-57 -55t-63.5 -51 t-52 -39.5q-4 -2 -19.5 -14.5t-33 -25t-33 -19.5t-21.5 -1zM916 1581q8 8 14 12q-4 -2 -14 -12z" />
<glyph unicode="&#xfc;" horiz-adv-x="1169" d="M-104 -25q0 25 12 53.5t29.5 57.5t36 54.5t28.5 41.5q35 57 95.5 137t117.5 168t96 177.5t33 164.5q-33 -25 -59.5 -40t-22.5 -1q2 6 8 13.5t13.5 15.5t12.5 13.5t7 7.5h2q4 6 17 18q-2 0 0 2v-2l12 12q-2 -2 -3 -2t-3 -2q4 4 9 10.5t9 10.5l2 2l30.5 30.5t33.5 30.5 q23 20 49 47t56 51.5t60.5 45t61.5 28.5q4 0 6 1t6 1q14 -49 2 -108.5t-42.5 -124t-71.5 -131t-84 -128t-82 -113.5t-62 -89q-10 -14 -26.5 -37.5t-34 -51.5t-29.5 -55.5t-12 -50.5q2 0 4 1.5t4 1.5q145 29 281.5 43t275.5 10q-8 59 -7 123.5t9 136.5q14 119 42 197.5 t74 139t111.5 112t157.5 114.5q10 6 22.5 17.5t18.5 0.5q6 -2 -4 -12q-10 -16 -21.5 -29.5t-23.5 -27.5q-4 -10 -9 -17.5t-7 -13.5q-16 -47 -28.5 -110.5t-18.5 -112.5q-8 -78 -8.5 -146.5t9 -135t31 -132t56.5 -135.5q-8 -25 -34 -52.5t-57.5 -55t-63.5 -51t-52 -40.5 q-4 -2 -19.5 -14t-33 -24.5t-33 -19.5t-21.5 -1q-4 4 -5 8t-5 8q-14 -10 -26.5 -16t-22.5 -10q-160 29 -319.5 39t-325.5 -11q-66 -6 -130.5 -22t-129.5 -27q0 2 -4 6zM475 1728q-6 6 4 20.5t25.5 30t30 28t18.5 16.5q18 18 48 44.5t61.5 53.5t64.5 47.5t57 24.5q6 -6 9 -31 t4.5 -54.5t1.5 -58t2 -41.5q8 -49 20 -93t35 -85q4 49 13 90t26 70q31 53 83 96t99 78q20 18 43 36.5t44.5 32t40 18.5t34.5 -3q-12 -35 -55 -78v-4q-4 -31 -6.5 -62.5t-6.5 -64.5q-6 -96 -2 -189.5t21 -189.5q-8 -25 -34 -52.5t-57.5 -55t-63.5 -51t-52 -39.5 q-4 -2 -19.5 -14.5t-33 -25t-32.5 -19.5t-22 -1q-6 29 -11 70t-9 88q-53 -45 -108.5 -82t-90.5 -53q-76 66 -114.5 146.5t-55.5 178.5q-2 8 -3 37t-2 59.5t-3 56t-4 25.5z" />
<glyph unicode="&#xfd;" horiz-adv-x="1056" d="M-277.5 -689q-1.5 32 6 60.5t20.5 58t32 68.5q14 33 52 76t90 90t113.5 94t120 87t110.5 71t87 45q53 23 109.5 34t109.5 28q20 4 9 -13.5t-33.5 -39t-44.5 -40.5l-23 -20q-47 -41 -96 -82t-109 -68q-53 -14 -105 -26.5t-105 -32.5h-3q-23 -47 -25.5 -101.5t11.5 -107.5 q20 -74 61.5 -131t93.5 -103t113.5 -85t120.5 -76q82 -49 158 -81t152.5 -43t155.5 1t169 51q57 27 113.5 49.5t113.5 44.5q2 4 2.5 8.5t2.5 8.5q12 51 5 100t-25.5 96t-46.5 91.5t-54 82.5q-41 57 -88 111.5t-95.5 107t-95.5 105.5t-88 113q-25 35 -51.5 88t-54.5 119 q-14 -8 -25.5 -14.5t-21.5 -10.5q-195 -2 -382.5 -22.5t-375.5 -67.5q-16 -8 -34.5 -16.5t-39.5 -8.5q-4 6 0 13.5t8 11.5q53 72 119 159t125 180t106.5 187t63.5 180q-8 4 -14.5 8.5t-14.5 8.5q-6 6 4.5 20.5t25.5 29.5t29.5 27.5t18.5 16.5q18 18 48 45t61.5 53.5t64.5 47 t58 24.5q10 -4 17 -9t15 -9q-18 -94 -65 -191.5t-107.5 -192t-127 -182.5t-122.5 -164q23 0 49.5 15.5t47.5 21.5q35 10 67.5 16.5t67.5 12.5q63 10 126.5 19.5t129.5 13.5q-31 104 -45.5 197.5t2.5 152.5q8 33 50 77t95 88t105.5 79t83.5 49q20 4 9 -13.5t-34 -39.5 q-2 -16 -1 -34t3 -30q4 -37 9 -72.5t12 -72.5q20 -111 51 -215.5t84 -208.5q31 -59 67.5 -114.5t79.5 -109.5q53 -63 117.5 -131.5t124 -141.5t105.5 -148.5t62.5 -155.5t-7 -163t-101.5 -167q-78 -86 -174 -162.5t-201 -128.5q-59 -29 -121.5 -50t-121.5 -48 q-49 -20 -97.5 -41.5t-98.5 -38t-101 -27t-107 -6.5q-88 8 -183 49.5t-171 86.5q-59 37 -120.5 76.5t-116 88t-95.5 105.5t-61 131q-12 45 -13.5 77zM414 1116q4 16 10.5 29l12.5 25q35 51 85 93t97 81q2 0 24.5 18.5t47 36.5t43 26.5t12.5 -10.5q-4 -10 -10.5 -19t-8.5 -20 q8 -6 21 -6q70 78 144.5 148.5t166.5 122.5q10 6 22.5 17t18.5 1q6 -2 -4 -12q-23 -35 -53.5 -65.5t-65.5 -59.5q-18 -23 -36.5 -43.5t-39.5 -42.5q-74 -78 -159.5 -152.5t-182.5 -130.5q-12 -8 -30.5 -18t-38 -17.5t-39 -10.5t-33.5 5zM797 1395q-4 -2 1 1t9 5q-4 -2 -5 -3 t-5 -3z" />
<glyph unicode="&#xfe;" horiz-adv-x="718" d="M-66 795q0 10 13.5 25.5t29.5 31.5q2 43 5.5 82t7.5 80t10 87t12 103q8 63 18.5 104.5t28 74t47 62.5t78.5 71q37 33 76 62.5t80 53.5q10 6 20.5 11.5t20.5 7.5q4 -2 7 -3t7 -6q-12 -35 -53 -75q-6 -27 -9 -52.5t-7 -52.5q-8 -68 -15.5 -119t-11.5 -97t-7 -92t-5 -101 q10 -4 19.5 -7.5t19.5 -9.5q-10 -25 -33 -51q35 -37 77 -71.5l70 -57.5q135 -109 277.5 -178.5t304.5 -118.5q-10 -31 -49 -70.5t-87 -77.5t-96.5 -70t-76.5 -46q-84 -16 -163 -41t-159 -57q47 -172 107.5 -339t134.5 -333q-8 -25 -34 -52.5t-57.5 -55t-63.5 -51t-52 -40.5 q-4 -2 -19.5 -14t-33 -24.5t-32.5 -19.5t-22 -1q-76 172 -139 346t-109 352t-72 361.5t-26 373.5v33q-16 18 -27.5 34.5t-11.5 27.5zM334 451q8 -41 15 -80t18 -78q31 20 62.5 39.5t66.5 38.5q-41 16 -81 36.5t-81 43.5z" />
</font>
</defs>
</svg>
